<svg width="85" height="31" viewBox="0 0 85 31" fill="none" xmlns="http://www.w3.org/2000/svg">
<path d="M0.508264 18.6567C0.508264 17.1691 0.548774 15.6802 0.498967 14.1946C0.425253 12.0132 0.561391 9.83438 0.51092 7.65428C0.508264 7.53323 0.509592 7.41153 0.512913 7.29049C0.529515 6.54835 0.627136 6.43591 1.32642 6.15017C3.16729 5.39811 5.00084 4.62753 6.83971 3.87151C8.53646 3.17435 10.2379 2.4891 11.9353 1.79194C12.8962 1.39706 13.8519 0.990941 14.8088 0.588125C15.1834 0.430703 15.5732 0.412182 15.9404 0.560345C17.5794 1.22245 19.2117 1.89976 20.8447 2.57641C22.4571 3.24513 24.0656 3.92508 25.68 4.58917C26.9975 5.13155 28.3178 5.66731 29.6446 6.18588C30.0451 6.34264 30.237 6.57679 30.2556 7.01665C30.3353 8.95467 30.3034 10.8933 30.3007 12.8314C30.2967 15.1993 30.2337 17.5686 30.2629 19.9359C30.2788 21.2349 30.2337 22.5327 30.2443 23.8311C30.2496 24.435 30.154 24.5415 29.6034 24.7624C27.5215 25.5991 25.4402 26.4385 23.363 27.2871C21.5321 28.0352 19.7065 28.7959 17.8802 29.5532C17.2985 29.7946 16.7108 30.0255 16.1423 30.2947C15.6436 30.5308 15.1893 30.4991 14.684 30.2847C12.5469 29.3806 10.3959 28.5081 8.25024 27.6225C6.26859 26.8043 4.28827 25.9834 2.30662 25.1659C1.87762 24.9886 1.44663 24.816 1.01364 24.6493C0.654364 24.5117 0.51092 24.2491 0.513577 23.878C0.518225 23.1286 0.513577 22.3799 0.513577 21.6305C0.513577 20.639 0.513577 19.6475 0.513577 18.6553H0.509592L0.508264 18.6567ZM1.29787 15.1788H1.29986C1.29986 17.646 1.29986 20.1131 1.30053 22.5803C1.30053 22.7232 1.29787 22.868 1.31912 23.0089C1.36893 23.339 1.54292 23.4276 1.85903 23.3277C2.89434 23.0003 3.86591 22.5175 4.87002 22.1153C6.15171 21.602 7.42212 21.0603 8.69784 20.5318C10.4836 19.7923 12.2726 19.0595 14.0551 18.3107C14.6116 18.0766 14.6076 17.8854 14.1487 17.4727C13.4009 16.8013 12.6313 16.1591 11.8343 15.5466C11.5016 15.2913 11.1875 15.0128 10.8595 14.7509C10.7652 14.6755 10.6509 14.606 10.5234 14.6708C10.3953 14.7356 10.3926 14.8679 10.3946 14.989C10.3972 15.1431 10.4046 15.2972 10.4218 15.45C10.4464 15.6689 10.4756 15.8892 10.1688 15.9209C9.88457 15.9507 9.78695 15.7787 9.74378 15.5274C9.64218 14.938 9.68003 14.3408 9.63288 13.7481C9.60964 13.4591 9.74445 13.2282 10.0586 13.1647C10.6888 13.0371 11.3223 12.9418 11.9692 12.9782C12.1657 12.9894 12.3709 13.0225 12.3922 13.26C12.4141 13.5034 12.2268 13.6112 12.0183 13.6476C11.8124 13.684 11.5986 13.674 11.3921 13.7071C11.1556 13.7448 11.0899 13.8969 11.2353 14.0835C11.3562 14.2389 11.5036 14.3771 11.653 14.5068C12.43 15.1768 13.2449 15.8019 13.9946 16.5043C14.1706 16.6697 14.3732 16.8093 14.5724 16.9475C14.7982 17.1036 14.9742 17.0275 15.0306 16.7563C15.0485 16.671 15.0505 16.5811 15.0505 16.4931C15.0505 11.7241 15.0519 6.95447 15.0485 2.1855C15.0485 1.55052 14.8719 1.43874 14.2716 1.68413C12.9115 2.23908 11.5554 2.80262 10.1967 3.36088C7.44735 4.49061 4.70134 5.62763 1.94602 6.74149C1.46124 6.93728 1.28525 7.22765 1.2899 7.74357C1.30982 10.2213 1.2992 12.6997 1.2992 15.1781L1.29787 15.1788ZM29.5271 15.2456H29.5218C29.5218 14.4525 29.5218 13.6595 29.5218 12.8664C29.5218 11.148 29.5131 9.42958 29.5284 7.71116C29.533 7.2131 29.3371 6.89825 28.8743 6.72165C28.4413 6.55629 28.0176 6.36712 27.5879 6.19184C25.2145 5.22614 22.8397 4.26176 20.4662 3.29539C19.2078 2.78344 17.9506 2.26686 16.6922 1.75556C15.8986 1.43278 15.8302 1.48107 15.8302 2.33432C15.8302 6.76266 15.8302 11.191 15.8289 15.6193C15.8289 15.9825 15.8003 16.3456 15.8023 16.7087C15.8036 16.8694 15.8036 17.0599 15.9862 17.1387C16.1543 17.2114 16.2818 17.0864 16.4006 16.9918C17.1623 16.3892 17.9241 15.786 18.6798 15.1762C19.0318 14.8924 19.3831 14.6053 19.7125 14.2964C19.9409 14.0821 19.8851 13.9181 19.583 13.8229C19.4249 13.7732 19.2622 13.7375 19.1022 13.6952C18.9136 13.6456 18.7123 13.5834 18.7449 13.3407C18.7781 13.092 18.9813 13.0391 19.1971 13.0622C19.7576 13.1224 20.3181 13.1839 20.8766 13.262C21.295 13.3202 21.4012 13.4571 21.4152 13.8738C21.4371 14.518 21.2611 15.1404 21.1994 15.7754C21.1821 15.9514 21.0606 16.0486 20.8779 16.042C20.694 16.0354 20.5897 15.9269 20.5758 15.7516C20.5598 15.5433 20.5671 15.3336 20.5605 15.1246C20.5565 15.0035 20.5578 14.8706 20.4297 14.8058C20.2995 14.7403 20.1959 14.8223 20.0996 14.8977C19.8393 15.1027 19.5843 15.3144 19.3213 15.5161C18.4009 16.2212 17.4798 16.9257 16.6211 17.7055C16.309 17.9893 16.3435 18.1394 16.728 18.3021C17.5216 18.6381 18.3179 18.9669 19.1148 19.2949C22.3642 20.6337 25.6136 21.9711 28.863 23.3099C29.2953 23.4878 29.4952 23.3707 29.5224 22.9124C29.5291 22.8026 29.5277 22.6921 29.5277 22.5823C29.5277 20.137 29.5277 17.691 29.5277 15.2456H29.5271ZM15.7777 21.137H15.7737C15.7737 21.688 15.7684 22.239 15.7764 22.79C15.779 22.9679 15.714 23.1994 15.9364 23.2867C16.1403 23.3661 16.2446 23.1617 16.3721 23.0499C16.4797 22.9553 16.576 22.8482 16.6815 22.751C16.8237 22.62 16.9744 22.5439 17.1457 22.708C17.3191 22.874 17.2945 23.0413 17.1384 23.1974C16.6942 23.6432 16.2506 24.0897 15.797 24.5263C15.5699 24.7445 15.3122 24.7412 15.0864 24.5236C14.6328 24.0871 14.1885 23.6419 13.7449 23.1954C13.6161 23.0658 13.5616 22.911 13.7104 22.7576C13.8605 22.6021 14.0298 22.6173 14.1852 22.7457C14.3214 22.8575 14.4429 22.9871 14.5731 23.1068C14.6727 23.1981 14.7803 23.2867 14.927 23.2345C15.0778 23.1809 15.101 23.0407 15.1017 22.9071C15.1037 21.7284 15.1116 20.549 15.095 19.3703C15.0897 18.9827 14.9097 18.8855 14.5478 19.0112C13.3153 19.4391 12.1299 19.9828 10.9225 20.4743C9.44826 21.0742 7.98394 21.6979 6.50833 22.2946C5.19675 22.825 3.88783 23.3588 2.59882 23.9402C2.35045 24.052 2.33186 24.226 2.55101 24.3807C2.62207 24.431 2.70707 24.4634 2.78875 24.4972C4.52203 25.2221 6.25465 25.9484 7.98925 26.67C9.2238 27.1833 10.4603 27.6906 11.6969 28.1999C12.8006 28.6543 13.9076 29.1001 15.006 29.5658C15.2617 29.6742 15.4868 29.6822 15.7385 29.5797C17.3762 28.9123 19.0191 28.2561 20.6555 27.5841C22.9758 26.631 25.2915 25.6672 27.6078 24.7048C27.8423 24.6076 28.0793 24.5077 28.2945 24.3761C28.5296 24.2319 28.5117 24.0533 28.262 23.9415C27.5966 23.6439 26.9331 23.3403 26.2577 23.0645C24.2834 22.2575 22.3044 21.4612 20.3261 20.6641C19.0045 20.1317 17.7116 19.5298 16.3714 19.0416C15.9198 18.8769 15.785 18.9682 15.7797 19.4524C15.7731 20.0139 15.7784 20.5761 15.7784 21.1384L15.7777 21.137Z" fill="black"/>
<path d="M80.3268 25.1332C79.5558 25.0902 78.7848 25.1775 78.0138 25.0076C76.9838 24.7807 76.1523 23.9241 75.9876 22.8956C75.8223 21.8637 75.8874 20.8292 75.8774 19.7954C75.8741 19.427 76.0076 19.2874 76.3688 19.2696C77.0435 19.2358 77.7163 19.2861 78.389 19.3324C78.652 19.3503 78.7423 19.5454 78.7615 19.7663C78.7861 20.0514 78.7821 20.3385 78.7888 20.6242C78.7921 20.7783 78.7874 20.9331 78.7941 21.0865C78.8299 21.955 79.1168 22.2533 79.9802 22.3016C80.3999 22.3248 80.8209 22.3254 81.236 22.2414C81.6165 22.164 81.8243 21.9147 81.9127 21.5535C81.9412 21.4364 81.9718 21.3141 81.9698 21.195C81.9532 20.3484 82.0767 19.5044 82.001 18.6544C81.9678 18.2774 81.8031 18.071 81.4651 17.9513C80.3919 17.5723 79.3201 17.1927 78.2316 16.8586C77.6824 16.69 77.1319 16.522 76.5886 16.3354C76.0633 16.1549 75.89 15.9134 75.8794 15.3499C75.8661 14.656 75.8728 13.9615 75.8728 13.2677C75.8728 12.2649 75.8688 11.2629 75.8781 10.2601C75.8827 9.74154 75.9445 9.22496 76.1251 8.7355C76.497 7.73077 77.2468 7.14209 78.2947 7.02898C79.6368 6.88413 80.9922 6.88016 82.335 7.03758C83.4268 7.1659 84.2828 7.67984 84.664 8.7818C84.8127 9.21239 84.8672 9.66416 84.8818 10.1146C84.9044 10.819 84.8984 11.5248 84.8924 12.2292C84.8885 12.677 84.7656 12.808 84.3213 12.8179C83.7243 12.8318 83.1266 12.8212 82.5289 12.8212C82.2241 12.8212 82.0727 12.6816 82.0362 12.3681C81.9804 11.8952 81.993 11.4223 81.985 10.9493C81.9704 10.0855 81.643 9.75014 80.7771 9.72435C80.4457 9.71443 80.1123 9.7131 79.7816 9.73427C79.2297 9.76933 78.8572 10.0934 78.8173 10.6431C78.7456 11.6432 78.7689 12.6466 78.81 13.648C78.826 14.0336 79.1195 14.1785 79.4416 14.279C80.3281 14.5542 81.218 14.8201 82.1006 15.1078C82.8358 15.3472 83.5623 15.6118 84.2934 15.8651C84.6441 15.9869 84.8679 16.2369 84.8679 16.5987C84.8679 18.6895 85.0339 20.7856 84.7749 22.8691C84.6334 24.0088 83.8644 24.7238 82.7395 24.9937C81.9379 25.1855 81.1324 25.0942 80.3281 25.1339L80.3268 25.1332Z" fill="black"/>
<path d="M42.3936 6.95484C42.814 6.95484 43.2344 6.95021 43.6547 6.95616C44.1388 6.96278 44.2664 7.07985 44.3693 7.55807C44.605 8.65606 44.8415 9.75339 45.0845 10.8501C45.4803 12.6333 45.9253 14.4073 46.2653 16.2011C46.5263 17.5749 46.8716 18.9295 47.1293 20.3033C47.3032 21.2327 47.5523 22.1481 47.7588 23.0721C47.8764 23.598 47.9819 24.1271 48.0796 24.6576C48.1334 24.9513 48.0138 25.1087 47.711 25.1153C47.0476 25.1299 46.3835 25.1246 45.72 25.1186C45.4186 25.116 45.2758 24.9255 45.1967 24.6536C44.9822 23.9115 44.8893 23.1449 44.7392 22.3902C44.5479 21.4311 44.5393 21.4172 43.5598 21.4172C42.6745 21.4172 41.7893 21.4165 40.9041 21.4212C40.3635 21.4245 40.2214 21.5508 40.1271 22.072C39.973 22.9279 39.8143 23.7825 39.6596 24.6384C39.6051 24.9387 39.4384 25.1173 39.1236 25.1199C38.4489 25.1246 37.7735 25.1312 37.0995 25.116C36.7747 25.1087 36.6672 24.944 36.7449 24.6318C37.0769 23.2964 37.3173 21.9424 37.6082 20.5983C38.1069 18.2965 38.6063 15.9954 39.1024 13.6929C39.5287 11.7146 39.9498 9.73487 40.3748 7.7565C40.4047 7.61694 40.4465 7.47936 40.4877 7.34244C40.5634 7.09044 40.7301 6.95815 41.0003 6.95881C41.4652 6.96079 41.9294 6.95881 42.3943 6.95881C42.3943 6.95749 42.3943 6.95616 42.3943 6.9555L42.3936 6.95484ZM42.4102 19.038V19.0413C42.7084 19.0413 43.0066 19.042 43.3054 19.0413C43.8619 19.0393 43.9947 18.8958 43.9137 18.3415C43.8453 17.8739 43.753 17.4102 43.668 16.9452C43.3492 15.1931 43.0331 13.4409 42.7057 11.6907C42.6679 11.487 42.6387 11.1847 42.3597 11.2059C42.114 11.2238 42.1187 11.5095 42.0848 11.7112C42.0058 12.1881 41.954 12.6703 41.8497 13.1413C41.5954 14.2902 41.3543 15.4418 41.173 16.6033C41.0701 17.2634 40.8695 17.9103 40.8735 18.5876C40.8755 18.8852 41.0143 19.038 41.3165 19.038C41.681 19.038 42.0456 19.038 42.4102 19.038Z" fill="black"/>
<path d="M61.586 25.127C61.3316 25.127 61.0753 25.1091 60.8229 25.1309C60.3235 25.1733 60.03 24.9318 59.8607 24.4926C59.5678 23.732 59.2783 22.97 58.9801 22.2113C58.6706 21.4229 58.3525 20.6378 58.0377 19.8513C57.98 19.7071 57.9262 19.5464 57.7336 19.5471C57.539 19.5484 57.4414 19.6972 57.3763 19.8507C57.1684 20.3368 56.9652 20.825 56.7726 21.3171C56.3629 22.3635 55.9664 23.4145 55.5554 24.4602C55.3229 25.0522 55.2041 25.1256 54.5679 25.1276C53.9815 25.1296 53.3951 25.1342 52.8087 25.1256C52.3531 25.119 52.2369 24.957 52.4056 24.5469C52.9322 23.2637 53.4721 21.9858 54.0021 20.7033C54.6124 19.2276 55.2213 17.7519 55.8217 16.2723C55.9419 15.9766 55.9206 15.6644 55.7978 15.3687C54.8196 13.0087 53.838 10.6507 52.8605 8.29069C52.7383 7.99569 52.628 7.69606 52.5218 7.3951C52.4348 7.14905 52.5517 6.98898 52.7921 6.97509C53.5425 6.9321 54.2962 6.9149 55.0453 6.98435C55.3734 7.01478 55.5129 7.29126 55.6178 7.56708C55.997 8.56585 56.3629 9.56991 56.7507 10.5654C56.9619 11.1084 57.2036 11.6396 57.4414 12.172C57.5038 12.3116 57.5935 12.4591 57.7814 12.4392C57.9541 12.4214 57.9926 12.2659 58.0444 12.1317C58.6454 10.5819 59.2504 9.03349 59.8454 7.48175C59.9862 7.11399 60.2286 6.94268 60.6257 6.95062C61.2114 6.96186 61.7985 6.94797 62.3842 6.95392C62.8989 6.95921 62.9939 7.06835 62.8066 7.55583C62.4513 8.48052 62.0628 9.39331 61.6783 10.3068C60.983 11.961 60.281 13.6133 59.5798 15.2656C59.425 15.6307 59.4264 15.9859 59.5804 16.3536C60.5958 18.7699 61.6072 21.1881 62.6173 23.607C62.7448 23.9119 62.8703 24.2188 62.9699 24.533C63.1048 24.959 62.9912 25.1111 62.5489 25.1243C62.2282 25.1342 61.9074 25.1263 61.5866 25.1263V25.1276L61.586 25.127Z" fill="black"/>
<path d="M70.8135 16.0385C70.8135 18.8146 70.8135 21.5913 70.8135 24.3673C70.8135 25.0493 70.7371 25.1247 70.0498 25.1267C69.5185 25.128 68.9872 25.13 68.4566 25.1247C67.9652 25.1194 67.847 25.0063 67.8456 24.5162C67.8417 22.1145 67.843 19.7128 67.843 17.3111C67.843 14.3141 67.843 11.3178 67.8476 8.32082C67.8476 7.99142 67.8828 7.66137 67.9047 7.33197C67.9207 7.09517 68.0522 6.96553 68.2886 6.96421C68.9852 6.95958 69.6825 6.9576 70.3798 6.96421C70.6415 6.96686 70.7882 7.11568 70.8015 7.37893C70.8115 7.5767 70.8128 7.77513 70.8128 7.97357C70.8128 10.6617 70.8128 13.3497 70.8128 16.0385C70.8128 16.0385 70.8141 16.0385 70.8148 16.0385H70.8135Z" fill="black"/>
</svg>
