<svg width="151" height="31" viewBox="0 0 151 31" fill="none" xmlns="http://www.w3.org/2000/svg">
<g clip-path="url(#clip0_94_1978)">
<path d="M7.5301 15.459L4.15117 18.819L0.711914 15.459L4.15117 12.039L7.5301 15.459ZM15.7964 7.23898L21.6492 13.059L25.0884 9.63898L15.7964 0.458984L6.56469 9.63898L10.0039 13.059L15.7964 7.23898ZM27.4416 12.039L24.0627 15.459L27.5019 18.879L30.8809 15.459L27.4416 12.039ZM15.7964 23.679L9.94361 17.859L6.50435 21.279L15.7964 30.459L25.0281 21.279L21.6492 17.859L15.7964 23.679ZM15.7964 18.819L19.2356 15.399L15.7964 12.039L12.3571 15.459L15.7964 18.819ZM51.7578 19.179C51.7578 16.899 50.551 15.819 48.6805 15.099C49.8873 14.439 50.8527 13.419 50.8527 11.559V11.499C50.8527 8.91898 48.7409 7.23898 45.4223 7.23898H37.699V23.679H45.543C49.2839 23.679 51.7578 22.179 51.7578 19.179ZM47.1721 12.159C47.1721 13.419 46.1463 13.899 44.5776 13.899H41.1986V10.419H44.8189C46.3274 10.419 47.1721 11.019 47.1721 12.159ZM48.1375 18.699C48.1375 19.899 47.1721 20.499 45.6033 20.499H41.259V16.899H45.4826C47.2928 16.899 48.1375 17.559 48.1375 18.699ZM59.3603 23.679V7.23898H55.6797V23.679H59.3603ZM78.9098 23.679V7.23898H75.2895V17.379L67.5663 7.23898H64.1874V23.679H67.8076V13.239L75.8326 23.679H78.9098ZM99.0627 23.679L91.9428 7.11898H88.5639L81.444 23.679H85.185L86.6934 19.959H93.6926L95.201 23.679H99.0627ZM92.4255 16.779H88.0208L90.2533 11.439L92.4255 16.779ZM116.44 23.679V7.23898H112.82V17.379L105.096 7.23898H101.718V23.679H105.338V13.239L113.363 23.679H116.44ZM135.205 21.039L132.852 18.699C131.524 19.899 130.378 20.619 128.508 20.619C125.672 20.619 123.681 18.279 123.681 15.459V15.399C123.681 12.579 125.672 10.299 128.508 10.299C130.137 10.299 131.464 11.019 132.731 12.159L135.084 9.51898C133.576 8.01898 131.705 6.99898 128.568 6.99898C123.5 6.99898 119.94 10.839 119.94 15.519V15.459C119.94 20.199 123.56 23.919 128.447 23.919C131.585 23.979 133.516 22.839 135.205 21.039ZM150.712 23.679V20.439H141.722V16.959H149.505V13.719H141.722V10.359H150.591V7.11898H138.101V23.559L150.712 23.679Z" fill="black"/>
</g>
<defs>
<clipPath id="clip0_94_1978">
<rect width="150" height="30" fill="white" transform="translate(0.711914 0.458984)"/>
</clipPath>
</defs>
</svg>
