<svg width="78" height="31" viewBox="0 0 78 31" fill="none" xmlns="http://www.w3.org/2000/svg">
<g clip-path="url(#clip0_94_1981)">
<path d="M55.4258 22.8334V3.10645H59.391V22.8334H55.4258Z" fill="black"/>
<path d="M9.21256 28.6928H0.711914V8.96582H8.87073C12.836 8.96582 15.1464 11.1269 15.1464 14.5073C15.1464 16.6954 13.6626 18.1095 12.6355 18.5803C13.8614 19.1341 15.4307 20.3806 15.4307 23.014C15.4307 26.6978 12.836 28.6928 9.21256 28.6928ZM8.55688 12.402H4.67712V16.9459H8.55688C10.2396 16.9459 11.1812 16.0314 11.1812 14.6732C11.1812 13.3165 10.2396 12.402 8.55688 12.402ZM8.81325 20.4093H4.67712V25.258H8.81325C10.6109 25.258 11.4655 24.1504 11.4655 22.8194C11.4655 21.4898 10.6094 20.4093 8.81325 20.4093Z" fill="black"/>
<path d="M27.5254 20.6025V28.6928H23.5881V20.6025L17.4834 8.96582H21.7904L25.5847 16.9172L29.3216 8.96582H33.6286L27.5254 20.6025Z" fill="black"/>
<path d="M44.8698 28.6928H36.3691V8.96582H44.528C48.4932 8.96582 50.8036 11.1269 50.8036 14.5073C50.8036 16.6954 49.3198 18.1095 48.2927 18.5803C49.5187 19.1341 51.088 20.3806 51.088 23.014C51.088 26.6978 48.4932 28.6928 44.8698 28.6928ZM44.2141 12.402H40.3343V16.9459H44.2141C45.8969 16.9459 46.8384 16.0314 46.8384 14.6732C46.8384 13.3165 45.8969 12.402 44.2141 12.402ZM44.4705 20.4093H40.3343V25.258H44.4705C46.2682 25.258 47.1227 24.1504 47.1227 22.8194C47.1227 21.4898 46.2682 20.4093 44.4705 20.4093Z" fill="black"/>
<path d="M72.1698 12.402V28.6943H68.2046V12.402H62.8984V8.96582H77.4759V12.402H72.1698Z" fill="black"/>
</g>
<defs>
<clipPath id="clip0_94_1981">
<rect width="76.7647" height="30" fill="white" transform="translate(0.711914 0.458984)"/>
</clipPath>
</defs>
</svg>
