<svg width="141" height="31" viewBox="0 0 141 31" fill="none" xmlns="http://www.w3.org/2000/svg">
<g clip-path="url(#clip0_94_2002)">
<path d="M16.1958 26.6507C16.063 26.5265 15.9526 26.4288 15.8482 26.3253C12.3676 22.8739 8.8914 19.4181 5.39735 15.9786C5.05421 15.6413 5.10792 15.4668 5.41973 15.159C8.87499 11.7521 12.3213 8.33622 15.7557 4.90854C16.0794 4.58604 16.2555 4.58012 16.5822 4.90558C20.0509 8.36877 23.5345 11.8186 27.0226 15.2611C27.2866 15.523 27.3195 15.6709 27.0345 15.952C23.5255 19.4107 20.0315 22.8828 16.5315 26.3519C16.4315 26.451 16.3181 26.5398 16.1943 26.6493L16.1958 26.6507ZM18.3814 19.5394C18.3814 18.3101 17.4117 17.3322 16.1883 17.3293C14.9709 17.3263 13.9594 18.3056 13.937 19.5054C13.9162 20.6534 14.9948 21.7363 16.163 21.7422C17.3729 21.7481 18.3814 20.7466 18.3814 19.5394ZM18.3889 12.1781C18.377 10.971 17.3625 9.99015 16.1391 10.0049C14.9471 10.0183 13.9251 11.073 13.9505 12.261C13.9758 13.4193 14.9933 14.3853 16.1868 14.3839C17.4251 14.3824 18.4008 13.4045 18.3889 12.1796V12.1781Z" fill="black"/>
<path d="M41.0553 15.8084C41.0553 12.9991 41.0792 10.1913 41.0374 7.38197C41.0284 6.73549 41.2284 6.62897 41.8221 6.63933C43.884 6.67631 45.9473 6.65412 48.0091 6.65412C53.7768 6.65412 58.0064 11.1159 57.0516 17.3913C56.3518 21.9951 52.919 24.8902 48.2418 24.9953C46.0323 25.0456 43.8198 24.9982 41.6088 25.0337C41.1299 25.0411 41.0419 24.8947 41.0449 24.4553C41.0642 21.5735 41.0553 18.6902 41.0553 15.8069V15.8084ZM44.9358 15.7951C44.9358 17.5171 44.9432 19.2405 44.9298 20.9625C44.9268 21.3131 44.9671 21.498 45.3982 21.4803C46.2904 21.4448 47.187 21.5084 48.0777 21.4551C49.5085 21.3693 50.784 20.89 51.7702 19.8057C53.0875 18.3574 53.3307 16.6073 53.1159 14.7729C52.8488 12.4828 51.2555 10.8156 48.9803 10.3333C47.8271 10.0892 46.6544 10.283 45.4952 10.2031C45.0223 10.1706 44.9193 10.3274 44.9268 10.7756C44.9551 12.4488 44.9372 14.1219 44.9372 15.7951H44.9358Z" fill="black"/>
<path d="M100.984 23.8153C101.175 24.6482 100.775 24.7577 100.15 24.7192C99.4322 24.6734 98.7056 24.6674 97.9895 24.7222C97.4091 24.7651 97.2972 24.555 97.3002 24.018C97.3226 19.8299 97.3122 15.6418 97.3122 11.4538C97.3122 9.8531 97.3316 8.25094 97.3002 6.65027C97.2913 6.18723 97.4241 6.06001 97.8806 6.07776C98.7489 6.11327 99.6201 6.11179 100.488 6.07776C100.933 6.06001 101.018 6.22422 101.014 6.6266C100.993 8.34858 101.005 10.072 101.005 11.9286C102.607 10.8088 104.329 10.5173 106.138 10.8546C107.976 11.1978 109.434 12.1713 110.456 13.7394C112.258 16.5058 111.96 20.5001 109.786 22.873C108.005 24.8169 104.406 25.9855 100.984 23.8153ZM101.006 17.8505C101.006 18.1701 100.978 18.4941 101.012 18.8106C101.072 19.3595 100.753 20.0089 101.17 20.4379C101.721 21.0031 102.47 21.3211 103.263 21.4794C103.457 21.5179 103.654 21.5563 103.851 21.5785C105.668 21.7856 107.374 20.5859 107.724 18.858C108.16 16.704 107.241 14.9051 105.377 14.3607C104.102 13.9879 102.884 14.1906 101.74 14.877C101.243 15.1758 100.909 15.4998 100.991 16.1537C101.061 16.7114 101.006 17.2854 101.006 17.8505Z" fill="black"/>
<path d="M87.5996 20.7157C87.5996 21.7054 87.5862 22.5916 87.6071 23.4777C87.6146 23.7825 87.5474 23.9866 87.2431 24.1035C84.222 25.2618 81.1874 25.4453 78.2573 23.9304C75.7554 22.636 74.7841 20.3651 74.8498 17.6727C74.9139 14.9965 75.9478 12.7612 78.4587 11.4993C82.4332 9.50069 88.3859 11.1886 88.4918 17.4819C88.5172 18.9819 88.4963 18.9819 86.9969 18.9819C84.489 18.9819 81.9796 18.9819 79.4717 18.9819C78.6825 18.9819 78.599 19.1121 79.0062 19.8015C79.797 21.1403 81.0845 21.6463 82.554 21.7572C84.2906 21.8874 85.9541 21.5693 87.5996 20.7157ZM81.7096 16.5025C82.5003 16.5025 83.2925 16.4862 84.0832 16.5084C84.5442 16.5218 84.7128 16.4419 84.5189 15.933C84.0414 14.6785 83.1209 14.032 81.7379 14.0586C80.4146 14.0852 79.1838 14.9595 78.8392 16.0839C78.7273 16.4507 78.8749 16.507 79.1868 16.504C80.0282 16.4951 80.8681 16.501 81.7096 16.501V16.5025Z" fill="black"/>
<path d="M72.7055 15.5382C72.622 16.7661 72.8607 18.2751 72.5503 19.7633C71.8879 22.9365 68.8325 25.2591 65.6712 24.9943C62.1458 24.6985 59.4603 21.9646 59.4096 18.568C59.3753 16.2276 59.4156 13.8858 59.3917 11.544C59.3872 11.0794 59.523 10.9552 59.978 10.9774C60.7717 11.0144 61.5714 11.0262 62.3621 10.9744C62.9201 10.9389 63.0006 11.1579 62.9962 11.6446C62.9708 13.8385 62.9738 16.0309 62.9887 18.2248C62.9991 19.8772 63.9898 21.0637 65.5667 21.3625C67.3406 21.6998 69.0802 20.2929 69.0936 18.4763C69.1115 16.1847 69.11 13.8917 69.0876 11.6002C69.0832 11.1386 69.1727 10.9448 69.6904 10.9744C70.4826 11.0203 71.2822 11.0232 72.0744 10.9744C72.6264 10.9404 72.7279 11.1534 72.7145 11.6446C72.6816 12.8517 72.704 14.0589 72.704 15.5368L72.7055 15.5382Z" fill="black"/>
<path d="M130.28 20.633C131.806 21.4836 133.343 21.7869 134.951 21.7632C135.425 21.7558 135.888 21.6833 136.326 21.491C136.696 21.3298 136.96 21.0679 136.951 20.6566C136.942 20.2439 136.664 19.9895 136.289 19.8519C135.4 19.5279 134.451 19.4598 133.538 19.2379C131.33 18.7009 130.177 17.5012 130.092 15.6534C129.974 13.072 131.217 11.4816 133.795 10.9476C135.743 10.5437 137.63 10.7212 139.441 11.5808C139.82 11.7612 139.99 11.9817 139.97 12.4255C139.928 13.285 139.958 14.1489 139.958 15.1164C138.615 14.3131 137.207 13.9596 135.698 14.0143C135.3 14.0291 134.909 14.0631 134.536 14.2214C134.136 14.3901 133.857 14.6652 133.862 15.1031C133.866 15.5247 134.172 15.7348 134.546 15.8783C135.316 16.1757 136.146 16.2052 136.934 16.4198C137.029 16.4449 137.13 16.4449 137.227 16.4671C139.525 16.9819 140.622 18.0544 140.719 19.8815C140.848 22.3416 139.849 23.8935 137.563 24.5932C135.278 25.2944 133.02 25.1421 130.824 24.1657C130.394 23.9749 130.248 23.7204 130.268 23.2633C130.303 22.4289 130.278 21.5916 130.278 20.633H130.28Z" fill="black"/>
<path d="M120.242 14.2225C120.242 12.0774 120.256 9.93384 120.232 7.78876C120.226 7.31388 120.345 7.14524 120.846 7.17039C121.664 7.21329 122.487 7.20737 123.306 7.17187C123.788 7.15116 123.97 7.28282 123.947 7.7858C123.908 8.64679 123.961 9.51222 123.926 10.3732C123.906 10.8407 124.021 11.0197 124.53 10.996C125.473 10.9531 126.419 11.0034 127.363 10.9753C127.799 10.962 127.999 11.0567 127.973 11.5375C127.936 12.2254 127.934 12.9192 127.973 13.6071C128 14.0968 127.782 14.1781 127.357 14.1678C126.413 14.1441 125.467 14.1914 124.524 14.1485C123.993 14.1234 123.923 14.3468 123.929 14.7921C123.949 16.443 123.929 18.0955 123.939 19.7465C123.948 21.0853 124.667 21.7199 126.035 21.5794C126.525 21.5291 127.018 21.4226 127.485 21.2702C127.843 21.1533 127.979 21.1711 127.97 21.5809C127.952 22.4182 127.967 23.257 127.963 24.0943C127.963 24.2837 127.978 24.4538 127.74 24.5825C126.162 25.439 122.925 25.0115 121.616 23.7555C120.73 22.9064 120.296 21.8442 120.275 20.6518C120.236 18.5082 120.264 16.3631 120.264 14.2196C120.259 14.2196 120.251 14.2196 120.245 14.2196L120.242 14.2225Z" fill="black"/>
<path d="M28.6388 0.467701C29.434 0.467701 30.2292 0.479535 31.0229 0.461783C31.369 0.454386 31.5047 0.5609 31.5018 0.920386C31.4868 2.47224 31.4883 4.02261 31.5018 5.57446C31.5047 5.88661 31.3481 6.07449 31.1512 6.26828C29.622 7.78167 28.0883 9.29062 26.5725 10.8173C26.2831 11.1088 26.107 11.1383 25.8027 10.8306C24.2197 9.23145 22.6204 7.64853 21.0092 6.07745C20.6973 5.7727 20.7391 5.58778 21.03 5.30374C22.5697 3.80071 24.0959 2.28584 25.6132 0.759135C25.8474 0.523916 26.0891 0.454386 26.4039 0.460304C27.1484 0.475097 27.8943 0.464742 28.6388 0.464742V0.467701Z" fill="black"/>
<path d="M0.927898 3.27288C0.927898 2.50953 0.941325 1.74618 0.92193 0.982827C0.912978 0.624821 0.987574 0.453215 1.40531 0.459132C2.96883 0.481323 4.53384 0.472447 6.09886 0.46357C6.36591 0.462091 6.56582 0.540497 6.7553 0.731335C8.30092 2.2965 9.84952 3.86019 11.4145 5.40612C11.6831 5.67093 11.6323 5.81295 11.3922 6.04817C9.76746 7.64144 8.14725 9.23915 6.54792 10.8561C6.23164 11.1756 6.05858 11.1105 5.7781 10.828C4.28022 9.31904 2.76742 7.82488 1.24866 6.33516C1.0189 6.11178 0.911487 5.88544 0.920438 5.56293C0.941325 4.79958 0.927898 4.03623 0.927898 3.27288Z" fill="black"/>
<path d="M90.7292 15.4127C90.7292 12.5043 90.7397 9.59585 90.7188 6.68891C90.7158 6.21847 90.8188 6.04686 91.323 6.07497C92.1152 6.11935 92.9149 6.12231 93.7071 6.07497C94.2561 6.04095 94.4187 6.18592 94.4143 6.75548C94.3859 10.4021 94.3994 14.0502 94.3994 17.6983C94.3994 19.8183 94.3844 21.9382 94.4113 24.0566C94.4173 24.567 94.2845 24.749 93.7504 24.7194C92.9328 24.675 92.1093 24.678 91.2917 24.7194C90.8128 24.7445 90.7188 24.5788 90.7218 24.138C90.7412 21.2296 90.7322 18.3211 90.7322 15.4142L90.7292 15.4127Z" fill="black"/>
<path d="M10.0002 28.2838C9.84501 28.1418 9.70626 28.0087 9.56005 27.8829C9.04087 27.4362 8.63805 26.5471 8.04427 26.59C7.53553 26.627 7.07901 27.4273 6.60309 27.8948C5.82729 28.6581 5.03807 29.4111 4.29063 30.2011C3.96837 30.5414 3.77293 30.5251 3.46262 30.1952C2.81811 29.5117 2.14974 28.849 1.46047 28.2099C1.1427 27.9155 1.16806 27.7365 1.46793 27.448C2.62566 26.3311 3.74608 25.1772 4.90828 24.0647C5.23799 23.7496 5.26335 23.5588 4.90828 23.257C4.49353 22.9064 4.14144 22.4833 3.73862 22.1193C3.46262 21.8708 3.41189 21.6918 3.71624 21.4137C4.28168 20.8974 4.82622 20.353 5.34988 19.7938C5.60649 19.5201 5.76463 19.5674 6.00483 19.8086C7.9831 21.785 9.97182 23.7496 11.9576 25.7186C12.1351 25.8947 12.341 26.0382 12.0515 26.3104C11.4399 26.8888 10.8535 27.4909 10.2538 28.0827C10.1852 28.1492 10.1031 28.2025 9.99718 28.2853L10.0002 28.2838Z" fill="black"/>
<path d="M29.0764 21.8797C28.8347 22.0543 28.5885 22.1889 28.4005 22.3798C27.9888 22.7999 27.2667 23.1505 27.2518 23.6609C27.2354 24.1831 27.9724 24.5293 28.3826 24.9479C29.2121 25.7956 30.0566 26.63 30.9189 27.4436C31.2173 27.7247 31.268 27.9007 30.9428 28.2025C30.2371 28.8579 29.5508 29.5369 28.8899 30.2381C28.5855 30.5606 28.399 30.5059 28.1171 30.2189C27.0071 29.0916 25.8553 28.0058 24.7633 26.8622C24.3619 26.4421 24.1352 26.4909 23.7682 26.8815C23.3176 27.3608 22.8924 27.8786 22.324 28.2395C21.6347 27.5679 20.9395 26.9007 20.2577 26.2217C20.0384 26.0027 20.2741 25.8681 20.4024 25.7409C22.4001 23.7541 24.4052 21.7747 26.3984 19.7835C26.6177 19.5645 26.7639 19.5231 26.9981 19.7642C27.583 20.3678 28.1917 20.9477 28.7884 21.538C28.8526 21.6016 28.9063 21.6771 29.0764 21.8797Z" fill="black"/>
<path d="M117.564 17.9254C117.564 19.9936 117.552 22.0617 117.573 24.1299C117.577 24.5722 117.471 24.7394 116.997 24.7186C116.154 24.6802 115.308 24.6876 114.465 24.7157C114.035 24.7305 113.856 24.6432 113.859 24.158C113.879 19.9477 113.876 15.7374 113.862 11.5272C113.862 11.1189 113.964 10.962 114.399 10.9768C115.268 11.0079 116.139 11.0138 117.006 10.9754C117.494 10.9532 117.576 11.144 117.573 11.573C117.553 13.69 117.564 15.807 117.564 17.9254Z" fill="black"/>
<path d="M115.715 9.21874C114.398 9.2291 113.424 8.2542 113.424 6.92721C113.424 5.68454 114.432 4.64899 115.666 4.62828C116.937 4.60609 118.004 5.64608 118.013 6.91537C118.022 8.22165 117.037 9.20839 115.717 9.21874H115.715Z" fill="black"/>
</g>
<defs>
<clipPath id="clip0_94_2002">
<rect width="139.811" height="30" fill="white" transform="translate(0.920898 0.458984)"/>
</clipPath>
</defs>
</svg>
