<svg width="120" height="31" viewBox="0 0 120 31" fill="none" xmlns="http://www.w3.org/2000/svg">
<g clip-path="url(#clip0_94_1994)">
<path d="M84.9097 19.0802C84.9097 20.5486 84.8726 22.017 84.9203 23.4827C84.9548 24.5426 84.3794 25.1619 83.4726 25.1539C82.5924 25.1459 82.1575 24.4545 82.1708 23.488C82.2053 20.6421 82.1575 17.7961 82.1973 14.9528C82.2079 14.1599 82.0939 13.674 81.158 13.7568C80.2644 13.8369 79.4929 13.5192 79.4584 12.5207C79.4186 11.4101 80.2406 11.1404 81.1845 11.1885C81.9004 11.2258 82.1602 10.9535 82.2238 10.198C82.5022 6.80473 84.1593 5.40311 87.5213 5.57398C88.3459 5.61669 88.9027 5.87833 88.916 6.78871C88.9292 7.71245 88.3645 7.98476 87.5452 8.03015C85.8509 8.12359 85.1138 8.77768 84.9362 10.2247C84.8567 10.8788 85.0104 11.2125 85.7608 11.1965C87.4391 11.1564 89.1175 11.1618 90.7958 11.1965C91.4109 11.2098 91.6601 11.0016 91.6999 10.3795C91.7715 9.30629 92.0526 8.2811 92.6226 7.3547C93.5161 5.90503 96.3982 4.96794 97.8406 5.70212C98.3284 5.95041 98.7129 6.39092 98.5723 6.99161C98.3973 7.73914 97.8538 8.00879 97.0929 8.03816C95.4463 8.10223 94.7808 8.73763 94.6138 10.1713C94.5263 10.9161 94.7358 11.2605 95.5232 11.1938C96.0482 11.1511 96.5838 11.1618 97.1114 11.1965C97.9068 11.2499 98.5246 11.637 98.4875 12.494C98.453 13.3109 97.8618 13.7034 97.0557 13.7674C96.2762 13.8288 95.2501 13.4097 94.7782 13.973C94.24 14.6164 94.6112 15.6763 94.6005 16.552C94.5714 18.7759 94.6005 20.9971 94.5846 23.221C94.5767 24.3797 93.8794 25.3168 93.076 25.1753C92.0579 24.9964 91.6575 24.2649 91.6655 23.2397C91.684 20.4845 91.6389 17.7267 91.6893 14.9715C91.7052 14.0932 91.5382 13.69 90.5492 13.7434C89.0088 13.8262 87.4577 13.8128 85.9146 13.7488C85.0688 13.714 84.8673 14.0211 84.9017 14.8193C84.9627 16.2396 84.9176 17.6653 84.9176 19.0856L84.9097 19.0802Z" fill="black"/>
<path d="M39.7481 25.24C37.2372 24.9917 34.8191 24.3537 33.4351 21.7667C32.9631 20.8856 32.6476 19.9566 33.7718 19.3692C34.7528 18.8593 35.3282 19.3692 35.8452 20.3036C37.2186 22.7758 41.323 23.4673 43.5343 21.6973C44.4145 20.9924 44.4755 20.0473 44.3482 19.0435C44.2024 17.8848 43.2824 17.407 42.373 17.1453C40.7715 16.6808 39.1038 16.4432 37.4838 16.0347C35.9195 15.6396 34.4267 15.0656 33.7374 13.4023C32.9048 11.392 33.6154 8.88244 35.3627 7.56359C37.8762 5.66539 42.4207 5.74815 44.9103 7.69707C45.5705 8.21501 45.9656 8.89312 46.2864 9.61396C46.6629 10.4523 46.4535 11.2505 45.6024 11.643C44.8096 12.0087 44.1971 11.643 43.7411 10.8874C42.4339 8.7276 39.6394 8.06283 37.4493 9.35232C36.6009 9.85156 36.2933 10.6391 36.3013 11.5842C36.3066 12.4946 36.7971 13.0232 37.5925 13.4077C39.0614 14.1178 40.6893 14.0324 42.2165 14.4329C44.4464 15.0202 46.5224 15.7864 47.1349 18.4321C47.7341 21.0138 46.4959 23.5447 44.0089 24.4418C42.6858 24.9196 41.2912 25.1866 39.7481 25.2373V25.24Z" fill="black"/>
<path d="M113.621 18.6697C111.946 18.6697 110.27 18.691 108.594 18.6617C107.791 18.6483 107.603 18.8405 107.91 19.6628C109.019 22.6262 113.017 23.6541 115.379 21.5343C115.544 21.3875 115.684 21.2166 115.835 21.0538C116.49 20.3436 117.209 19.8604 118.102 20.64C118.739 21.1953 118.55 22.386 117.689 23.0935C115.236 25.1091 112.548 25.8647 109.475 24.6206C106.828 23.55 105.296 21.5984 104.882 18.7925C104.14 13.7386 108.173 9.60053 113.218 10.2306C117.002 10.7031 119.226 13.0125 119.842 16.7314C120.096 18.2719 119.775 18.6643 118.251 18.6697C116.708 18.675 115.164 18.6697 113.619 18.6697H113.621ZM112.139 16.4458C113.417 16.4458 114.698 16.4111 115.976 16.4591C116.8 16.4912 116.853 16.1014 116.655 15.4767C116.145 13.8695 114.244 12.6841 112.229 12.7188C110.167 12.7535 108.47 13.9389 107.91 15.6262C107.661 16.379 107.958 16.4618 108.565 16.4511C109.756 16.4324 110.946 16.4458 112.137 16.4458H112.139Z" fill="black"/>
<path d="M49.0622 15.6311C49.0622 13.1001 49.0781 10.5665 49.0542 8.03562C49.0462 7.08519 49.2663 6.2629 50.3401 6.23888C51.4219 6.21485 51.862 6.91966 51.7984 8.00358C51.7454 8.88994 51.7851 9.77897 51.7851 10.668C51.7851 12.2538 51.7904 12.2618 53.148 11.5757C54.882 10.7 56.6637 10.5185 58.5356 11.0685C60.8105 11.7359 62.0858 13.263 62.396 15.591C62.7487 18.2421 62.5472 20.9145 62.5578 23.5762C62.5604 24.4893 62.062 25.2075 61.134 25.1354C60.3253 25.0713 59.7075 24.5374 59.7261 23.5229C59.7579 21.5259 59.742 19.5262 59.7314 17.5266C59.7181 14.6433 58.6443 13.4072 56.1122 13.3538C53.5457 13.2977 51.8885 14.8622 51.8143 17.5052C51.7586 19.4568 51.7507 21.4164 51.8196 23.368C51.8594 24.484 51.3291 25.1621 50.3613 25.1567C49.3962 25.1514 49.033 24.3585 49.0462 23.36C49.086 20.7837 49.0595 18.2074 49.0595 15.6311H49.0622Z" fill="black"/>
<path d="M77.8194 15.4149C77.8194 16.659 77.8936 17.9085 77.8061 19.1472C77.4827 23.7259 74.415 25.4585 70.3637 25.0687C66.3097 24.679 64.5253 22.431 64.4882 18.2929C64.4696 16.2025 64.5067 14.1148 64.4722 12.0243C64.4563 10.9911 64.7719 10.1982 65.8801 10.1956C67.0123 10.1929 67.2509 11.0285 67.2642 12.0324C67.2986 14.4752 67.0733 16.9233 67.3967 19.3582C67.6751 21.4673 68.9452 22.5565 71.0689 22.5966C73.312 22.6393 74.5316 21.6515 74.9055 19.4489C75.2714 17.2864 74.9956 15.1026 75.0752 12.9294C75.0911 12.4862 75.0831 12.0404 75.0858 11.5972C75.0884 10.6441 75.6877 10.2089 76.5122 10.1956C77.3209 10.1822 77.8194 10.7028 77.8379 11.5465C77.8645 12.8359 77.8432 14.1254 77.8432 15.4149C77.8353 15.4149 77.8273 15.4149 77.8167 15.4149H77.8194Z" fill="black"/>
<path d="M102.992 15.7384C102.992 18.312 102.968 20.883 103.005 23.4566C103.018 24.4792 102.573 25.1973 101.616 25.1519C100.717 25.1092 100.25 24.4364 100.261 23.3899C100.303 18.2453 100.295 13.098 100.266 7.9534C100.261 6.94156 100.627 6.24476 101.621 6.20471C102.66 6.16466 103.013 6.88817 103.002 7.88665C102.973 10.503 102.992 13.122 102.995 15.7384H102.992Z" fill="black"/>
<path d="M25.5737 14.2425C25.4835 12.9477 24.5926 12.6193 23.5559 12.3283C20.019 11.3352 16.4953 10.2993 12.839 9.24207C14.0851 7.74968 15.6468 6.91138 16.6464 5.49908C17.577 4.65544 18.5315 3.83583 19.433 2.96282C20.0508 2.36479 19.9474 1.70003 19.4038 1.08598C18.8895 0.503977 18.3168 0.226323 17.5558 0.680181C16.5854 1.25952 15.5964 1.80415 14.6128 2.36479C14.3291 2.47158 14.0242 2.54367 13.7617 2.69317C10.8239 4.3591 7.89679 6.03837 4.95904 7.70697C3.60948 8.47319 2.8936 9.88815 3.21177 11.2204C3.5591 12.6914 4.78139 13.7086 6.29799 13.8501C8.27063 14.0343 10.2486 14.1918 12.208 14.4855C13.0538 14.6136 14.0109 14.5068 15.0237 15.2624C13.653 15.6201 12.6083 16.1941 11.5186 16.4744C8.54108 17.2407 5.68022 18.3593 2.75042 19.2617C1.97622 19.4993 1.41677 20.0733 1.13307 20.8929C0.297882 23.2876 2.05576 25.1351 4.75488 24.796C8.28389 24.3502 11.8315 24.5825 15.5249 24.5211C15.1802 25.1351 14.8275 25.4288 14.4457 25.7305C13.2367 26.6836 12.0621 27.6847 10.8664 28.6565C10.3918 29.041 10.169 29.5215 10.5296 30.0448C10.8849 30.5627 11.4152 30.5414 11.9455 30.2423C12.8178 29.7458 13.698 29.2599 14.573 28.766C17.1899 27.2949 19.8042 25.8239 22.4211 24.3555C23.32 23.851 24.0146 23.1675 23.8874 22.0569C23.768 21.0077 22.6571 20.2441 21.4454 20.2414C20.9602 20.2414 20.4724 20.2895 19.9898 20.2468C18.8179 20.14 17.6062 20.2601 16.0816 19.7475C18.9239 18.5301 21.3791 17.4729 23.837 16.4264C24.8127 16.0099 25.6638 15.54 25.5737 14.2398V14.2425Z" fill="black"/>
</g>
<defs>
<clipPath id="clip0_94_1994">
<rect width="119" height="30" fill="white" transform="translate(0.920898 0.458984)"/>
</clipPath>
</defs>
</svg>
