<svg width="62" height="31" viewBox="0 0 62 31" fill="none" xmlns="http://www.w3.org/2000/svg">
<g clip-path="url(#clip0_94_2017)">
<path d="M39.7257 21.9008C39.7592 21.8659 39.7922 21.8315 39.8258 21.7967C39.9127 21.7454 39.9501 21.6571 39.9974 21.5753L39.9936 21.5792C40.0123 21.5584 40.031 21.5377 40.0497 21.517L40.0469 21.5203C40.1102 21.4827 40.1349 21.4189 40.1624 21.3568L40.1597 21.3595C40.2257 21.3241 40.2592 21.2652 40.2779 21.196L40.2741 21.1998C40.3731 21.1055 40.4457 20.9937 40.4963 20.8678L40.4924 20.8716C40.5579 20.828 40.5788 20.7615 40.5937 20.6885C40.762 19.8501 40.9154 19.0084 41.1035 18.1744C41.9291 14.5162 42.879 10.8874 43.7575 7.24119C43.928 6.53364 44.1463 5.83264 44.1727 5.09729C44.1777 4.96264 44.2712 4.92449 44.3614 4.90159C45.2915 4.66938 46.2128 4.57834 47.0808 5.11909C47.0967 5.1349 47.1132 5.15071 47.1292 5.16652C47.1682 5.20467 47.2067 5.24338 47.2458 5.28153C47.2782 5.31696 47.3101 5.3524 47.3426 5.38783C47.5901 5.79829 47.6715 6.2431 47.6209 6.71517C47.545 7.42435 47.4025 8.12154 47.2205 8.8111C46.7947 10.4268 46.215 11.9951 45.7442 13.5972C45.6155 14.0354 45.4868 14.4742 45.4175 14.9714C45.599 14.8656 45.7453 14.7806 45.8916 14.6955C45.9103 14.6988 45.9207 14.6912 45.9224 14.6721C46.0412 14.5991 46.1738 14.5456 46.2662 14.4344L46.2629 14.4377C46.3272 14.4126 46.3943 14.3919 46.4301 14.3249L46.4273 14.3276C46.5104 14.284 46.6 14.2486 46.6501 14.1619L46.6473 14.1646C46.7078 14.1237 46.7689 14.0823 46.8294 14.0414C46.847 14.0425 46.8558 14.0343 46.8558 14.0169C46.9389 13.952 47.0219 13.8877 47.105 13.8228C47.1215 13.8239 47.1297 13.8163 47.1297 13.7999C47.2309 13.7165 47.3327 13.6331 47.4339 13.5497C47.4509 13.5508 47.4592 13.5432 47.4592 13.5263C47.4828 13.5018 47.5065 13.4772 47.5301 13.4527L47.5263 13.4565C47.5472 13.4374 47.5681 13.4184 47.589 13.3998L47.5851 13.4036C47.682 13.3246 47.7788 13.245 47.8761 13.166C47.897 13.1638 47.9069 13.1523 47.9064 13.1316L47.9157 13.1224C47.9289 13.1115 47.9427 13.1006 47.9559 13.0897C48.0164 13.0297 48.0769 12.9697 48.1374 12.9098L48.1335 12.9136C48.1533 12.894 48.1737 12.8738 48.1935 12.8542L48.188 12.8596C48.2089 12.8405 48.2298 12.8215 48.2512 12.8024L48.2468 12.8067C48.3799 12.6852 48.5136 12.5636 48.6467 12.4421L48.6506 12.4388C48.7232 12.3685 48.7958 12.2987 48.8689 12.2284L48.8772 12.2197C48.947 12.1504 49.0174 12.0818 49.0878 12.0125L49.101 11.9978C49.1142 11.9836 49.128 11.97 49.1412 11.9564L49.1516 11.9466C49.3277 11.7596 49.5037 11.5726 49.6797 11.3862L49.6753 11.3906C49.6956 11.3693 49.7154 11.348 49.7358 11.3273C49.8056 11.2565 49.8755 11.1856 49.9453 11.1142C49.9712 11.0891 49.9965 11.0646 50.0224 11.0401C50.0361 11.0401 50.0427 11.0324 50.0427 11.0188L50.3397 10.6776L50.3353 10.6819C50.3551 10.6607 50.3744 10.6394 50.3942 10.6181C50.4096 10.6018 50.425 10.586 50.4404 10.5696C50.6015 10.4481 50.7165 10.2867 50.8342 10.1275C50.8496 10.1117 50.865 10.0954 50.8804 10.0796C50.9002 10.0589 50.92 10.0387 50.9398 10.018L50.9365 10.0218C51.0339 9.90895 51.1318 9.79611 51.2291 9.68328C51.2489 9.68328 51.2588 9.67292 51.2577 9.6533C51.3474 9.52574 51.4651 9.50557 51.6125 9.54209C52.0987 9.66147 52.5635 9.8261 52.9628 10.1379C52.9777 10.1532 52.992 10.1684 53.0068 10.1837C53.0475 10.2382 53.0882 10.2927 53.1295 10.3472L53.1273 10.3445C53.3083 10.6694 53.2544 10.9932 53.1201 11.3159L53.124 11.3121C53.0679 11.4042 53.0118 11.4963 52.9557 11.5884L52.9595 11.5846C52.8814 11.6811 52.8033 11.7776 52.7252 11.8741C52.7076 11.8741 52.6988 11.8822 52.6994 11.8997C52.6383 11.9771 52.5773 12.0545 52.5162 12.1319L52.5206 12.1275C52.5003 12.1483 52.4799 12.1695 52.4596 12.1902C52.4079 12.2431 52.3567 12.296 52.305 12.3489C52.2802 12.3723 52.2555 12.3952 52.2307 12.4186C52.2192 12.4333 52.2071 12.4481 52.1955 12.4628L52.1928 12.4655C52.1746 12.483 52.157 12.5004 52.1389 12.5184L52.1356 12.5211C52.1191 12.5375 52.1026 12.5533 52.0866 12.5696L52.0839 12.5729C52.0663 12.5903 52.0481 12.6083 52.0305 12.6258L52.0278 12.6285C52.0129 12.6399 51.9981 12.6519 51.9832 12.6634C51.9414 12.7059 51.8996 12.7484 51.8584 12.7909C51.8056 12.8433 51.7528 12.8951 51.7 12.9474C51.6428 13.003 51.5855 13.0586 51.5283 13.1142L51.5322 13.1104C51.5113 13.1294 51.4909 13.1485 51.47 13.1676L51.4739 13.1638C51.3358 13.2652 51.1972 13.3655 51.0883 13.4996C51.035 13.5503 50.9816 13.601 50.9277 13.6517C50.8485 13.7133 50.7698 13.7749 50.6906 13.837C50.6741 13.8359 50.6653 13.8435 50.6653 13.8599C50.6411 13.885 50.6169 13.91 50.5922 13.9351C50.5564 13.9662 50.5212 13.9973 50.4855 14.0289C50.3804 14.0921 50.2787 14.1597 50.2072 14.2622C50.1907 14.2769 50.1747 14.2916 50.1582 14.3069C50.0532 14.3696 49.9486 14.4317 49.8771 14.5347C49.8606 14.5495 49.8441 14.5642 49.8282 14.5789C49.7028 14.6552 49.5829 14.7386 49.4916 14.8563L49.4943 14.8536C49.4102 14.8961 49.3266 14.9392 49.2754 15.0237L49.2793 15.0204C49.2589 15.0401 49.2386 15.0591 49.2182 15.0788L49.222 15.0744C49.1324 15.1185 49.0471 15.1676 48.9866 15.2499C48.9674 15.2488 48.9569 15.2575 48.9558 15.2772C48.8997 15.3208 48.8436 15.3649 48.787 15.4085C48.7677 15.4244 48.749 15.4407 48.7298 15.4565C48.7089 15.475 48.6874 15.4941 48.6665 15.5127L48.6704 15.5088C48.5895 15.5557 48.5037 15.5966 48.4498 15.6778L48.4536 15.674C48.4322 15.6925 48.4113 15.7111 48.3898 15.7291L48.3948 15.7242C48.2292 15.8136 48.0906 15.9368 47.9526 16.061C47.9361 16.0752 47.919 16.0899 47.9025 16.1041C47.8602 16.1308 47.8184 16.157 47.776 16.1837C47.7628 16.1826 47.7551 16.1886 47.754 16.2022C47.7287 16.2268 47.7034 16.2513 47.6781 16.2758L47.6809 16.2731C47.551 16.3892 47.2958 16.4077 47.3277 16.6514C47.507 18.0207 47.8151 19.3628 48.2512 20.6726C48.5642 21.6108 48.9157 22.5358 49.4404 23.3851C49.441 23.4249 49.4404 23.4652 49.4894 23.481C49.6065 23.7383 49.7528 23.9776 49.9349 24.1946L49.931 24.1908C49.947 24.2611 49.9795 24.3211 50.0449 24.3581L50.0405 24.3538C50.1098 24.4993 50.2066 24.6247 50.3221 24.737L50.3188 24.7332C50.337 24.7544 50.3557 24.7757 50.3738 24.7969L50.3683 24.792C50.4041 24.8831 50.4607 24.9577 50.5438 25.0123C50.5762 25.0471 50.6081 25.0826 50.6406 25.1175C50.6895 25.1785 50.7379 25.2396 50.7869 25.3006L50.7962 25.3099C50.8265 25.342 50.8562 25.3737 50.8865 25.4058C50.8859 25.4216 50.8931 25.4293 50.909 25.4293C50.9382 25.4581 50.9668 25.487 50.9959 25.5154C50.997 25.5356 51.008 25.5448 51.0284 25.5432C51.0311 25.5541 51.0383 25.5612 51.0493 25.5639C51.0471 25.5808 51.0548 25.5901 51.0724 25.5901C51.1538 25.6882 51.2451 25.7749 51.3606 25.8332L51.3584 25.831C51.4541 25.9411 51.5559 26.0441 51.6945 26.1025L51.6917 26.0997C52.4634 26.7266 53.355 27.0651 54.339 27.1845C55.1723 27.2859 56.0001 27.2074 56.8197 27.0689C57.8004 26.9032 58.7316 26.5903 59.5688 26.0392H59.5671C59.5891 26.0234 59.6106 26.0071 59.6326 25.9902L59.6276 25.9951C59.6997 25.9809 59.758 25.9455 59.7976 25.8833L59.7948 25.8861C59.9241 25.8397 60.0214 25.7471 60.1221 25.6593L60.1188 25.6615C60.1397 25.6429 60.16 25.6239 60.1804 25.6053L60.1765 25.6097C60.3075 25.5421 60.4213 25.4532 60.5115 25.3366L60.5088 25.3393C60.6215 25.2499 60.7321 25.1578 60.8476 25.0722C61.0698 24.9076 61.1518 24.9327 61.2178 25.2003C61.3806 25.8599 61.2513 26.4775 60.9262 27.064L60.9301 27.0602C60.8498 27.118 60.8091 27.2041 60.7651 27.2881C60.7497 27.3044 60.7337 27.3202 60.7183 27.3366C60.6919 27.3628 60.6661 27.3889 60.6397 27.4151L60.6248 27.4309C60.5759 27.4789 60.5269 27.5263 60.4785 27.5743C60.4648 27.5743 60.4576 27.5803 60.4571 27.5939C60.341 27.6915 60.2249 27.789 60.1089 27.8866L60.1116 27.8839C60.0154 27.9427 59.9191 28.0016 59.8229 28.061C59.8031 28.0572 59.7921 28.0654 59.7904 28.0856C59.4621 28.2578 59.1293 28.4208 58.7784 28.5456C57.8037 28.8923 56.7949 29.0379 55.7653 29.1076C54.7098 29.1791 53.6729 29.1131 52.6405 28.8885C52.1702 28.7866 51.7302 28.5958 51.266 28.4819L51.2698 28.4857C51.035 28.3151 50.7583 28.2251 50.502 28.0965L50.5053 28.0992C50.3205 27.9891 50.1357 27.879 49.9508 27.7689L49.9547 27.7732C49.9156 27.7122 49.8584 27.6767 49.788 27.6604L49.7908 27.6631C49.7363 27.5808 49.6489 27.5432 49.5658 27.4996L49.5686 27.5023C49.5136 27.42 49.4294 27.3753 49.3442 27.3317C49.3271 27.3175 49.3106 27.3033 49.2936 27.2886C49.2672 27.263 49.2413 27.2368 49.2149 27.2112L49.1967 27.1954C49.117 27.1333 49.0372 27.0706 48.9569 27.0084C48.9223 26.9746 48.8876 26.9414 48.8535 26.9076C48.8106 26.8645 48.7677 26.8215 48.7248 26.7779C48.7226 26.7571 48.7111 26.7479 48.6907 26.7495L48.6742 26.7332C48.6621 26.7212 48.65 26.7097 48.6385 26.6977C48.6357 26.6879 48.6291 26.6814 48.6187 26.6781C48.6071 26.6667 48.595 26.6547 48.5835 26.6432C48.5802 26.6334 48.5741 26.6269 48.5642 26.6236C48.5521 26.6116 48.5406 26.6001 48.5285 26.5882L48.5103 26.5702C48.512 26.5505 48.5032 26.5402 48.4834 26.5386L48.243 26.3009C48.2111 26.266 48.1792 26.2311 48.1473 26.1962C48.1176 26.1543 48.0879 26.1117 48.0582 26.0698L48.0411 26.0534C48.0389 26.0381 48.0296 26.0283 48.0147 26.0245C48.0175 26.006 48.0092 25.9956 47.99 25.994C47.9487 25.9504 47.9069 25.9068 47.8657 25.8626L47.8695 25.8664C47.8437 25.8261 47.8178 25.7858 47.792 25.746C47.7936 25.7296 47.7865 25.7214 47.77 25.7209C47.6913 25.6233 47.6132 25.5257 47.5345 25.4282L47.5373 25.4309C47.5186 25.3622 47.4878 25.3028 47.4218 25.2668L47.4245 25.2695C47.1677 24.8362 46.9075 24.405 46.6545 23.9695C46.4482 23.6135 46.3272 23.215 46.1012 22.8689L46.105 22.8727C46.0797 22.6361 45.9565 22.4323 45.8767 22.2142C45.3146 20.6748 44.9736 19.0842 44.7552 17.4124C44.6227 17.7749 44.5627 18.1003 44.4995 18.4241C44.3152 19.3671 44.2393 20.3232 44.1865 21.2799C44.1293 22.3205 44.1045 23.3622 44.066 24.4039C44.0572 24.417 44.0534 24.4312 44.0556 24.447C44.0347 24.4671 44.0143 24.4868 43.9934 24.5069L43.9978 24.5026C43.8796 24.5151 43.8125 24.6138 43.7173 24.6661L43.7211 24.6623C43.6227 24.6879 43.5237 24.7135 43.4434 24.7817C43.4274 24.78 43.4126 24.7833 43.3994 24.7926C43.3818 24.7953 43.3636 24.7964 43.3471 24.8018C42.4896 25.0858 41.6316 25.2973 40.7658 24.8307L40.7697 24.8345C40.7488 24.816 40.7284 24.7969 40.7075 24.7784L40.7114 24.7811C40.6696 24.7386 40.6278 24.6955 40.586 24.653C40.586 24.6383 40.5793 24.6307 40.5645 24.6307C40.2444 24.2524 40.2141 23.789 40.2026 23.2963C40.0013 23.5568 39.8253 23.7852 39.6487 24.0131L39.6531 24.0087C39.6327 24.03 39.6129 24.0507 39.5926 24.0719C39.4672 24.1962 39.3412 24.3211 39.2158 24.4453C39.1944 24.4644 39.1729 24.484 39.1515 24.5031L39.1553 24.4988C38.9276 24.641 38.723 24.8198 38.4722 24.9272C37.888 25.1758 37.3446 25.0123 36.8083 24.7708L36.8122 24.7746C36.7715 24.7124 36.7049 24.6901 36.64 24.6656L36.6433 24.6688C36.6174 24.6443 36.5916 24.6192 36.5657 24.5947L36.5498 24.58C36.4893 24.5353 36.4288 24.4906 36.3683 24.4459L36.3721 24.4497C36.3523 24.4295 36.3331 24.4094 36.3133 24.3892L36.3182 24.3941C36.2247 24.2845 36.1312 24.175 36.0377 24.0649L36.0416 24.0687C36.0174 24.0283 35.9937 23.9885 35.9695 23.9482C35.9723 23.928 35.9635 23.9166 35.9431 23.9144C35.8964 23.8348 35.8496 23.7547 35.8023 23.6751C35.8072 23.656 35.7995 23.6446 35.7803 23.6408C35.7154 23.5072 35.6505 23.3731 35.5801 23.2276C35.4255 23.3726 35.2842 23.5039 35.1434 23.6359L35.1472 23.6331C35.1263 23.6522 35.1054 23.6718 35.0845 23.6909C35.0685 23.7062 35.052 23.7214 35.0361 23.7367C35.0146 23.7558 34.9926 23.7749 34.9712 23.7939L34.9761 23.789C34.8854 23.8234 34.8106 23.879 34.7539 23.958L34.7567 23.9553C34.535 24.1008 34.3134 24.2464 34.0922 24.3919L34.095 24.3892C34.0229 24.4241 33.9498 24.4579 33.8783 24.4944C33.2842 24.7942 32.6643 25.0084 31.9939 25.0559C31.1022 25.1191 30.3025 24.8863 29.5996 24.3358C29.5115 24.2475 29.423 24.1592 29.335 24.0709C29.2877 23.9885 29.247 23.9019 29.1628 23.8479L29.1656 23.8506C29.0693 23.6631 29.0165 23.3769 28.8664 23.3126C28.6832 23.2336 28.5187 23.5088 28.3317 23.6064C28.3251 23.6097 28.3224 23.6211 28.318 23.6293L28.3218 23.6255C28.302 23.6326 28.2828 23.6402 28.263 23.6473L28.2399 23.6484L28.23 23.6686C28.0765 23.765 27.923 23.8615 27.7701 23.958L27.774 23.9542C27.1629 24.2605 26.5524 24.5691 25.8912 24.7582C24.6333 25.1191 23.3737 25.3164 22.1152 24.7582C22.1103 24.7375 22.0971 24.7299 22.0762 24.7353C21.981 24.6765 21.8859 24.617 21.7902 24.5582L21.7929 24.5609C21.695 24.4639 21.5971 24.3668 21.4992 24.2698C21.4981 24.2507 21.4882 24.2415 21.4684 24.2431L21.4596 24.2344C21.4475 24.2191 21.4354 24.2033 21.4227 24.188C21.3435 24.0752 21.2643 23.9624 21.1851 23.8495L21.1884 23.8523C20.86 23.0613 20.909 22.2404 21.03 21.426C21.2693 19.813 21.6086 18.2186 21.9959 16.6345C22.1026 16.1968 22.1988 15.7563 22.3044 15.2979C21.3628 15.6729 20.447 16.0049 19.5031 16.2595C18.9338 16.4132 18.375 16.4977 17.8838 16.0534C17.8139 15.9825 17.7435 15.9117 17.6737 15.8408C17.6308 15.7558 17.5851 15.6729 17.5026 15.6179L17.5054 15.6206C17.2535 15.1829 17.0208 14.7381 16.8767 14.2507C16.7722 13.8959 16.7628 13.8953 17.1 13.7781C19.0284 13.1087 20.9557 12.4366 22.8886 11.7803C23.0585 11.7225 23.1146 11.6288 23.1504 11.4898C23.3754 10.6116 23.5816 9.72798 23.8253 8.85526C24.0557 8.02997 24.1454 7.15507 24.652 6.42081L24.6492 6.42353C24.7163 6.3881 24.746 6.32487 24.7713 6.25891C24.7851 6.24201 24.7988 6.22511 24.8126 6.20767C24.9584 6.06049 25.1019 5.91059 25.251 5.76668C25.7669 5.26791 26.4462 5.12291 27.1062 4.9512C27.5204 4.84327 27.9417 4.695 28.3834 4.83672H28.3823C28.4923 4.95719 28.4395 5.08965 28.4093 5.22048C27.9846 7.05749 27.5617 8.89505 27.1332 10.731C27.0996 10.8749 27.1332 10.9141 27.2724 10.8803C28.2421 10.6438 29.2206 10.4508 30.2095 10.3151C30.704 10.2469 31.2046 10.1521 31.6831 10.3968L31.6814 10.3957C31.7172 10.4192 31.7524 10.4432 31.7881 10.4666C31.8035 10.4802 31.8195 10.4944 31.8349 10.508C32.0296 10.798 32.0005 11.0771 31.8019 11.3546C31.6979 11.5001 31.6066 11.6544 31.5098 11.8048L31.5126 11.8021C31.4218 11.8566 31.3921 11.9569 31.3327 12.0349C31.3129 12.0349 31.3041 12.0447 31.3052 12.0643C31.281 12.1046 31.2568 12.145 31.2326 12.1853L31.2354 12.1826C31.2117 12.2077 31.1881 12.2333 31.1644 12.2584C31.1501 12.2589 31.143 12.2665 31.1441 12.2807C31.0962 12.3456 31.0483 12.4105 30.9999 12.4753C30.9845 12.4753 30.9768 12.4835 30.9779 12.4988C30.9515 12.5407 30.9257 12.5827 30.8993 12.6241C30.885 12.6405 30.8701 12.6574 30.8558 12.6737C30.7244 12.8373 30.5929 13.0013 30.4615 13.1649L30.4659 13.1605C30.4461 13.1807 30.4257 13.2003 30.4059 13.2199L30.4103 13.2156C30.2035 13.3431 29.9884 13.4516 29.7464 13.4985C28.6524 13.7122 27.5705 13.9771 26.4891 14.2464C26.2982 14.2938 26.2256 14.3756 26.1805 14.5522C25.8456 15.8653 25.4886 17.1725 25.163 18.4879C24.9259 19.4478 24.6613 20.405 24.5706 21.3933C24.5343 21.7874 24.5596 22.1875 24.8604 22.5058C24.8951 22.5386 24.9303 22.5718 24.965 22.6045C25.2174 22.8384 25.5216 22.8035 25.8126 22.7332C26.3879 22.5936 26.9099 22.327 27.4071 22.0125L27.4044 22.0152C27.7536 21.8446 28.0859 21.6462 28.3939 21.4096L28.3911 21.4124C28.5666 21.3742 28.6133 21.2565 28.6051 21.0924C28.5902 20.7844 28.6491 20.4824 28.6931 20.1793C28.84 19.1692 29.1826 18.2235 29.6436 17.3159C29.6562 17.3055 29.6601 17.2919 29.6557 17.2766C29.8031 17.0373 29.951 16.798 30.0984 16.5587L30.0957 16.5614C30.1617 16.5255 30.1897 16.4628 30.2128 16.3968L30.2073 16.4017C30.2249 16.3799 30.2425 16.3581 30.2601 16.3369L30.2574 16.3401C30.3195 16.2616 30.3817 16.1837 30.4439 16.1052C30.4576 16.1041 30.4637 16.097 30.4631 16.0834C30.5231 16.006 30.5825 15.928 30.6424 15.8506C30.7381 15.7803 30.8069 15.6882 30.8641 15.5862C30.8839 15.5644 30.9037 15.5426 30.9235 15.5214L30.9196 15.5257C30.9757 15.4691 31.0324 15.4129 31.0885 15.3562C31.1782 15.2685 31.2678 15.1807 31.3569 15.0924C31.3778 15.0722 31.3987 15.052 31.4196 15.0324L31.4141 15.0379C31.4356 15.0193 31.4565 15.0008 31.4779 14.9823L31.473 14.9872C31.5318 14.9425 31.5907 14.8978 31.6495 14.8531C31.6638 14.8536 31.671 14.8471 31.6721 14.8329C31.6974 14.8073 31.7227 14.7817 31.7474 14.7566C31.7645 14.743 31.7815 14.7299 31.7991 14.7163C31.8409 14.6885 31.8833 14.6607 31.9251 14.6329C31.9372 14.6329 31.9438 14.6274 31.9449 14.616C31.9708 14.5914 31.9966 14.5669 32.0225 14.5429L32.0192 14.5462C32.061 14.5211 32.1022 14.496 32.144 14.471C32.1572 14.472 32.1649 14.4655 32.166 14.4524C32.1919 14.4284 32.2177 14.405 32.2436 14.381L32.2397 14.3854C32.3112 14.3707 32.369 14.3347 32.4102 14.2742L32.4075 14.2769C32.6308 14.1477 32.8536 14.0185 33.0769 13.8888C33.0917 13.8948 33.1033 13.8915 33.1126 13.8784C33.1495 13.8839 33.1731 13.8675 33.1869 13.8348C33.2017 13.8408 33.2133 13.8375 33.2226 13.8245C33.6951 13.6277 34.172 13.4369 34.6813 13.3617C35.1329 13.2946 35.5955 13.1725 36.0251 13.456C36.0592 13.4898 36.0938 13.5241 36.1279 13.5579C36.1466 13.5797 36.1648 13.6021 36.1835 13.6239L36.1796 13.62C36.2044 13.6593 36.2297 13.6991 36.2544 13.7383C36.2522 13.7574 36.261 13.7672 36.2803 13.7683C36.3028 13.7923 36.3254 13.8163 36.3479 13.8403L36.3452 13.8375C36.3754 13.9193 36.4365 13.9705 36.5129 14.0071L36.5091 14.0033C36.5982 14.103 36.7176 14.1314 36.8435 14.1613C37.1636 14.2377 37.4821 14.1652 37.8011 14.1668C38.2951 14.1695 38.5651 14.3499 38.6608 14.7577C38.7318 15.0608 38.7384 15.3688 38.707 15.6778C38.6031 16.7032 38.3583 17.7029 38.1482 18.7092C37.9425 19.6958 37.7731 20.6852 37.9018 21.6958C37.9397 21.994 37.9551 22.308 38.1669 22.5576L38.1641 22.5549C38.2148 22.6421 38.2769 22.7103 38.388 22.7201C38.6218 22.7408 38.8275 22.6699 39.0178 22.5424C39.0371 22.5451 39.0475 22.5369 39.0486 22.5173C39.1086 22.4764 39.1883 22.4617 39.2252 22.3892C39.2252 22.3892 39.2213 22.3919 39.2219 22.3919C39.2422 22.3728 39.262 22.3532 39.2824 22.3341L39.2774 22.339C39.2989 22.3211 39.3203 22.3025 39.3418 22.2845L39.3385 22.2883C39.4952 22.1859 39.619 22.0501 39.7268 21.8997L39.7257 21.9008ZM34.1467 16.332L34.1527 16.326C34.1324 16.3461 34.1126 16.3658 34.0922 16.3859L34.0977 16.3805C34.0774 16.4006 34.0576 16.4203 34.0372 16.4404L34.0427 16.435C34.0229 16.4551 34.0037 16.4759 33.9839 16.496L33.9894 16.4906C33.9696 16.5108 33.9498 16.5309 33.9305 16.5511L33.9355 16.5462C33.9157 16.5664 33.8953 16.586 33.8755 16.6061L33.8794 16.6018C33.8612 16.6203 33.8436 16.6383 33.8255 16.6568C33.2199 17.3104 32.7419 18.0485 32.3508 18.8444C32.3404 18.8645 32.3299 18.8842 32.3195 18.9043C32.2997 18.9076 32.2931 18.919 32.2991 18.9381C31.9086 19.7094 31.6072 20.5113 31.5373 21.3775C31.5065 21.7618 31.5313 22.1537 31.8464 22.4508L31.8943 22.4982C31.9498 22.5909 32.0489 22.6307 32.1402 22.6536C32.7359 22.8035 33.2853 22.6988 33.7831 22.338L33.7793 22.3418C33.8981 22.2976 33.9894 22.2191 34.0631 22.1183C34.0785 22.1041 34.0944 22.0899 34.1098 22.0758C34.1318 22.054 34.1544 22.0316 34.1764 22.0098C34.1907 21.9945 34.205 21.9793 34.2193 21.9635C34.2622 21.9209 34.3046 21.8784 34.3475 21.8354C34.3667 21.8354 34.3755 21.8256 34.3744 21.807C34.7028 21.3922 34.9712 20.9463 35.1038 20.4295L35.1005 20.4328C35.1802 20.3996 35.15 20.3249 35.1654 20.2671L35.1593 20.2725C35.2253 20.2169 35.2385 20.1368 35.2627 20.061C35.6483 18.8574 35.7885 17.614 35.8622 16.3614C35.8815 16.0305 35.865 15.6969 35.865 15.3546C35.5746 15.4107 35.3056 15.4462 35.0823 15.6179L35.085 15.6151C34.9767 15.6446 34.8843 15.7002 34.8084 15.7825L34.8122 15.7787C34.7715 15.8027 34.7308 15.8272 34.6907 15.8512C34.6709 15.8495 34.661 15.8588 34.6604 15.8784C34.6362 15.9008 34.612 15.9226 34.5878 15.9449L34.59 15.9427C34.4498 16.0022 34.3513 16.1096 34.2589 16.2235L34.2105 16.2687C34.1896 16.2894 34.1687 16.3107 34.1483 16.3314L34.1467 16.332Z" fill="black"/>
<path d="M5.54592 22.3275C5.51346 22.3624 5.48101 22.3973 5.44801 22.4322C5.36441 22.4856 5.31105 22.5619 5.2742 22.6513L5.27695 22.6486C5.14549 22.756 5.06959 22.9037 4.98818 23.0471C4.96893 23.0476 4.96068 23.0574 4.96343 23.0765C4.42605 23.9438 4.19393 24.8912 4.24673 25.9018C4.26158 26.1896 4.34904 26.4785 4.56355 26.7031L4.5608 26.7004C4.58391 26.7979 4.64881 26.865 4.72691 26.9228L4.72416 26.92C4.80392 27.0623 4.91503 27.173 5.06024 27.2498L5.05474 27.2444C5.07564 27.2635 5.09709 27.282 5.11799 27.3011L5.11304 27.2962C5.13394 27.3136 5.15484 27.3316 5.17574 27.349L5.17354 27.348C5.2093 27.3692 5.24505 27.391 5.2808 27.4123L5.2764 27.4079C5.37761 27.518 5.51677 27.5638 5.64822 27.6205C6.35227 27.9258 7.08216 27.8963 7.82086 27.7895C9.34116 27.5693 10.7498 27.065 12.016 26.1912C12.0308 26.1929 12.0391 26.1863 12.0402 26.1716C12.0655 26.1476 12.0913 26.1236 12.1166 26.0997L12.1128 26.1035C12.154 26.0779 12.1958 26.0522 12.2371 26.0266C12.2508 26.0277 12.2585 26.0217 12.2596 26.0081C12.2849 25.9835 12.3097 25.959 12.335 25.9339L12.3322 25.9367C12.4362 25.8773 12.538 25.8151 12.6084 25.7143L12.6056 25.7164C12.6628 25.6608 12.72 25.6052 12.7778 25.5496C12.8823 25.4761 12.9719 25.3883 13.0445 25.2836C13.088 25.2406 13.132 25.1975 13.1755 25.1544C13.1903 25.1544 13.1975 25.1468 13.1964 25.1321C13.2398 25.0721 13.2827 25.0127 13.3262 24.9527L13.3234 24.9555C13.3603 24.9173 13.4021 24.8824 13.434 24.8399C14.0885 23.9617 14.4158 22.9751 14.4983 21.886C14.5632 21.0258 14.3025 20.3128 13.704 19.705C13.6331 19.6347 13.5621 19.5638 13.4912 19.4935C13.4472 19.4499 13.4037 19.4063 13.3597 19.3627C13.3586 19.3501 13.352 19.3441 13.3394 19.3441C13.2789 19.3 13.2184 19.2564 13.1579 19.2122L13.1628 19.2171C13.1419 19.1986 13.121 19.1795 13.1001 19.161L13.1039 19.1648C12.67 18.7903 12.1881 18.4878 11.6755 18.231L11.6783 18.2337C11.5264 18.1062 11.3444 18.031 11.1684 17.9459C11.1662 17.9269 11.1552 17.9192 11.1365 17.9236C10.6821 17.6886 10.2339 17.4412 9.75479 17.2564C8.85603 16.8241 7.95727 16.3924 7.05906 15.9596C6.76094 15.8162 6.46393 15.6696 6.16636 15.5246C6.15206 15.5142 6.13665 15.5082 6.11905 15.5066L6.12235 15.5098C5.82148 15.3403 5.52062 15.1708 5.21975 15.0013C5.21755 14.986 5.20875 14.98 5.19389 14.9833C5.08059 14.9211 4.96728 14.8584 4.85397 14.7963L4.85837 14.8007C4.66696 14.6551 4.4651 14.5259 4.24948 14.4175L4.25223 14.4207C4.21428 14.3559 4.15158 14.327 4.08282 14.3079L4.08777 14.3133C4.06632 14.2953 4.04487 14.2779 4.02342 14.2599L4.02672 14.2621C3.97117 14.2245 3.91616 14.1869 3.86061 14.1487L3.86336 14.1514C3.82816 14.0849 3.76325 14.061 3.69835 14.037L3.70165 14.0402C3.54874 13.8936 3.38318 13.7628 3.20222 13.6516C3.18517 13.6374 3.16867 13.6227 3.15161 13.6085C3.12741 13.5834 3.10321 13.5589 3.07901 13.5338C3.07681 13.5126 3.06471 13.5033 3.04326 13.5055C3.04051 13.493 3.03226 13.4853 3.01961 13.4837C3.01961 13.4706 3.01356 13.4641 3.0009 13.4635C2.88375 13.3643 2.76714 13.2651 2.64998 13.1659C2.63403 13.1501 2.61808 13.1343 2.60213 13.1185C2.52677 13.0427 2.45142 12.9675 2.37606 12.8917C2.36066 12.8759 2.34526 12.8601 2.32986 12.8443C2.30951 12.823 2.28971 12.8023 2.26936 12.781L2.27376 12.7854C2.21215 12.7085 2.1511 12.6317 2.0895 12.5543C2.0906 12.5374 2.08235 12.5287 2.06529 12.5287C2.04164 12.5047 2.01744 12.4812 1.99379 12.4572L1.99654 12.46C1.90248 12.3335 1.80843 12.207 1.71437 12.0806L1.71602 12.0833C1.69842 12.062 1.68082 12.0408 1.66377 12.0195L1.66872 12.0244C1.57026 11.8565 1.47181 11.6881 1.3739 11.5202C1.37775 11.5033 1.37115 11.4935 1.35355 11.4908C0.919572 10.6606 0.714409 9.77586 0.73366 8.84264C0.763912 7.39592 1.04113 6.00808 1.75893 4.72871C1.77103 4.71781 1.77543 4.70418 1.77158 4.68837C1.93659 4.44852 2.10215 4.20868 2.26716 3.96937L2.26496 3.9721C2.32931 3.93558 2.35516 3.8718 2.38377 3.80966L2.37826 3.81511C2.39807 3.79385 2.41787 3.77259 2.43767 3.75133C2.45307 3.73498 2.46847 3.71917 2.48387 3.70282C2.61643 3.55727 2.74899 3.41227 2.88155 3.26673L2.8755 3.27273C3.04106 3.125 3.20662 2.97782 3.37273 2.8301L3.36998 2.83282C3.50199 2.73634 3.634 2.63986 3.766 2.54283C3.7847 2.54501 3.79406 2.53683 3.79516 2.5183C3.96567 2.40382 4.13618 2.28881 4.30614 2.17433L4.30284 2.17706C4.40679 2.14054 4.50415 2.09202 4.58281 2.01298L4.57896 2.0168C4.83802 1.88706 5.09764 1.75733 5.3567 1.62759C5.37211 1.6325 5.38476 1.62923 5.39521 1.61723C5.43371 1.62378 5.44911 1.59979 5.46011 1.56981C5.47606 1.5709 5.49091 1.56763 5.50466 1.56054C5.54372 1.5709 5.55802 1.54692 5.56792 1.51639L5.56297 1.5213C5.67793 1.53111 5.77418 1.47333 5.87484 1.43517C6.44192 1.21822 7.02441 1.05087 7.61625 0.914045C8.65857 0.672563 9.71848 0.545552 10.7845 0.494857C11.7162 0.450704 12.6535 0.427809 13.5825 0.545007C14.8245 0.701998 16.0164 1.03124 17.1154 1.64612C17.117 1.66411 17.1269 1.67174 17.1451 1.66847C17.1874 1.69082 17.2298 1.71317 17.2721 1.73552L17.2694 1.73334C17.2886 1.78295 17.3354 1.78676 17.3783 1.79821L17.3733 1.7933C17.4135 1.82383 17.4536 1.85381 17.4938 1.88434C17.5031 1.89905 17.5169 1.90396 17.5339 1.90015C17.557 1.91868 17.5796 1.93667 17.6027 1.9552L17.5988 1.95248C17.6357 2.01571 17.7011 2.03915 17.7633 2.06804L17.76 2.06477C17.7842 2.08821 17.8078 2.11165 17.8321 2.13509C17.8321 2.15198 17.8397 2.15962 17.8568 2.15907C17.9734 2.25556 18.0906 2.35258 18.2072 2.44907C18.2946 2.53847 18.3821 2.62732 18.4695 2.71672C18.5146 2.77668 18.5603 2.83664 18.6054 2.8966C18.6048 2.91077 18.6114 2.91786 18.6252 2.91895C18.7033 3.01762 18.782 3.11574 18.8601 3.2144L18.8562 3.21058C18.8997 3.28635 18.9437 3.36267 18.9871 3.43844C18.9833 3.45697 18.991 3.46787 19.0102 3.47006C19.4431 4.26482 19.6191 5.11519 19.5669 6.01353C19.5141 6.91405 19.3017 7.76768 18.8056 8.53738L18.8084 8.53465C18.7231 8.58807 18.6874 8.67801 18.6384 8.75815C18.6048 8.79303 18.5707 8.82737 18.5372 8.86226C18.5113 8.88734 18.4855 8.91187 18.4596 8.93694C18.4481 8.93749 18.442 8.94348 18.4415 8.95493C18.3606 9.03506 18.2803 9.11519 18.1995 9.19478C18.183 9.20949 18.1665 9.22421 18.15 9.23838C18.1181 9.25583 18.0845 9.27055 18.0548 9.29126C16.9591 10.049 15.7749 10.1629 14.5208 9.77041L14.5076 9.75079L14.484 9.75133C14.4587 9.74043 14.4339 9.72898 14.4086 9.71808C14.407 9.70009 14.3971 9.693 14.3795 9.69628C14.3014 9.65485 14.2233 9.61342 14.1452 9.57145L14.1479 9.57417C14.0863 9.49568 14.0253 9.41718 13.9637 9.33868C13.9642 9.32669 13.9587 9.31961 13.9466 9.31797C13.8932 9.19096 13.753 9.06722 13.929 8.92985L13.9263 8.93258C14.0962 8.82955 14.2464 8.70472 14.3712 8.55046L14.3685 8.55318C14.6242 8.35967 14.8333 8.12037 15.0434 7.88216C15.0544 7.86853 15.0654 7.8549 15.0769 7.84127L15.0912 7.82656C15.1094 7.82819 15.1182 7.82001 15.1182 7.80203L15.2485 7.62051L15.2458 7.62323C15.3316 7.57199 15.375 7.48913 15.4141 7.40301L15.4113 7.40573C15.4867 7.36976 15.4994 7.28908 15.5395 7.22857C15.5588 7.22748 15.5665 7.21767 15.5637 7.19859C16.265 6.19232 16.1027 5.10538 15.4685 4.28063L15.4729 4.28445C15.4509 4.21631 15.4207 4.15417 15.3536 4.11764C15.32 4.0833 15.287 4.04841 15.2535 4.01407C15.1968 3.92086 15.1215 3.84672 15.0269 3.79167L15.0296 3.79439C15.0071 3.77095 14.984 3.74806 14.9614 3.72462C14.9466 3.71263 14.9312 3.70009 14.9163 3.6881L14.9026 3.67502C14.9042 3.65757 14.896 3.6494 14.8789 3.64994C14.8366 3.62432 14.7942 3.5987 14.7519 3.57308L14.7552 3.57581C14.7183 3.50167 14.638 3.4875 14.5758 3.44825C14.5736 3.42917 14.5637 3.42209 14.545 3.4259C13.9901 3.09175 13.3779 2.93421 12.7393 2.87371C11.7415 2.77886 10.7503 2.85463 9.76799 3.03724C8.65197 3.24493 7.60195 3.61178 6.71089 4.34114L6.71474 4.33841C6.69384 4.35749 6.67239 4.37657 6.65149 4.39619C6.63499 4.41091 6.61848 4.42508 6.60143 4.4398C6.25711 4.66984 5.99805 4.97946 5.77143 5.31906L5.77418 5.31634C5.71038 5.35395 5.67407 5.41009 5.65702 5.48041L5.66032 5.47714C5.59982 5.51857 5.56407 5.57526 5.54922 5.64667L5.55307 5.64285C5.53107 5.67011 5.50576 5.69464 5.48816 5.72462C4.85287 6.79794 4.64936 7.97046 4.67906 9.19587C4.68951 9.61669 4.81382 10.0043 5.05914 10.3509L5.05584 10.3477C5.05694 10.4273 5.10479 10.4763 5.16639 10.5161L5.16254 10.5128C5.18729 10.5526 5.2115 10.5919 5.23625 10.6317C5.23405 10.6513 5.2434 10.6617 5.2632 10.6622C5.33745 10.7631 5.39356 10.8786 5.50356 10.95C5.57452 11.0209 5.64492 11.0912 5.71588 11.1621C5.79508 11.2411 5.87429 11.3202 5.95349 11.3992C5.95349 11.4166 5.96174 11.4248 5.97934 11.4237C6.058 11.4837 6.13665 11.5436 6.21476 11.6036L6.21201 11.6009C6.26646 11.681 6.33687 11.7415 6.43147 11.7704L6.42872 11.7677C6.45347 11.79 6.47823 11.8129 6.50298 11.8353C6.50298 11.8533 6.51233 11.8614 6.53048 11.8598C6.57118 11.8838 6.61243 11.9078 6.65314 11.9323L6.65039 11.9296C6.67569 11.953 6.70099 11.977 6.72574 12.0004C6.72684 12.0163 6.73454 12.0228 6.75049 12.0212C6.9221 12.1313 7.09372 12.2419 7.26533 12.352C7.27523 12.3651 7.28788 12.3695 7.30328 12.3646C7.34618 12.4267 7.40669 12.4622 7.48039 12.4769L7.47654 12.4736C7.85936 12.7467 8.27794 12.9587 8.69597 13.1713C8.70532 13.1844 8.71742 13.1877 8.73282 13.1822C8.76142 13.2019 8.78782 13.2258 8.81863 13.2411C10.4643 14.0719 12.11 14.9021 13.7557 15.7323C13.7656 15.7448 13.7777 15.7486 13.7931 15.7432C13.9059 15.8107 14.0187 15.8789 14.1314 15.9465C14.1435 15.9607 14.1589 15.965 14.1765 15.9596C14.4543 16.1264 14.7326 16.2937 15.0104 16.4605L15.0071 16.4567C15.1022 16.5548 15.2183 16.6208 15.3442 16.6726L15.3415 16.6698C15.3778 16.7353 15.4388 16.7652 15.5082 16.7832L15.5049 16.7799C15.5324 16.8045 15.5599 16.829 15.5874 16.8535L15.6066 16.8672C15.6281 16.877 15.6495 16.8862 15.671 16.8961L15.6671 16.8922C15.726 16.9696 15.8019 17.0231 15.8948 17.053L15.8921 17.0503C15.9174 17.0749 15.9421 17.0994 15.9674 17.1239C15.9685 17.137 15.9757 17.1435 15.9889 17.1424C16.0307 17.1675 16.0725 17.1926 16.1143 17.2171L16.1115 17.2139C16.1357 17.2378 16.1605 17.2618 16.1847 17.2858C16.1847 17.3011 16.1924 17.3087 16.2083 17.3076C16.2875 17.3676 16.3673 17.427 16.4465 17.487L16.4438 17.4842C16.5164 17.5818 16.6132 17.6499 16.7182 17.7088L16.7138 17.7045C16.7342 17.7241 16.7551 17.7432 16.7754 17.7628L16.7705 17.7579C16.7914 17.7775 16.8123 17.7971 16.8332 17.8167C16.8491 17.8326 16.8651 17.8484 16.881 17.8642C16.9569 17.9394 17.0323 18.0141 17.1082 18.0893C17.1423 18.1231 17.177 18.1574 17.2111 18.1912C17.3095 18.3068 17.4074 18.4218 17.5059 18.5374C17.5075 18.5581 17.5185 18.5684 17.54 18.5674L17.5477 18.5744C17.5592 18.5892 17.5702 18.6044 17.5818 18.6191C17.6445 18.6955 17.6742 18.7968 17.7655 18.8508L17.7627 18.8481C17.9701 19.1915 18.178 19.5355 18.3183 19.9121C18.6758 20.8726 18.5674 21.8505 18.4068 22.8279C18.3111 23.4123 18.0911 23.9601 17.8849 24.5118C17.8722 24.5205 17.8689 24.5325 17.875 24.5466C17.7776 24.666 17.7248 24.8083 17.6659 24.9473C17.6527 24.9566 17.6489 24.9686 17.6549 24.9838C17.5433 25.1692 17.4316 25.355 17.32 25.5404L17.3238 25.5366C17.2595 25.5747 17.2287 25.6352 17.2089 25.7034L17.2138 25.6985C17.1962 25.7203 17.1792 25.7415 17.1616 25.7633L17.1638 25.7601C17.1258 25.8146 17.0873 25.8696 17.0493 25.9241L17.0521 25.9214C16.9663 25.9726 16.93 26.0604 16.8827 26.1411L16.8854 26.1384C16.7699 26.2697 16.655 26.4016 16.5395 26.533C16.5202 26.533 16.5103 26.5428 16.5109 26.5619C16.3547 26.7178 16.199 26.8737 16.0428 27.0296C16.0296 27.0296 16.023 27.0361 16.0224 27.0487C15.9971 27.0743 15.9724 27.0999 15.9471 27.1255C15.8937 27.1768 15.8404 27.2275 15.787 27.2787C15.7073 27.3403 15.6281 27.4014 15.5483 27.463C15.5302 27.463 15.5214 27.4717 15.5219 27.4897C15.4394 27.5529 15.3563 27.6167 15.2738 27.6799C15.2562 27.6788 15.2474 27.687 15.2474 27.705C15.1693 27.7655 15.0907 27.826 15.0126 27.886L15.0153 27.8832C14.9185 27.9443 14.8217 28.0059 14.7249 28.0669C14.7123 28.0659 14.7057 28.0713 14.704 28.0838C14.5868 28.1629 14.4691 28.2419 14.352 28.321L14.3553 28.3182C14.0764 28.4692 13.797 28.6202 13.5181 28.7707C13.4989 28.7658 13.4873 28.7729 13.484 28.7925C13.1304 28.9495 12.7767 29.1065 12.4225 29.2629L12.3983 29.2613C12.3983 29.2613 12.3845 29.2809 12.3851 29.2809C10.741 29.911 9.04139 30.2812 7.28183 30.4093C5.92599 30.5079 4.58996 30.5041 3.31552 29.9487L3.31883 29.9519C3.15216 29.8614 2.98495 29.7704 2.81829 29.6799L2.82104 29.6826C2.58178 29.4979 2.34196 29.3131 2.1027 29.1283C2.08785 29.1136 2.073 29.0988 2.05814 29.0841C1.96244 28.9751 1.86673 28.8655 1.77103 28.7565L1.77323 28.7592C1.72977 28.6982 1.68577 28.6377 1.64232 28.5766L1.62967 28.5608C1.60547 28.533 1.58181 28.5058 1.55761 28.478L1.56201 28.4818C0.978426 27.5682 0.755111 26.5614 0.795264 25.493C0.842567 24.2403 1.07413 23.0269 1.62912 21.8887C1.64837 21.8849 1.65442 21.8734 1.64782 21.8554C1.67807 21.7949 1.70832 21.7339 1.73857 21.6734C1.75728 21.6701 1.76443 21.6598 1.76003 21.6412C1.91239 21.4008 2.06474 21.1604 2.2171 20.92L2.21435 20.9228C2.31776 20.853 2.37606 20.7467 2.43987 20.6448C2.45527 20.6284 2.47067 20.6126 2.48607 20.5962C2.52952 20.5548 2.57243 20.5128 2.61588 20.4714C2.62798 20.4567 2.63953 20.442 2.65163 20.4273L2.65493 20.4245C2.66868 20.4136 2.68243 20.4022 2.69619 20.3913C2.71929 20.3668 2.74184 20.3422 2.76494 20.3182L2.76219 20.321C2.81939 20.2654 2.87605 20.2098 2.93325 20.1542C2.94975 20.1394 2.96625 20.1247 2.98275 20.11C3.03666 20.0702 3.09001 20.0299 3.14391 19.9901C4.21428 19.198 5.42051 18.8606 6.74774 18.9527C7.51724 19.0062 7.98312 19.4472 8.22404 20.1503C8.31314 20.5515 8.31039 20.5445 7.92812 20.7042C7.41769 20.9173 6.9155 21.1468 6.48593 21.5044L6.48868 21.5017C6.39132 21.5267 6.32477 21.5922 6.26701 21.669L6.27086 21.6652C6.22906 21.6919 6.18781 21.7186 6.146 21.7453C6.135 21.7453 6.1284 21.7508 6.1273 21.7617C6.08275 21.8053 6.03765 21.8489 5.99309 21.8925C5.97659 21.9067 5.96009 21.9209 5.94304 21.9345C5.79123 22.0451 5.65702 22.1732 5.54812 22.3264L5.54592 22.3275Z" fill="black"/>
<path d="M51.8174 23.0258C51.8218 23.01 51.8174 22.9969 51.8042 22.9871C51.1563 21.8244 50.9643 20.5919 51.1959 19.2841C51.2965 18.7145 51.5055 18.1841 51.7118 17.6505L51.7085 17.6543C51.8389 17.4177 51.9698 17.1806 52.1001 16.944L52.0957 16.9478C52.1375 16.8879 52.1788 16.8279 52.2206 16.7679C52.2393 16.7668 52.2475 16.7576 52.2448 16.739C52.2684 16.6976 52.2915 16.6562 52.3152 16.6153L52.3124 16.618C52.3795 16.5826 52.4015 16.5155 52.4285 16.4523L52.4241 16.4567C52.5033 16.3591 52.582 16.2615 52.6606 16.1634C52.6749 16.1634 52.6815 16.1558 52.681 16.1416C52.725 16.0811 52.769 16.02 52.813 15.9595C52.8284 15.9432 52.8438 15.9268 52.8597 15.9105C53.1969 15.5425 53.5495 15.1909 53.9246 14.8611C53.9433 14.8622 53.9532 14.8535 53.9537 14.835C54.1633 14.6796 54.3734 14.5243 54.583 14.3689C54.6011 14.3711 54.6105 14.3635 54.6121 14.3455C54.6726 14.3046 54.754 14.2921 54.7903 14.2174L54.7876 14.2201C55.0093 14.0931 55.2315 13.9661 55.4531 13.8385L55.4493 13.8423C55.5235 13.8107 55.5989 13.7807 55.6715 13.7464C56.6495 13.2836 57.6703 13.101 58.7467 13.2863C59.299 13.3812 59.7968 13.6118 60.2714 13.8968L60.2692 13.8941C60.2934 13.9159 60.3171 13.9383 60.3413 13.9601C60.3413 13.9792 60.3506 13.9884 60.3693 13.9873C60.4469 14.0478 60.5245 14.1084 60.602 14.1683L60.5976 14.164C60.618 14.1841 60.6378 14.2037 60.6581 14.2239L60.6526 14.2185C60.6724 14.2386 60.6922 14.2593 60.7115 14.2795L60.7071 14.2757C60.7483 14.3607 60.7989 14.4381 60.8792 14.4927L60.8765 14.4899C61.0013 14.7325 61.0849 14.9838 61.1081 15.2602C61.1845 16.1836 61.0195 17.0536 60.5547 17.8625V17.8614C60.5333 17.8968 60.5113 17.9323 60.4898 17.9677L60.4942 17.9628C60.2813 18.2359 60.0685 18.5096 59.8171 18.7499L59.8012 18.7647C59.6466 18.8982 59.492 19.0318 59.3375 19.1659L59.3402 19.1631C59.2291 19.2367 59.118 19.3098 59.0069 19.3834L59.0102 19.3801C58.6351 19.5572 58.2677 19.7497 57.8705 19.8827C56.8535 20.2239 55.8057 20.2986 54.7436 20.2539C54.6369 20.2495 54.5577 20.2266 54.5384 20.3776C54.462 20.9816 54.4988 21.5594 54.8833 22.0696L54.8794 22.0658C54.946 22.1852 55.0384 22.279 55.16 22.3438L55.1561 22.34C55.2953 22.4937 55.4861 22.5679 55.6759 22.6C56.6918 22.7734 57.6544 22.6366 58.5328 22.0696L58.5289 22.074C58.6021 22.0615 58.6571 22.0222 58.6983 21.9623L58.695 21.9655C58.8315 21.9176 58.9261 21.8102 59.0377 21.7268C59.0559 21.7279 59.0647 21.7191 59.0647 21.7012C59.0878 21.6772 59.1114 21.6537 59.1345 21.6297L59.1301 21.6336C59.151 21.615 59.1725 21.596 59.1934 21.5774L59.1895 21.5818C59.2676 21.5196 59.3463 21.4569 59.4244 21.3948C59.442 21.3948 59.4502 21.3855 59.448 21.3681C59.4618 21.3659 59.47 21.3577 59.4722 21.3441C59.4937 21.3441 59.5041 21.3338 59.5041 21.3125L59.5113 21.3038C59.5459 21.2765 59.5834 21.252 59.6158 21.2215C59.9519 20.9037 60.0118 20.9026 60.3495 21.2351C60.5426 21.4253 60.6856 21.6516 60.8022 21.8941C60.9931 22.3558 60.8506 22.7292 60.4937 23.0476C60.4134 23.1195 60.3363 23.1953 60.2577 23.2694C60.2439 23.2694 60.2368 23.2754 60.2362 23.2891C60.212 23.3141 60.1873 23.3387 60.1631 23.3637L60.1669 23.3605C60.146 23.3795 60.1251 23.3981 60.1042 23.4166L60.1081 23.4128C60.0487 23.4542 59.9893 23.4957 59.9293 23.5371C59.9106 23.536 59.9007 23.5447 59.9007 23.5632C59.8243 23.6259 59.7192 23.651 59.6642 23.742L59.6675 23.7388C59.601 23.7606 59.5383 23.7878 59.5003 23.8516L59.5041 23.8478C59.2984 23.9634 59.0927 24.0789 58.887 24.1939C58.8678 24.1885 58.8562 24.1956 58.8518 24.2146C58.8287 24.2256 58.8051 24.2359 58.7819 24.2468C58.761 24.2408 58.7484 24.2479 58.7434 24.2686C57.9316 24.642 57.0939 24.9124 56.1907 24.9636C54.6127 25.053 53.2106 24.6922 52.1364 23.4569C52.1381 23.4379 52.1293 23.4281 52.11 23.427C52.066 23.3697 52.0226 23.3119 51.9786 23.2547L51.9802 23.2574C51.9626 23.2362 51.9445 23.2155 51.9269 23.1942L51.9324 23.1997C51.9109 23.1637 51.8895 23.1282 51.8675 23.0923L51.8686 23.0945C51.851 23.0716 51.8334 23.0487 51.8158 23.0252L51.8174 23.0258ZM57.6549 18.0784L57.6929 18.0397C57.7061 18.0369 57.7138 18.0288 57.7165 18.0157C57.7303 18.0162 57.7369 18.0097 57.7374 17.9966C57.8001 17.9181 57.8628 17.8391 57.9261 17.7606L57.9228 17.7633C57.9481 17.7377 57.9734 17.7121 57.9981 17.687C58.0103 17.6853 58.0158 17.6783 58.0147 17.6668C58.0405 17.6254 58.0664 17.5834 58.0922 17.542L58.0878 17.5463C58.1522 17.5098 58.1868 17.4526 58.2039 17.3828L58.2011 17.3855C58.2721 17.3452 58.2897 17.2694 58.326 17.2051C58.3463 17.2029 58.354 17.192 58.3502 17.1724C58.4387 17.0056 58.5427 16.8448 58.6125 16.6704C58.8364 16.1133 58.969 15.5409 58.8579 14.9358C58.8238 14.7505 58.7148 14.6344 58.5218 14.66C58.3474 14.6829 58.1632 14.6938 58.0119 14.8055C57.9965 14.8006 57.9833 14.8039 57.9717 14.8154C57.7374 14.8933 57.5356 15.0225 57.3563 15.1893C57.3398 15.2035 57.3227 15.2176 57.3062 15.2318C57.2446 15.2765 57.1835 15.3212 57.1219 15.3659C57.1076 15.3659 57.101 15.373 57.101 15.3872C57.04 15.4488 56.9784 15.5098 56.9173 15.5714C56.8827 15.6058 56.8486 15.6401 56.8139 15.6744C56.7881 15.699 56.7617 15.7235 56.7358 15.7486C56.7226 15.7497 56.716 15.7562 56.7166 15.7693C56.6374 15.8663 56.5582 15.9628 56.479 16.0598L56.4817 16.0571C56.3964 16.1084 56.3497 16.189 56.3117 16.2762L56.3161 16.2724C56.298 16.2931 56.2798 16.3144 56.2617 16.3351L56.2639 16.3318C56.2259 16.3864 56.1874 16.4414 56.1495 16.4959L56.1522 16.4932C56.0846 16.5281 56.0648 16.5957 56.0367 16.6573L56.04 16.654C55.9751 16.6933 55.9509 16.7581 55.9289 16.8246C55.8981 16.8323 55.88 16.8492 55.8855 16.8835C55.8393 16.9565 55.7931 17.0296 55.7469 17.1026C55.7271 17.1054 55.7194 17.1168 55.7238 17.1359C55.4042 17.675 55.133 18.2354 54.9691 18.8421L54.9554 18.8988C55.0076 19.0045 54.7045 19.2149 55.0302 19.2275C55.7034 19.2536 56.3266 19.0732 56.8838 18.6894L56.881 18.6922C57.0081 18.6409 57.1208 18.5684 57.2116 18.4649C57.2281 18.4501 57.2452 18.436 57.2617 18.4212C57.3238 18.3749 57.386 18.328 57.4481 18.2817L57.4602 18.2697C57.4855 18.2435 57.5108 18.2179 57.5356 18.1918L57.5334 18.1934C57.5592 18.1705 57.5845 18.1481 57.6104 18.1252C57.6307 18.1225 57.6406 18.1111 57.639 18.0909L57.6538 18.0767L57.6549 18.0784Z" fill="black"/>
<path d="M13.7553 15.7328C12.1096 14.9026 10.4639 14.0724 8.81823 13.2416C8.78743 13.2258 8.76102 13.2024 8.73242 13.1828C8.97939 13.1773 9.18785 13.3131 9.38696 13.4134C10.008 13.7268 10.6042 14.0866 11.2466 14.3613C11.6487 14.5336 12.0398 14.7325 12.4353 14.92C12.6465 15.1593 12.9759 15.1806 13.2339 15.3398C13.4231 15.4564 13.6305 15.5366 13.7559 15.7328H13.7553Z" fill="#1F2429"/>
</g>
<defs>
<clipPath id="clip0_94_2017">
<rect width="60.5556" height="30" fill="white" transform="translate(0.732422 0.458984)"/>
</clipPath>
</defs>
</svg>
