<svg width="171" height="171" viewBox="0 0 171 171" fill="none" xmlns="http://www.w3.org/2000/svg">
<g filter="url(#filter0_b_2001_538)">
<rect x="0.613281" y="0.574219" width="169.54" height="169.54" rx="84.77" fill="white" fill-opacity="0.1"/>
<rect x="1.11328" y="1.07422" width="168.54" height="168.54" rx="84.27" stroke="white" stroke-opacity="0.1"/>
<g clip-path="url(#clip0_2001_538)">
<path d="M140.15 68.2478C139.098 68.6974 138.053 68.7108 137.028 68.2478C136.003 67.7916 135.266 67.0334 134.797 65.9397L132.426 60.3907L145.355 54.8418L147.552 59.9882C148.001 61.0416 148.041 62.1017 147.666 63.1149C147.298 64.1482 146.608 64.8796 145.589 65.3157C144.464 65.7988 143.405 65.725 142.387 65.1345C142.28 66.5167 141.503 67.6641 140.15 68.2411V68.2478ZM136.794 65.0876C137.216 66.0672 138.341 66.5033 139.353 66.0672C140.371 65.631 140.833 64.5105 140.411 63.5309L138.944 60.1089L135.326 61.6589L136.794 65.0808V65.0876ZM144.27 57.8276L140.873 59.2836L142.166 62.2963C142.568 63.2424 143.62 63.645 144.578 63.2357C145.536 62.8264 145.971 61.7864 145.563 60.8403L144.27 57.8276Z" fill="white"/>
<path d="M137.846 78.8357C137.591 76.8228 138.067 75.0112 139.279 73.4143C140.519 71.8375 142.14 70.9182 144.156 70.6633C146.173 70.4083 147.975 70.8847 149.549 72.1059C151.143 73.3405 152.061 74.9709 152.316 76.9838C152.57 78.9968 152.095 80.8084 150.855 82.3852C149.643 83.9821 148.015 84.9013 146.005 85.1563C143.989 85.4113 142.187 84.9349 140.592 83.7003C139.018 82.4791 138.1 80.8554 137.846 78.8357ZM140.077 78.5472C140.257 79.9428 140.88 81.0634 141.939 81.8819C143.017 82.7207 144.277 83.0427 145.71 82.8616C147.144 82.6804 148.283 82.043 149.093 80.9694C149.931 79.9093 150.259 78.668 150.078 77.2724C149.897 75.8767 149.274 74.7562 148.196 73.9242C147.137 73.1056 145.885 72.7768 144.444 72.9647C143.011 73.1459 141.872 73.7833 141.035 74.8434C140.217 75.9237 139.889 77.1583 140.07 78.5606L140.077 78.5472Z" fill="white"/>
<path d="M137.431 95.0525C137.793 93.053 138.791 91.4763 140.432 90.3155C142.087 89.1815 143.915 88.7991 145.912 89.1614C147.908 89.5237 149.482 90.5235 150.621 92.1606C151.773 93.8247 152.155 95.6497 151.793 97.6492C151.432 99.6487 150.434 101.225 148.779 102.359C147.138 103.514 145.316 103.903 143.319 103.54C141.323 103.178 139.749 102.178 138.596 100.514C137.464 98.8771 137.076 97.0453 137.438 95.0458L137.431 95.0525ZM139.648 95.4551C139.4 96.844 139.662 98.0988 140.425 99.1992C141.202 100.32 142.301 101.011 143.728 101.272C145.155 101.527 146.428 101.272 147.526 100.487C148.645 99.7292 149.328 98.6422 149.583 97.26C149.831 95.8711 149.569 94.6164 148.792 93.4959C148.029 92.3955 146.93 91.7044 145.503 91.4494C144.076 91.1945 142.803 91.4494 141.691 92.2143C140.593 92.9994 139.903 94.0796 139.655 95.4685L139.648 95.4551Z" fill="white"/>
<path d="M130.545 114.242L131.757 111.766L140.212 109.727L134.203 106.774L135.221 104.694L147.855 110.894L146.837 112.974L141.17 110.196L144.486 117.785L143.273 120.261L139.622 112.122L130.552 114.242H130.545Z" fill="white"/>
<path d="M118.887 127.004L121.54 128.4L125.908 124.3L124.689 121.556L126.524 119.838L132.413 133.62L130.39 135.519L117.059 128.715L118.874 127.011L118.887 127.004ZM126.839 126.407L123.583 129.46L129.552 132.573L126.839 126.4V126.407Z" fill="white"/>
<path d="M109.502 135.156C111.304 135.975 112.576 137.337 113.32 139.269C114.064 141.202 114.023 143.074 113.226 144.865C112.436 146.677 111.036 147.972 109.066 148.73C106.681 149.649 104.082 149.267 102.22 147.764L103.68 145.952C104.873 146.979 106.614 147.261 108.262 146.623C109.669 146.08 110.62 145.201 111.163 143.973C111.686 142.758 111.686 141.463 111.163 140.095C110.634 138.726 109.776 137.76 108.57 137.209C107.351 136.666 106.052 136.646 104.645 137.189C102.997 137.827 101.865 139.209 101.691 140.766L99.4062 140.417C99.5804 139.249 100.076 138.176 100.867 137.203C101.644 136.257 102.642 135.552 103.841 135.089C105.81 134.331 107.713 134.351 109.502 135.149V135.156Z" fill="white"/>
<path d="M86.8126 138.733L88.0653 141.464L94.0274 140.887L94.7375 137.968L97.2363 137.727L93.5049 152.246L90.7449 152.515L84.334 138.981L86.8126 138.74V138.733ZM93.4714 143.121L89.03 143.551L91.8637 149.67L93.4714 143.121Z" fill="white"/>
<path d="M79.5987 140.498L73.918 139.76L74.1993 137.565L82.1711 138.599L80.3624 152.575L78.0713 152.28L79.5987 140.498Z" fill="white"/>
<path d="M68.9332 138.25L63.5137 136.398L64.2238 134.305L71.8338 136.901L67.2986 150.24L65.108 149.496L68.9332 138.257V138.25Z" fill="white"/>
<path d="M34.6076 111.538C35.5722 110.921 36.6039 110.74 37.6891 111.028C38.7743 111.31 39.6251 111.941 40.2682 112.941L43.5105 118.033L31.6466 125.609L28.6455 120.892C28.0292 119.926 27.8215 118.886 28.0292 117.825C28.2234 116.745 28.7861 115.906 29.7173 115.316C30.7489 114.658 31.8074 114.558 32.906 114.974C32.7921 113.592 33.375 112.337 34.6076 111.545V111.538ZM32.2294 122.489L35.3512 120.496L33.5893 117.731C33.04 116.866 31.9414 116.638 31.0571 117.201C30.1728 117.765 29.9183 118.859 30.4676 119.724L32.2294 122.489ZM38.4327 114.108C37.8633 113.209 36.6776 112.961 35.7464 113.558C34.8152 114.155 34.5406 115.329 35.11 116.228L37.1063 119.369L40.429 117.248L38.4327 114.108Z" fill="white"/>
<path d="M35.1708 100.736C35.7536 102.682 35.5728 104.547 34.6349 106.319C33.6703 108.077 32.2166 109.251 30.2739 109.828C28.3312 110.405 26.4688 110.23 24.7204 109.284C22.9452 108.325 21.7728 106.869 21.1967 104.916C20.6206 102.964 20.7948 101.105 21.7594 99.3472C22.6973 97.5758 24.151 96.4016 26.1004 95.8246C28.0498 95.2475 29.9054 95.422 31.6807 96.3815C33.4291 97.3276 34.6014 98.7836 35.1842 100.736H35.1708ZM33.0138 101.38C32.6118 100.032 31.8079 99.0318 30.6356 98.3944C29.4365 97.7436 28.1436 97.6295 26.7569 98.0455C25.3702 98.4615 24.352 99.2667 23.7222 100.468C23.0657 101.649 22.9452 102.93 23.3471 104.279C23.749 105.627 24.5529 106.627 25.752 107.278C26.9244 107.916 28.224 108.03 29.6107 107.614C30.9974 107.198 32.0156 106.392 32.6654 105.205C33.2951 104.01 33.4157 102.729 33.0138 101.38Z" fill="white"/>
<path d="M32.9725 84.6592C32.939 86.6922 32.2021 88.4099 30.7752 89.819C29.3215 91.2012 27.5865 91.8789 25.5567 91.8453C23.5269 91.8118 21.8119 91.0737 20.4252 89.6445C19.0251 88.1818 18.3485 86.4373 18.382 84.4042C18.4155 82.3712 19.1524 80.6535 20.5994 79.2713C22.033 77.869 23.768 77.1913 25.7978 77.2248C27.8276 77.2584 29.5426 77.9964 30.9494 79.4457C32.3294 80.8816 33.006 82.6194 32.9725 84.6525V84.6592ZM30.7216 84.6189C30.7484 83.2099 30.2862 82.0156 29.355 81.0494C28.4037 80.0697 27.2113 79.5598 25.7643 79.5397C24.3174 79.5128 23.1048 79.9758 22.1402 80.9286C21.1621 81.8545 20.6597 83.0354 20.6329 84.4445C20.6061 85.8535 21.0683 87.0479 22.0196 88.0342C22.9508 88.9937 24.1432 89.5036 25.5902 89.5237C27.0371 89.5506 28.2497 89.0876 29.2344 88.155C30.1991 87.2022 30.7015 86.028 30.7216 84.6189Z" fill="white"/>
<path d="M36.6584 64.5836L35.8679 67.2272L27.8626 70.6156L34.2736 72.548L33.6104 74.7622L20.1387 70.7028L20.8019 68.4886L26.8444 70.307L22.3359 63.3624L23.1264 60.7188L28.0502 68.1531L36.6584 64.5836Z" fill="white"/>
<path d="M46.1093 50.1112L43.2622 49.1584L39.6046 53.9089L41.2459 56.425L39.7118 58.4178L31.6797 45.7633L33.3745 43.5625L47.6233 48.1251L46.1026 50.1045L46.1093 50.1112ZM38.3519 51.9832L41.0717 48.4405L34.6808 46.3269L38.3519 51.9765V51.9832Z" fill="white"/>
<path d="M54.0554 40.556C52.1462 40.0394 50.6657 38.9054 49.6207 37.1139C48.5756 35.3224 48.3077 33.4773 48.8034 31.5717C49.2924 29.6527 50.458 28.1497 52.2802 27.0829C54.4841 25.7879 57.1101 25.7409 59.2002 26.9218L58.0547 28.9482C56.7149 28.1229 54.9464 28.1363 53.419 29.0287C52.1194 29.7936 51.3222 30.8202 50.9806 32.1152C50.659 33.3967 50.8734 34.6783 51.6103 35.9464C52.3539 37.2146 53.3587 38.0197 54.6382 38.3686C55.9311 38.7041 57.2173 38.5163 58.5169 37.7513C60.0443 36.859 60.9353 35.309 60.8549 33.7456L63.166 33.7188C63.1794 34.8997 62.8713 36.0404 62.2483 37.1273C61.632 38.1875 60.7611 39.0463 59.6491 39.6972C57.8269 40.764 55.9445 41.0525 54.0487 40.556H54.0554Z" fill="white"/>
<path d="M75.8538 33.3366L74.1723 30.8473L68.3844 32.3906L68.1633 35.3898L65.7383 36.0339L67.058 21.1048L69.7376 20.3936L78.2654 32.6992L75.8538 33.3433V33.3366ZM68.572 30.0958L72.8861 28.9485L69.1012 23.3727L68.5787 30.0958H68.572Z" fill="white"/>
<path d="M82.7128 30.4447L88.4404 30.2635L88.5074 32.4778L80.4753 32.726L80.0332 18.649L82.3444 18.5752L82.7128 30.4447Z" fill="white"/>
<path d="M93.5984 30.9415L99.2456 31.8809L98.8839 34.0615L90.959 32.7397L93.2634 18.8506L95.5411 19.233L93.5917 30.9482L93.5984 30.9415Z" fill="white"/>
</g>
<path d="M60.6035 109.326L106.661 63.2686C106.661 63.2686 95.3041 74.6253 60.6035 63.2686" stroke="white" stroke-width="2"/>
<path d="M60.6028 109.325L106.66 63.2679C106.66 63.2679 95.3034 74.6246 106.66 109.325" stroke="white" stroke-width="2"/>
</g>
<defs>
<filter id="filter0_b_2001_538" x="-27.3867" y="-27.4258" width="225.54" height="225.54" filterUnits="userSpaceOnUse" color-interpolation-filters="sRGB">
<feFlood flood-opacity="0" result="BackgroundImageFix"/>
<feGaussianBlur in="BackgroundImageFix" stdDeviation="14"/>
<feComposite in2="SourceAlpha" operator="in" result="effect1_backgroundBlur_2001_538"/>
<feBlend mode="normal" in="SourceGraphic" in2="effect1_backgroundBlur_2001_538" result="shape"/>
</filter>
<clipPath id="clip0_2001_538">
<rect width="134" height="134" fill="white" transform="translate(18.3828 18.5752)"/>
</clipPath>
</defs>
</svg>
