<svg width="135" height="135" viewBox="0 0 135 135" fill="none" xmlns="http://www.w3.org/2000/svg">
<g id="Layer_1" clip-path="url(#clip0_2001_539)">
<path id="Vector" d="M122.15 50.2478C121.098 50.6974 120.053 50.7108 119.028 50.2478C118.003 49.7916 117.266 49.0334 116.797 47.9397L114.426 42.3907L127.355 36.8418L129.552 41.9882C130.001 43.0416 130.041 44.1017 129.666 45.1149C129.298 46.1482 128.608 46.8796 127.589 47.3157C126.464 47.7988 125.405 47.725 124.387 47.1345C124.28 48.5167 123.503 49.6641 122.15 50.2411V50.2478ZM118.794 47.0876C119.216 48.0672 120.341 48.5033 121.353 48.0672C122.371 47.631 122.833 46.5105 122.411 45.5309L120.944 42.1089L117.326 43.6589L118.794 47.0808V47.0876ZM126.27 39.8276L122.873 41.2836L124.166 44.2963C124.568 45.2424 125.62 45.645 126.578 45.2357C127.536 44.8264 127.971 43.7864 127.563 42.8403L126.27 39.8276Z" fill="white"/>
<path id="Vector_2" d="M119.846 60.8357C119.591 58.8228 120.067 57.0112 121.279 55.4143C122.519 53.8375 124.14 52.9182 126.156 52.6633C128.173 52.4083 129.975 52.8847 131.549 54.1059C133.143 55.3405 134.061 56.9709 134.316 58.9838C134.57 60.9968 134.095 62.8084 132.855 64.3852C131.643 65.9821 130.015 66.9013 128.005 67.1563C125.989 67.4113 124.187 66.9349 122.592 65.7003C121.018 64.4791 120.1 62.8554 119.846 60.8357ZM122.077 60.5472C122.257 61.9428 122.88 63.0634 123.939 63.8819C125.017 64.7207 126.277 65.0427 127.71 64.8616C129.144 64.6804 130.283 64.043 131.093 62.9694C131.931 61.9093 132.259 60.668 132.078 59.2724C131.897 57.8767 131.274 56.7562 130.196 55.9242C129.137 55.1056 127.885 54.7768 126.444 54.9647C125.011 55.1459 123.872 55.7833 123.035 56.8434C122.217 57.9237 121.889 59.1583 122.07 60.5606L122.077 60.5472Z" fill="white"/>
<path id="Vector_3" d="M119.431 77.0525C119.793 75.053 120.791 73.4763 122.432 72.3155C124.087 71.1815 125.915 70.7991 127.912 71.1614C129.908 71.5237 131.482 72.5235 132.621 74.1606C133.773 75.8247 134.155 77.6497 133.793 79.6492C133.432 81.6487 132.434 83.2255 130.779 84.3594C129.138 85.5135 127.316 85.9027 125.319 85.5403C123.323 85.178 121.749 84.1783 120.596 82.5143C119.464 80.8771 119.076 79.0453 119.438 77.0458L119.431 77.0525ZM121.648 77.4551C121.4 78.844 121.662 80.0988 122.425 81.1992C123.202 82.3197 124.301 83.0108 125.728 83.2725C127.155 83.5274 128.428 83.2725 129.526 82.4874C130.645 81.7292 131.328 80.6422 131.583 79.26C131.831 77.8711 131.569 76.6164 130.792 75.4959C130.029 74.3955 128.93 73.7044 127.503 73.4494C126.076 73.1945 124.803 73.4494 123.691 74.2143C122.593 74.9994 121.903 76.0796 121.655 77.4685L121.648 77.4551Z" fill="white"/>
<path id="Vector_4" d="M112.545 96.2423L113.757 93.7664L122.212 91.7266L116.203 88.7743L117.221 86.6943L129.855 92.8941L128.837 94.9741L123.17 92.1963L126.486 99.785L125.273 102.261L121.622 94.122L112.552 96.2423H112.545Z" fill="white"/>
<path id="Vector_5" d="M100.887 109.004L103.54 110.4L107.908 106.3L106.689 103.556L108.524 101.838L114.413 115.62L112.39 117.519L99.0586 110.715L100.874 109.011L100.887 109.004ZM108.839 108.407L105.583 111.46L111.552 114.573L108.839 108.4V108.407Z" fill="white"/>
<path id="Vector_6" d="M91.5016 117.156C93.3037 117.975 94.5765 119.337 95.3201 121.269C96.0637 123.202 96.0235 125.074 95.2263 126.865C94.4358 128.677 93.0357 129.972 91.0662 130.73C88.6814 131.649 86.0822 131.267 84.2198 129.764L85.6802 127.952C86.8726 128.979 88.6144 129.261 90.2623 128.623C91.6691 128.08 92.6204 127.201 93.163 125.973C93.6855 124.758 93.6855 123.463 93.163 122.095C92.6338 120.726 91.7763 119.76 90.5705 119.209C89.3513 118.666 88.0517 118.646 86.6449 119.189C84.9969 119.827 83.8648 121.209 83.6906 122.766L81.4062 122.417C81.5804 121.249 82.0761 120.176 82.8666 119.203C83.6437 118.257 84.6419 117.552 85.841 117.089C87.8105 116.331 89.713 116.351 91.5016 117.149V117.156Z" fill="white"/>
<path id="Vector_7" d="M68.8126 120.733L70.0653 123.464L76.0274 122.887L76.7375 119.968L79.2363 119.727L75.5049 134.246L72.7449 134.515L66.334 120.981L68.8126 120.74V120.733ZM75.4714 125.121L71.03 125.551L73.8637 131.67L75.4714 125.121Z" fill="white"/>
<path id="Vector_8" d="M61.5987 122.498L55.918 121.76L56.1993 119.565L64.1711 120.599L62.3624 134.575L60.0713 134.28L61.5987 122.498Z" fill="white"/>
<path id="Vector_9" d="M50.9332 120.25L45.5137 118.398L46.2238 116.305L53.8338 118.901L49.2986 132.24L47.108 131.496L50.9332 120.257V120.25Z" fill="white"/>
<path id="Vector_10" d="M16.6076 93.5384C17.5722 92.9211 18.6039 92.7399 19.6891 93.0284C20.7743 93.3103 21.6251 93.941 22.2682 94.9407L25.5105 100.033L13.6466 107.609L10.6455 102.892C10.0292 101.926 9.82148 100.886 10.0292 99.8254C10.2234 98.7451 10.7861 97.9064 11.7173 97.316C12.7489 96.6584 13.8074 96.5578 14.906 96.9738C14.7921 95.5916 15.375 94.3368 16.6076 93.5451V93.5384ZM14.2294 104.489L17.3512 102.496L15.5893 99.7315C15.04 98.8659 13.9414 98.6378 13.0571 99.2014C12.1728 99.765 11.9183 100.859 12.4676 101.724L14.2294 104.489ZM20.4327 96.1082C19.8633 95.2091 18.6776 94.9608 17.7464 95.558C16.8152 96.1552 16.5406 97.3294 17.11 98.2285L19.1063 101.369L22.429 99.2484L20.4327 96.1082Z" fill="white"/>
<path id="Vector_11" d="M17.1708 82.7361C17.7536 84.6819 17.5728 86.5472 16.6349 88.3186C15.6703 90.0765 14.2166 91.2507 12.2739 91.8278C10.3312 92.4048 8.46884 92.2304 6.7204 91.2843C4.94516 90.3248 3.77284 88.8688 3.19673 86.9163C2.62061 84.9637 2.79479 83.1051 3.75944 81.3472C4.6973 79.5758 6.15098 78.4016 8.10039 77.8246C10.0498 77.2475 11.9054 77.422 13.6807 78.3815C15.4291 79.3276 16.6014 80.7836 17.1842 82.7361H17.1708ZM15.0138 83.3802C14.6118 82.0316 13.8079 81.0318 12.6356 80.3944C11.4365 79.7436 10.1436 79.6295 8.75689 80.0455C7.3702 80.4615 6.35195 81.2667 5.72225 82.4677C5.06575 83.6486 4.94516 84.9302 5.3471 86.2788C5.74904 87.6275 6.55292 88.6272 7.75204 89.2781C8.92437 89.9155 10.224 90.0296 11.6107 89.6136C12.9974 89.1976 14.0156 88.3924 14.6654 87.2048C15.2951 86.0104 15.4157 84.7289 15.0138 83.3802Z" fill="white"/>
<path id="Vector_12" d="M14.9725 66.6592C14.939 68.6922 14.2021 70.4099 12.7752 71.819C11.3215 73.2012 9.58646 73.8789 7.55667 73.8453C5.52687 73.8118 3.81193 73.0737 2.42524 71.6445C1.02515 70.1818 0.348549 68.4373 0.382044 66.4042C0.415539 64.3712 1.15243 62.6535 2.59941 61.2713C4.033 59.869 5.76804 59.1913 7.79783 59.2248C9.82763 59.2584 11.5426 59.9964 12.9494 61.4457C14.3294 62.8816 15.006 64.6194 14.9725 66.6525V66.6592ZM12.7216 66.6189C12.7484 65.2099 12.2862 64.0156 11.355 63.0494C10.4037 62.0697 9.21132 61.5598 7.76434 61.5397C6.31735 61.5128 5.10484 61.9758 4.14018 62.9286C3.16213 63.8545 2.6597 65.0354 2.63291 66.4445C2.60611 67.8535 3.06834 69.0479 4.0196 70.0342C4.95076 70.9937 6.14318 71.5036 7.59016 71.5237C9.03715 71.5506 10.2497 71.0876 11.2344 70.155C12.1991 69.2022 12.7015 68.028 12.7216 66.6189Z" fill="white"/>
<path id="Vector_13" d="M18.6584 46.5836L17.8679 49.2272L9.86261 52.6156L16.2736 54.548L15.6104 56.7622L2.13867 52.7028L2.80187 50.4886L8.84437 52.307L4.33594 45.3624L5.12642 42.7188L10.0502 50.1531L18.6584 46.5836Z" fill="white"/>
<path id="Vector_14" d="M28.1093 32.1112L25.2622 31.1584L21.6046 35.9089L23.2459 38.425L21.7118 40.4178L13.6797 27.7633L15.3745 25.5625L29.6233 30.1251L28.1026 32.1045L28.1093 32.1112ZM20.3519 33.9832L23.0717 30.4405L16.6808 28.3269L20.3519 33.9765V33.9832Z" fill="white"/>
<path id="Vector_15" d="M36.0554 22.556C34.1462 22.0394 32.6657 20.9054 31.6207 19.1139C30.5756 17.3224 30.3077 15.4773 30.8034 13.5717C31.2924 11.6527 32.458 10.1497 34.2802 9.08288C36.4841 7.7879 39.1101 7.74093 41.2002 8.92185L40.0547 10.9482C38.7149 10.1229 36.9464 10.1363 35.419 11.0287C34.1194 11.7936 33.3222 12.8202 32.9806 14.1152C32.659 15.3967 32.8734 16.6783 33.6103 17.9464C34.3539 19.2146 35.3587 20.0197 36.6382 20.3686C37.9311 20.7041 39.2173 20.5163 40.5169 19.7513C42.0443 18.859 42.9353 17.309 42.8549 15.7456L45.166 15.7188C45.1794 16.8997 44.8713 18.0404 44.2483 19.1273C43.632 20.1875 42.7611 21.0463 41.6491 21.6972C39.8269 22.764 37.9445 23.0525 36.0487 22.556H36.0554Z" fill="white"/>
<path id="Vector_16" d="M57.8538 15.3366L56.1723 12.8473L50.3844 14.3906L50.1633 17.3898L47.7383 18.0339L49.058 3.10479L51.7376 2.39355L60.2654 14.6992L57.8538 15.3433V15.3366ZM50.572 12.0958L54.8861 10.9485L51.1012 5.37267L50.5787 12.0958H50.572Z" fill="white"/>
<path id="Vector_17" d="M64.7128 12.4447L70.4404 12.2635L70.5074 14.4778L62.4753 14.726L62.0332 0.649002L64.3444 0.575195L64.7128 12.4447Z" fill="white"/>
<path id="Vector_18" d="M75.5984 12.9415L81.2456 13.8809L80.8839 16.0615L72.959 14.7397L75.2634 0.850586L77.5411 1.23304L75.5917 12.9482L75.5984 12.9415Z" fill="white"/>
</g>
<defs>
<clipPath id="clip0_2001_539">
<rect width="134" height="134" fill="white" transform="translate(0.382812 0.575195)"/>
</clipPath>
</defs>
</svg>
