<svg width="114" height="33" viewBox="0 0 114 33" fill="none" xmlns="http://www.w3.org/2000/svg">
<g id="Clip path group">
<mask id="mask0_94_462" style="mask-type:luminance" maskUnits="userSpaceOnUse" x="0" y="0" width="114" height="33">
<g id="clip0_3106_3801">
<path id="Vector" d="M113.627 0.53125H0.865234V32.5312H113.627V0.53125Z" fill="white"/>
</g>
</mask>
<g mask="url(#mask0_94_462)">
<g id="Group">
<path id="Vector_2" d="M35.3388 0.53125H30.2051V32.5312H35.3388V0.53125Z" fill="#E2E2E9"/>
<path id="Vector_3" d="M53.3068 22.3235C53.3068 27.2208 49.178 27.6112 47.9498 27.6112C44.8809 27.6112 44.3232 24.7466 44.3232 23.0186V10.7715H39.1895V22.993C39.1895 26.0266 40.1441 28.5303 41.818 30.1994C43.2961 31.6752 45.5117 32.4816 47.9117 32.4816C49.6131 32.4816 52.0237 31.953 53.3068 30.7843V32.5315H58.4405V10.7715H53.3068V22.3235Z" fill="#E2E2E9"/>
<path id="Vector_4" d="M68.7063 3.09082H63.5726V10.7708H59.7227V15.8908H63.5726V32.5308H68.7063V15.8908H72.5569V10.7708H68.7063V3.09082Z" fill="#E2E2E9"/>
<path id="Vector_5" d="M88.7258 26.0245C87.6081 27.0267 86.1315 27.5823 84.5125 27.5823C80.9414 27.5823 78.3197 24.9672 78.3197 21.3768C78.3197 17.7864 80.8584 15.2815 84.5125 15.2815C86.1033 15.2815 87.6081 15.8101 88.754 16.8123L89.5326 17.4805L92.994 14.0296L92.1277 13.2501C90.0911 11.4159 87.3871 10.3867 84.5109 10.3867C78.0934 10.3867 73.4336 15.005 73.4336 21.3499C73.4336 27.668 78.2054 32.4514 84.5109 32.4514C87.4412 32.4514 90.1734 31.4223 92.1841 29.5586L93.0214 28.7791L89.506 25.3307L88.7258 26.0245Z" fill="#E2E2E9"/>
<path id="Vector_6" d="M111.318 12.6682C109.839 11.1936 108.107 10.3873 105.707 10.3873C104.005 10.3873 102.077 10.9159 100.794 12.0832V0.53125H95.6602V32.5312H100.794V20.5441C100.794 15.6468 104.282 15.2577 105.51 15.2577C108.579 15.2577 108.494 18.1236 108.494 19.849V32.5312H113.628V19.8759C113.628 16.8423 112.993 14.3386 111.318 12.6682Z" fill="#E2E2E9"/>
<path id="Vector_7" d="M84.3413 17.7324C86.3924 17.7324 88.0541 19.3874 88.0541 21.4341C88.0541 23.4783 86.3924 25.1359 84.3413 25.1359C82.2918 25.1359 80.6309 23.4783 80.6309 21.4341C80.6324 19.3887 82.2933 17.7324 84.3413 17.7324Z" fill="#E2E2E9"/>
<path id="Vector_8" d="M23.0182 24.4946C21.0661 26.4978 18.4146 27.5832 15.6245 27.5832C9.90561 27.5832 5.74737 23.1032 5.74737 16.9541C5.74737 10.7768 9.90561 6.29684 15.6245 6.29684C18.3877 6.29684 21.0097 7.38103 22.9913 9.35733L23.7716 10.1368L27.2035 6.71413L26.4501 5.93463C23.6047 3.01234 19.7545 1.42773 15.6245 1.42773C7.19887 1.42773 0.865234 8.10545 0.865234 16.981C0.865234 25.8296 7.22714 32.4805 15.6245 32.4805C19.7827 32.4805 23.633 30.8677 26.4783 27.9454L27.2317 27.1659L23.8281 23.6882L23.0182 24.4946Z" fill="#E2E2E9"/>
</g>
</g>
</g>
</svg>
