<svg width="49" height="36" viewBox="0 0 49 36" fill="none" xmlns="http://www.w3.org/2000/svg">
<g id="Group 1410104259">
<path id="Union" d="M24.1746 1.19966H23.3084V1.20009H10.0066H9.14035V2.06635V3.65784C9.14035 7.12039 11.9473 9.92736 15.4099 9.92736H23.3084V9.92785H24.1746H25.7661C26.725 9.92785 27.5019 10.705 27.5019 11.6633C27.5019 12.622 26.7248 13.399 25.7661 13.399L24.1746 13.399L23.3084 13.399V13.4H13.1892H13.1892L11.5977 13.4H11.5977C5.81853 13.4 1.13374 18.0848 1.13374 23.8639C1.13374 29.6428 5.8186 34.3275 11.5977 34.3275H11.6798C11.7061 34.3283 11.7326 34.3287 11.7593 34.3287L35.3638 34.3286H36.2301V33.4624V31.8709C36.2301 28.4083 33.4231 25.6014 29.9605 25.6014L14.0554 25.6014V25.5993H13.1892H11.5977C10.6388 25.5993 9.86193 24.8222 9.86193 23.8639C9.86193 22.9148 10.6235 22.1438 11.5688 22.1284C11.6017 22.1297 11.6348 22.1303 11.668 22.1303H25.9986C26.0925 22.1303 26.1856 22.1251 26.2776 22.1149C31.82 21.8474 36.2301 17.271 36.2301 11.6633C36.2301 5.88439 31.5452 1.19966 25.7661 1.19966H24.1746Z" fill="white" stroke="white" stroke-width="1.73251"/>
<path id="Union_2" d="M35.9813 1.19966H35.115V1.20009H21.8132H20.947V2.06635V3.65784C20.947 7.12039 23.7539 9.92736 27.2165 9.92736H35.115V9.92785H35.9813H37.5728C38.5316 9.92785 39.3085 10.705 39.3085 11.6633C39.3085 12.622 38.5315 13.399 37.5728 13.399L35.9813 13.399L35.115 13.399V13.4H25.8621V13.4H24.9958H23.4043C17.6252 13.4 12.9404 18.0848 12.9404 23.8639C12.9404 29.6428 17.6252 34.3275 23.4043 34.3275H23.4864C23.5128 34.3283 23.5393 34.3287 23.5659 34.3287L47.1704 34.3286L48.0367 34.3286V33.4624V31.8709C48.0367 28.4083 45.2297 25.6014 41.7672 25.6014L25.8621 25.6014V25.5993H24.9958H23.4043C22.4455 25.5993 21.6686 24.8222 21.6686 23.8639C21.6686 22.9148 22.4301 22.1438 23.3754 22.1284C23.4084 22.1297 23.4415 22.1303 23.4747 22.1303H37.8052C37.8991 22.1303 37.9922 22.1251 38.0842 22.1149C43.6266 21.8474 48.0367 17.271 48.0367 11.6633C48.0367 5.88439 43.3518 1.19966 37.5728 1.19966H35.9813Z" fill="white" stroke="white" stroke-width="1.73251"/>
<path id="Union_3" fill-rule="evenodd" clip-rule="evenodd" d="M31.5361 3.6574C31.5474 3.6574 31.5586 3.65743 31.5699 3.65747C31.5586 3.65743 31.5474 3.6574 31.5361 3.6574ZM17.5293 31.8709C17.5206 31.8709 17.5121 31.8705 17.5036 31.8698C17.5121 31.8705 17.5206 31.8709 17.5293 31.8709ZM29.9447 2.06592V2.06635H15.7766V3.65784C15.7766 6.64198 18.1957 9.0611 21.1799 9.0611H29.9447V9.06159H31.5361C32.9734 9.06159 34.1381 10.2265 34.1381 11.6633C34.1381 13.1004 32.9733 14.2653 31.5361 14.2653L29.9447 14.2653V14.2663H18.9592V14.2662H17.3677C12.067 14.2662 7.77002 18.5632 7.77002 23.8639C7.77002 29.1643 12.067 33.4613 17.3677 33.4613H17.4634C17.4853 33.462 17.5073 33.4624 17.5293 33.4624L41.1338 33.4624V31.8709C41.1338 28.8868 38.7147 26.4676 35.7305 26.4676L18.9592 26.4677V26.4656H17.3677C15.9305 26.4656 14.7657 25.3006 14.7657 23.8639C14.7657 22.4315 15.9228 21.2697 17.3533 21.2619C17.3814 21.2633 17.4096 21.264 17.4381 21.264H31.7686C31.8388 21.264 31.9082 21.2596 31.9766 21.251C37.0734 21.0203 41.1338 16.8164 41.1338 11.6633C41.1338 6.36283 36.8368 2.06592 31.5361 2.06592H29.9447Z" fill="black"/>
</g>
</svg>
