<svg width="171" height="171" viewBox="0 0 171 171" fill="none" xmlns="http://www.w3.org/2000/svg">
<g filter="url(#filter0_b_2038_647)">
<rect x="0.789062" y="0.884766" width="169.54" height="169.54" rx="84.77" fill="white"/>
<rect x="1.28906" y="1.38477" width="168.54" height="168.54" rx="84.27" stroke="white" stroke-opacity="0.5"/>
<path d="M61.2402 109.636L107.298 63.5791C107.298 63.5791 95.9408 74.9358 61.2402 63.5791" stroke="black" stroke-width="2"/>
<path d="M61.2395 109.636L107.297 63.5784C107.297 63.5784 95.9401 74.9351 107.297 109.636" stroke="black" stroke-width="2"/>
<g clip-path="url(#clip0_2038_647)">
<path d="M140.326 68.5584C139.274 69.0079 138.229 69.0214 137.204 68.5584C136.179 68.1021 135.442 67.3439 134.973 66.2502L132.602 60.7013L145.531 55.1523L147.728 60.2987C148.177 61.3521 148.217 62.4123 147.842 63.4254C147.473 64.4587 146.783 65.1901 145.765 65.6262C144.64 66.1093 143.581 66.0355 142.563 65.4451C142.456 66.8273 141.679 67.9746 140.326 68.5517V68.5584ZM136.969 65.3981C137.391 66.3777 138.517 66.8139 139.528 66.3777C140.547 65.9416 141.009 64.8211 140.587 63.8414L139.12 60.4195L135.502 61.9694L136.969 65.3914V65.3981ZM144.445 58.1382L141.049 59.5942L142.342 62.6069C142.744 63.5529 143.796 63.9555 144.754 63.5462C145.711 63.1369 146.147 62.0969 145.738 61.1508L144.445 58.1382Z" fill="black"/>
<path d="M138.022 79.1463C137.767 77.1334 138.243 75.3217 139.455 73.7248C140.695 72.148 142.316 71.2288 144.332 70.9738C146.348 70.7189 148.15 71.1952 149.725 72.4164C151.319 73.651 152.237 75.2815 152.491 77.2944C152.746 79.3073 152.27 81.1189 151.031 82.6957C149.819 84.2926 148.191 85.2119 146.181 85.4668C144.165 85.7218 142.363 85.2454 140.768 84.0108C139.194 82.7897 138.276 81.1659 138.022 79.1463ZM140.252 78.8578C140.433 80.2534 141.056 81.3739 142.115 82.1925C143.193 83.0312 144.453 83.3533 145.886 83.1721C147.32 82.9909 148.459 82.3535 149.269 81.28C150.107 80.2198 150.435 78.9785 150.254 77.5829C150.073 76.1873 149.45 75.0668 148.372 74.2348C147.313 73.4162 146.06 73.0874 144.62 73.2753C143.187 73.4564 142.048 74.0938 141.21 75.154C140.393 76.2343 140.065 77.4688 140.246 78.8712L140.252 78.8578Z" fill="black"/>
<path d="M137.607 95.3633C137.968 93.3638 138.967 91.787 140.608 90.6263C142.262 89.4923 144.091 89.1099 146.088 89.4722C148.084 89.8345 149.658 90.8343 150.797 92.4714C151.949 94.1355 152.331 95.9605 151.969 97.96C151.608 99.9595 150.609 101.536 148.955 102.67C147.313 103.824 145.491 104.213 143.495 103.851C141.499 103.489 139.924 102.489 138.772 100.825C137.64 99.1879 137.252 97.3561 137.613 95.3566L137.607 95.3633ZM139.824 95.7659C139.576 97.1548 139.837 98.4096 140.601 99.5099C141.378 100.63 142.477 101.322 143.904 101.583C145.331 101.838 146.603 101.583 147.702 100.798C148.821 100.04 149.504 98.953 149.759 97.5708C150.006 96.1819 149.745 94.9272 148.968 93.8067C148.204 92.7063 147.106 92.0152 145.679 91.7602C144.252 91.5052 142.979 91.7602 141.867 92.5251C140.769 93.3102 140.079 94.3904 139.831 95.7793L139.824 95.7659Z" fill="black"/>
<path d="M130.721 114.553L131.933 112.077L140.387 110.037L134.378 107.085L135.397 105.005L148.031 111.205L147.013 113.285L141.345 110.507L144.661 118.096L143.449 120.571L139.798 112.433L130.727 114.553H130.721Z" fill="black"/>
<path d="M119.063 127.314L121.716 128.71L126.084 124.61L124.865 121.866L126.7 120.148L132.588 133.93L130.565 135.829L117.234 129.025L119.05 127.321L119.063 127.314ZM127.015 126.717L123.759 129.77L129.728 132.884L127.015 126.711V126.717Z" fill="black"/>
<path d="M109.677 135.467C111.479 136.285 112.752 137.647 113.496 139.58C114.239 141.512 114.199 143.384 113.402 145.176C112.612 146.987 111.211 148.282 109.242 149.041C106.857 149.96 104.258 149.577 102.396 148.074L103.856 146.263C105.048 147.289 106.79 147.571 108.438 146.934C109.845 146.39 110.796 145.511 111.339 144.283C111.861 143.069 111.861 141.774 111.339 140.405C110.81 139.036 109.952 138.07 108.746 137.52C107.527 136.976 106.227 136.956 104.821 137.5C103.173 138.137 102.041 139.519 101.866 141.076L99.582 140.727C99.7562 139.56 100.252 138.486 101.042 137.513C101.819 136.567 102.818 135.863 104.017 135.4C105.986 134.641 107.889 134.662 109.677 135.46V135.467Z" fill="black"/>
<path d="M86.9884 139.044L88.2411 141.774L94.2032 141.197L94.9133 138.279L97.412 138.037L93.6807 152.557L90.9207 152.825L84.5098 139.292L86.9884 139.05V139.044ZM93.6472 143.432L89.2058 143.861L92.0394 149.98L93.6472 143.432Z" fill="black"/>
<path d="M79.7745 140.808L74.0938 140.07L74.3751 137.876L82.3469 138.909L80.5382 152.886L78.2471 152.59L79.7745 140.808Z" fill="black"/>
<path d="M69.1089 138.561L63.6895 136.709L64.3995 134.615L72.0096 137.212L67.4744 150.551L65.2838 149.806L69.1089 138.567V138.561Z" fill="black"/>
<path d="M34.7833 111.849C35.748 111.232 36.7796 111.05 37.8649 111.339C38.9501 111.621 39.8009 112.252 40.444 113.251L43.6863 118.344L31.8224 125.919L28.8212 121.202C28.2049 120.236 27.9973 119.196 28.2049 118.136C28.3992 117.056 28.9619 116.217 29.8931 115.627C30.9247 114.969 31.9832 114.868 33.0818 115.284C32.9679 113.902 33.5507 112.647 34.7833 111.856V111.849ZM32.4052 122.799L35.5269 120.806L33.7651 118.042C33.2158 117.176 32.1171 116.948 31.2329 117.512C30.3486 118.076 30.0941 119.169 30.6434 120.035L32.4052 122.799ZM38.6085 114.419C38.0391 113.52 36.8533 113.271 35.9222 113.869C34.991 114.466 34.7164 115.64 35.2858 116.539L37.2821 119.679L40.6048 117.559L38.6085 114.419Z" fill="black"/>
<path d="M35.3466 101.047C35.9294 102.992 35.7486 104.858 34.8107 106.629C33.846 108.387 32.3924 109.561 30.4496 110.138C28.5069 110.715 26.6446 110.541 24.8962 109.595C23.1209 108.635 21.9486 107.179 21.3725 105.227C20.7964 103.274 20.9706 101.416 21.9352 99.6577C22.8731 97.8864 24.3268 96.7122 26.2762 96.1351C28.2256 95.5581 30.0812 95.7325 31.8564 96.692C33.6049 97.6381 34.7772 99.0941 35.36 101.047H35.3466ZM33.1895 101.691C32.7876 100.342 31.9837 99.3424 30.8114 98.705C29.6123 98.0541 28.3194 97.94 26.9327 98.356C25.546 98.7721 24.5277 99.5772 23.898 100.778C23.2415 101.959 23.1209 103.241 23.5229 104.589C23.9248 105.938 24.7287 106.938 25.9278 107.589C27.1001 108.226 28.3998 108.34 29.7864 107.924C31.1731 107.508 32.1914 106.703 32.8412 105.515C33.4709 104.321 33.5915 103.039 33.1895 101.691Z" fill="black"/>
<path d="M33.1482 84.9697C33.1147 87.0028 32.3779 88.7205 30.951 90.1295C29.4973 91.5117 27.7622 92.1894 25.7324 92.1559C23.7027 92.1223 21.9877 91.3842 20.601 89.9551C19.2009 88.4923 18.5243 86.7478 18.5578 84.7148C18.5913 82.6817 19.3282 80.964 20.7752 79.5818C22.2088 78.1795 23.9438 77.5018 25.9736 77.5354C28.0034 77.5689 29.7184 78.307 31.1251 79.7563C32.5051 81.1922 33.1817 82.93 33.1482 84.963V84.9697ZM30.8974 84.9295C30.9242 83.5204 30.4619 82.3261 29.5308 81.3599C28.5795 80.3803 27.3871 79.8703 25.9401 79.8502C24.4931 79.8234 23.2806 80.2864 22.316 81.2391C21.3379 82.1651 20.8355 83.346 20.8087 84.755C20.7819 86.1641 21.2441 87.3584 22.1954 88.3447C23.1265 89.3042 24.319 89.8142 25.7659 89.8343C27.2129 89.8611 28.4254 89.3982 29.4102 88.4655C30.3749 87.5127 30.8773 86.3385 30.8974 84.9295Z" fill="black"/>
<path d="M36.8342 64.8941L36.0437 67.5377L28.0384 70.9261L34.4493 72.8585L33.7861 75.0728L20.3145 71.0134L20.9777 68.7992L27.0201 70.6175L22.5117 63.6729L23.3022 61.0293L28.226 68.4637L36.8342 64.8941Z" fill="black"/>
<path d="M46.2851 50.4217L43.438 49.469L39.7804 54.2194L41.4216 56.7356L39.8876 58.7284L31.8555 46.0738L33.5503 43.873L47.7991 48.4357L46.2784 50.415L46.2851 50.4217ZM38.5277 52.2938L41.2475 48.751L34.8566 46.6375L38.5277 52.287V52.2938Z" fill="black"/>
<path d="M54.2312 40.8666C52.322 40.3499 50.8415 39.216 49.7964 37.4245C48.7514 35.633 48.4834 33.7878 48.9792 31.8822C49.4682 29.9633 50.6338 28.4603 52.4559 27.3934C54.6599 26.0984 57.2859 26.0515 59.376 27.2324L58.2305 29.2587C56.8907 28.4334 55.1221 28.4469 53.5948 29.3392C52.2952 30.1042 51.498 31.1307 51.1563 32.4257C50.8348 33.7073 51.0492 34.9888 51.786 36.257C52.5296 37.5251 53.5345 38.3303 54.814 38.6792C56.1069 39.0147 57.3931 38.8268 58.6927 38.0619C60.2201 37.1695 61.111 35.6196 61.0307 34.0562L63.3418 34.0293C63.3552 35.2103 63.0471 36.3509 62.4241 37.4379C61.8077 38.498 60.9369 39.3569 59.8248 40.0077C58.0027 41.0746 56.1203 41.3631 54.2245 40.8666H54.2312Z" fill="black"/>
<path d="M76.0295 33.6472L74.3481 31.1579L68.5602 32.7011L68.3391 35.7003L65.9141 36.3445L67.2338 21.4153L69.9134 20.7041L78.4412 33.0097L76.0295 33.6539V33.6472ZM68.7477 30.4064L73.0619 29.259L69.277 23.6832L68.7544 30.4064H68.7477Z" fill="black"/>
<path d="M82.8886 30.7553L88.6162 30.5741L88.6832 32.7883L80.6511 33.0366L80.209 18.9595L82.5201 18.8857L82.8886 30.7553Z" fill="black"/>
<path d="M93.7742 31.2521L99.4214 32.1914L99.0597 34.3721L91.1348 33.0503L93.4392 19.1611L95.7169 19.5436L93.7675 31.2588L93.7742 31.2521Z" fill="black"/>
</g>
</g>
<defs>
<filter id="filter0_b_2038_647" x="-27.2109" y="-27.1152" width="225.54" height="225.54" filterUnits="userSpaceOnUse" color-interpolation-filters="sRGB">
<feFlood flood-opacity="0" result="BackgroundImageFix"/>
<feGaussianBlur in="BackgroundImageFix" stdDeviation="14"/>
<feComposite in2="SourceAlpha" operator="in" result="effect1_backgroundBlur_2038_647"/>
<feBlend mode="normal" in="SourceGraphic" in2="effect1_backgroundBlur_2038_647" result="shape"/>
</filter>
<clipPath id="clip0_2038_647">
<rect width="134" height="134" fill="white" transform="translate(18.5586 18.8857)"/>
</clipPath>
</defs>
</svg>
