<svg width="85" height="31" viewBox="0 0 85 31" fill="none" xmlns="http://www.w3.org/2000/svg">
<g id="Frame 1410104690">
<g id="Group 1410104238">
<path id="Vector" d="M0.0663695 18.4145C0.0663695 16.9269 0.106879 15.438 0.0570722 13.9524C-0.016642 11.771 0.119497 9.59219 0.0690258 7.41209C0.0663695 7.29105 0.0676976 7.16934 0.0710181 7.0483C0.0876204 6.30616 0.185242 6.19372 0.88453 5.90798C2.72539 5.15592 4.55895 4.38535 6.39782 3.62932C8.09457 2.93216 9.79597 2.24691 11.4934 1.54976C12.4543 1.15488 13.41 0.748754 14.3669 0.345938C14.7415 0.188515 15.1313 0.169995 15.4985 0.318157C17.1375 0.980258 18.7698 1.65757 20.4028 2.33422C22.0153 3.00294 23.6237 3.6829 25.2381 4.34698C26.5556 4.88936 27.8759 5.42513 29.2027 5.9437C29.6032 6.10046 29.7951 6.33461 29.8137 6.77446C29.8934 8.71248 29.8615 10.6512 29.8588 12.5892C29.8549 14.9571 29.7918 17.3264 29.821 19.6937C29.8369 20.9928 29.7918 22.2905 29.8024 23.5889C29.8077 24.1928 29.7121 24.2993 29.1615 24.5202C27.0796 25.3569 24.9984 26.1963 22.9211 27.0449C21.0902 27.793 19.2646 28.5537 17.4383 29.311C16.8566 29.5524 16.2689 29.7833 15.7004 30.0525C15.2017 30.2886 14.7474 30.2569 14.2421 30.0426C12.105 29.1384 9.95403 28.2659 7.80835 27.3803C5.8267 26.5621 3.84638 25.7412 1.86473 24.9237C1.43573 24.7464 1.00473 24.5738 0.571743 24.4071C0.21247 24.2695 0.0690258 24.0069 0.0716822 23.6359C0.0763308 22.8865 0.0716822 22.1377 0.0716822 21.3883C0.0716822 20.3968 0.0716822 19.4053 0.0716822 18.4131H0.0676976L0.0663695 18.4145ZM0.855974 14.9366H0.857966C0.857966 17.4038 0.857966 19.871 0.85863 22.3381C0.85863 22.481 0.855974 22.6258 0.877225 22.7667C0.927032 23.0968 1.10102 23.1854 1.41713 23.0855C2.45245 22.7581 3.42402 22.2753 4.42812 21.8731C5.70982 21.3599 6.98023 20.8181 8.25595 20.2896C10.0417 19.5502 11.8307 18.8173 13.6132 18.0685C14.1697 17.8344 14.1657 17.6432 13.7068 17.2305C12.959 16.5591 12.1894 15.9169 11.3924 15.3044C11.0597 15.0491 10.7456 14.7706 10.4176 14.5087C10.3233 14.4333 10.209 14.3638 10.0815 14.4286C9.95336 14.4935 9.95071 14.6257 9.9527 14.7468C9.95535 14.9009 9.96266 15.055 9.97993 15.2078C10.0045 15.4267 10.0337 15.647 9.72691 15.6788C9.44268 15.7085 9.34505 15.5365 9.30189 15.2852C9.20028 14.6959 9.23814 14.0986 9.19099 13.5059C9.16774 13.2169 9.30255 12.986 9.61667 12.9225C10.2469 12.7949 10.8804 12.6996 11.5273 12.736C11.7238 12.7473 11.929 12.7803 11.9503 13.0178C11.9722 13.2612 11.7849 13.369 11.5764 13.4054C11.3705 13.4418 11.1567 13.4318 10.9502 13.4649C10.7137 13.5026 10.648 13.6547 10.7934 13.8413C10.9143 13.9967 11.0617 14.135 11.2112 14.2646C11.9881 14.9346 12.803 15.5597 13.5527 16.2621C13.7287 16.4275 13.9313 16.5671 14.1305 16.7053C14.3563 16.8614 14.5323 16.7853 14.5887 16.5142C14.6067 16.4288 14.6086 16.3389 14.6086 16.2509C14.6086 11.4819 14.61 6.71229 14.6067 1.94331C14.6067 1.30833 14.43 1.19655 13.8297 1.44194C12.4696 1.99689 11.1135 2.56044 9.7548 3.11869C7.00546 4.24843 4.25944 5.38544 1.50413 6.4993C1.01934 6.69509 0.843356 6.98546 0.848005 7.50138C0.867928 9.97913 0.857302 12.4575 0.857302 14.936L0.855974 14.9366ZM29.0852 15.0034H29.0799C29.0799 14.2104 29.0799 13.4173 29.0799 12.6242C29.0799 10.9058 29.0712 9.18739 29.0865 7.46897C29.0911 6.97091 28.8952 6.65606 28.4324 6.47946C27.9994 6.3141 27.5757 6.12493 27.146 5.94965C24.7726 4.98395 22.3978 4.01957 20.0243 3.05321C18.7659 2.54125 17.5087 2.02467 16.2503 1.51338C15.4567 1.1906 15.3883 1.23888 15.3883 2.09214C15.3883 6.52047 15.3883 10.9488 15.387 15.3771C15.387 15.7403 15.3584 16.1034 15.3604 16.4665C15.3617 16.6273 15.3617 16.8178 15.5443 16.8965C15.7124 16.9692 15.8399 16.8442 15.9587 16.7496C16.7205 16.1471 17.4822 15.5438 18.2379 14.934C18.5899 14.6502 18.9412 14.3632 19.2706 14.0543C19.499 13.84 19.4432 13.6759 19.1411 13.5807C18.983 13.5311 18.8203 13.4953 18.6603 13.453C18.4717 13.4034 18.2704 13.3412 18.303 13.0985C18.3362 12.8498 18.5394 12.7969 18.7552 12.82C19.3157 12.8802 19.8762 12.9417 20.4347 13.0198C20.8531 13.078 20.9593 13.2149 20.9733 13.6316C20.9952 14.2758 20.8192 14.8983 20.7575 15.5332C20.7402 15.7092 20.6187 15.8064 20.436 15.7998C20.2521 15.7932 20.1478 15.6847 20.1339 15.5094C20.1179 15.3011 20.1252 15.0914 20.1186 14.8824C20.1146 14.7613 20.116 14.6284 19.9878 14.5636C19.8576 14.4981 19.754 14.5801 19.6577 14.6555C19.3974 14.8606 19.1424 15.0722 18.8794 15.274C17.959 15.979 17.0379 16.6835 16.1792 17.4633C15.8671 17.7471 15.9016 17.8972 16.2861 18.0599C17.0797 18.3959 17.876 18.7247 18.6729 19.0528C21.9223 20.3915 25.1717 21.7289 28.4211 23.0677C28.8534 23.2456 29.0533 23.1285 29.0805 22.6702C29.0872 22.5604 29.0858 22.4499 29.0858 22.3401C29.0858 19.8948 29.0858 17.4488 29.0858 15.0034H29.0852ZM15.3358 20.8949H15.3318C15.3318 21.4458 15.3265 21.9968 15.3345 22.5478C15.3372 22.7257 15.2721 22.9572 15.4945 23.0445C15.6984 23.1239 15.8027 22.9195 15.9302 22.8077C16.0378 22.7132 16.1341 22.606 16.2397 22.5088C16.3818 22.3778 16.5325 22.3017 16.7038 22.4658C16.8772 22.6318 16.8526 22.7991 16.6965 22.9552C16.2523 23.4011 15.8087 23.8475 15.3551 24.2841C15.128 24.5023 14.8703 24.499 14.6445 24.2814C14.1909 23.8449 13.7467 23.3997 13.303 22.9533C13.1742 22.8236 13.1198 22.6688 13.2685 22.5154C13.4186 22.3599 13.5879 22.3752 13.7433 22.5035C13.8795 22.6153 14.001 22.7449 14.1312 22.8646C14.2308 22.9559 14.3384 23.0445 14.4851 22.9923C14.6359 22.9387 14.6591 22.7985 14.6598 22.6649C14.6618 21.4862 14.6697 20.3068 14.6531 19.1282C14.6478 18.7406 14.4679 18.6433 14.1059 18.769C12.8734 19.1969 11.688 19.7407 10.4807 20.2321C9.00637 20.832 7.54205 21.4558 6.06644 22.0524C4.75486 22.5829 3.44593 23.1166 2.15693 23.698C1.90856 23.8098 1.88996 23.9838 2.10911 24.1386C2.18017 24.1888 2.26518 24.2212 2.34686 24.255C4.08014 24.9799 5.81275 25.7062 7.54736 26.4278C8.78191 26.9411 10.0184 27.4484 11.255 27.9577C12.3587 28.4121 13.4657 28.8579 14.5641 29.3236C14.8198 29.4321 15.045 29.44 15.2966 29.3375C16.9343 28.6701 18.5773 28.0139 20.2136 27.3419C22.5339 26.3888 24.8496 25.4251 27.1659 24.4627C27.4004 24.3654 27.6375 24.2656 27.8526 24.1339C28.0877 23.9897 28.0698 23.8111 27.8201 23.6994C27.1547 23.4017 26.4912 23.0981 25.8159 22.8223C23.8415 22.0153 21.8625 21.219 19.8842 20.4219C18.5626 19.8895 17.2697 19.2876 15.9295 18.7994C15.4779 18.6347 15.3431 18.726 15.3378 19.2102C15.3312 19.7717 15.3365 20.334 15.3365 20.8962L15.3358 20.8949Z" fill="white"/>
<path id="Vector_2" d="M79.8849 24.891C79.1139 24.848 78.3429 24.9354 77.5719 24.7654C76.5419 24.5385 75.7104 23.6819 75.5458 22.6534C75.3804 21.6215 75.4455 20.5871 75.4355 19.5532C75.4322 19.1848 75.5657 19.0452 75.9269 19.0274C76.6017 18.9937 77.2744 19.0439 77.9471 19.0902C78.2101 19.1081 78.3004 19.3032 78.3197 19.5241C78.3442 19.8092 78.3402 20.0963 78.3469 20.382C78.3502 20.5361 78.3456 20.6909 78.3522 20.8444C78.3881 21.7128 78.6749 22.0111 79.5383 22.0594C79.958 22.0826 80.379 22.0832 80.7941 21.9992C81.1746 21.9218 81.3824 21.6725 81.4708 21.3113C81.4993 21.1943 81.5299 21.0719 81.5279 20.9528C81.5113 20.1062 81.6348 19.2622 81.5591 18.4122C81.5259 18.0352 81.3612 17.8289 81.0232 17.7091C79.95 17.3301 78.8782 16.9505 77.7897 16.6164C77.2405 16.4478 76.69 16.2798 76.1467 16.0932C75.6215 15.9127 75.4481 15.6712 75.4375 15.1077C75.4242 14.4138 75.4309 13.7193 75.4309 13.0255C75.4309 12.0227 75.4269 11.0207 75.4362 10.0179C75.4408 9.49936 75.5026 8.98277 75.6832 8.49331C76.0551 7.48858 76.8049 6.8999 77.8528 6.7868C79.1949 6.64194 80.5503 6.63797 81.8931 6.79539C82.9849 6.92371 83.8409 7.43765 84.2221 8.53961C84.3709 8.97021 84.4253 9.42197 84.4399 9.87241C84.4625 10.5768 84.4565 11.2826 84.4505 11.987C84.4466 12.4348 84.3237 12.5658 83.8794 12.5757C83.2824 12.5896 82.6847 12.579 82.0871 12.579C81.7822 12.579 81.6308 12.4395 81.5943 12.1259C81.5385 11.653 81.5511 11.1801 81.5432 10.7071C81.5285 9.84331 81.2012 9.50796 80.3352 9.48216C80.0038 9.47224 79.6704 9.47092 79.3397 9.49208C78.7878 9.52714 78.4153 9.85124 78.3754 10.4009C78.3037 11.401 78.327 12.4044 78.3681 13.4058C78.3841 13.7914 78.6776 13.9363 78.9997 14.0368C79.8862 14.312 80.7761 14.5779 81.6587 14.8656C82.3939 15.1051 83.1204 15.3696 83.8515 15.623C84.2022 15.7447 84.426 15.9947 84.426 16.3565C84.426 18.4473 84.592 20.5434 84.333 22.6269C84.1916 23.7666 83.4225 24.4816 82.2976 24.7515C81.496 24.9433 80.6905 24.852 79.8863 24.8917L79.8849 24.891Z" fill="white"/>
<path id="Vector_3" d="M41.9537 6.71265C42.374 6.71265 42.7944 6.70802 43.2148 6.71398C43.6989 6.72059 43.8264 6.83766 43.9293 7.31589C44.1651 8.41387 44.4015 9.5112 44.6446 10.6079C45.0404 12.3911 45.4853 14.1651 45.8253 15.9589C46.0863 17.3327 46.4316 18.6873 46.6893 20.0612C46.8633 20.9905 47.1123 21.9059 47.3189 22.8299C47.4364 23.3558 47.542 23.8849 47.6396 24.4154C47.6934 24.7091 47.5739 24.8665 47.2711 24.8731C46.6076 24.8877 45.9435 24.8824 45.2801 24.8764C44.9786 24.8738 44.8358 24.6833 44.7568 24.4114C44.5423 23.6693 44.4493 22.9027 44.2992 22.148C44.108 21.1889 44.0994 21.175 43.1198 21.175C42.2346 21.175 41.3494 21.1744 40.4641 21.179C39.9235 21.1823 39.7814 21.3086 39.6871 21.8298C39.5331 22.6857 39.3743 23.5403 39.2196 24.3962C39.1652 24.6965 38.9985 24.8751 38.6837 24.8777C38.009 24.8824 37.3336 24.889 36.6595 24.8738C36.3348 24.8665 36.2272 24.7018 36.3049 24.3896C36.637 23.0542 36.8774 21.7002 37.1682 20.3562C37.667 18.0543 38.1664 15.7532 38.6624 13.4507C39.0888 11.4724 39.5098 9.49268 39.9348 7.51432C39.9647 7.37475 40.0066 7.23717 40.0477 7.10026C40.1234 6.84825 40.2901 6.71596 40.5604 6.71662C41.0253 6.71861 41.4895 6.71662 41.9543 6.71662C41.9543 6.7153 41.9543 6.71398 41.9543 6.71331L41.9537 6.71265ZM41.9703 18.7958V18.7991C42.2685 18.7991 42.5666 18.7998 42.8655 18.7991C43.422 18.7971 43.5548 18.6536 43.4738 18.0993C43.4054 17.6317 43.3131 17.168 43.2281 16.703C42.9093 14.9509 42.5932 13.1987 42.2658 11.4486C42.2279 11.2448 42.1987 10.9426 41.9198 10.9637C41.6741 10.9816 41.6787 11.2673 41.6449 11.4691C41.5658 11.946 41.514 12.4281 41.4098 12.8991C41.1554 14.048 40.9144 15.1996 40.7331 16.3611C40.6301 17.0212 40.4296 17.6681 40.4336 18.3454C40.4356 18.643 40.5744 18.7958 40.8765 18.7958C41.2411 18.7958 41.6057 18.7958 41.9703 18.7958Z" fill="white"/>
<path id="Vector_4" d="M61.1441 24.8848C60.8897 24.8848 60.6334 24.8669 60.381 24.8887C59.8816 24.9311 59.5881 24.6896 59.4188 24.2504C59.1259 23.4898 58.8364 22.7278 58.5382 21.9691C58.2287 21.1807 57.9106 20.3956 57.5958 19.6091C57.5381 19.4649 57.4843 19.3042 57.2917 19.3049C57.0971 19.3062 56.9995 19.455 56.9344 19.6085C56.7265 20.0946 56.5233 20.5828 56.3307 21.0749C55.921 22.1213 55.5245 23.1723 55.1135 24.218C54.881 24.81 54.7622 24.8834 54.126 24.8854C53.5396 24.8874 52.9532 24.892 52.3668 24.8834C51.9112 24.8768 51.795 24.7148 51.9637 24.3047C52.4903 23.0215 53.0302 21.7436 53.5602 20.4611C54.1705 18.9854 54.7794 17.5097 55.3798 16.0301C55.5 15.7344 55.4787 15.4222 55.3559 15.1266C54.3777 12.7665 53.3961 10.4085 52.4186 8.0485C52.2964 7.7535 52.1862 7.45387 52.0799 7.15291C51.9929 6.90686 52.1098 6.74679 52.3502 6.7329C53.1006 6.68991 53.8544 6.67271 54.6034 6.74216C54.9315 6.77259 55.071 7.04907 55.1759 7.32489C55.5551 8.32366 55.921 9.32773 56.3088 10.3232C56.52 10.8662 56.7617 11.3974 56.9995 11.9298C57.0619 12.0694 57.1516 12.2169 57.3395 12.197C57.5122 12.1792 57.5507 12.0238 57.6025 11.8895C58.2035 10.3397 58.8085 8.7913 59.4035 7.23956C59.5443 6.8718 59.7867 6.70049 60.1838 6.70843C60.7695 6.71967 61.3566 6.70578 61.9423 6.71174C62.457 6.71703 62.552 6.82616 62.3647 7.31364C62.0094 8.23834 61.6209 9.15112 61.2364 10.0646C60.5411 11.7188 59.8391 13.3711 59.1379 15.0234C58.9831 15.3885 58.9845 15.7437 59.1385 16.1114C60.1539 18.5277 61.1653 20.9459 62.1754 23.3648C62.3029 23.6697 62.4284 23.9766 62.5281 24.2908C62.6629 24.7168 62.5493 24.8689 62.107 24.8821C61.7863 24.892 61.4655 24.8841 61.1447 24.8841V24.8854L61.1441 24.8848Z" fill="white"/>
<path id="Vector_5" d="M70.3726 15.7963C70.3726 18.5724 70.3726 21.3491 70.3726 24.1251C70.3726 24.8071 70.2962 24.8825 69.6088 24.8845C69.0776 24.8858 68.5463 24.8878 68.0157 24.8825C67.5243 24.8772 67.4061 24.7641 67.4047 24.274C67.4007 21.8723 67.4021 19.4706 67.4021 17.0689C67.4021 14.0719 67.4021 11.0756 67.4067 8.07863C67.4067 7.74924 67.4419 7.41918 67.4638 7.08978C67.4798 6.85299 67.6113 6.72335 67.8477 6.72202C68.5443 6.71739 69.2416 6.71541 69.9389 6.72202C70.2005 6.72467 70.3473 6.87349 70.3606 7.13674C70.3706 7.33451 70.3719 7.53295 70.3719 7.73138C70.3719 10.4195 70.3719 13.1076 70.3719 15.7963C70.3719 15.7963 70.3732 15.7963 70.3739 15.7963H70.3726Z" fill="white"/>
</g>
</g>
</svg>
