<svg width="151" height="31" viewBox="0 0 151 31" fill="none" xmlns="http://www.w3.org/2000/svg">
<g id="binance_logo.svg" clip-path="url(#clip0_94_413)">
<g id="Group">
<path id="Vector" d="M7.31818 15.2168L3.93926 18.5768L0.5 15.2168L3.93926 11.7968L7.31818 15.2168ZM15.5845 6.9968L21.4372 12.8168L24.8765 9.3968L15.5845 0.216797L6.35278 9.3968L9.79204 12.8168L15.5845 6.9968ZM27.2297 11.7968L23.8508 15.2168L27.29 18.6368L30.6689 15.2168L27.2297 11.7968ZM15.5845 23.4368L9.7317 17.6168L6.29244 21.0368L15.5845 30.2168L24.8162 21.0368L21.4372 17.6168L15.5845 23.4368ZM15.5845 18.5768L19.0237 15.1568L15.5845 11.7968L12.1452 15.2168L15.5845 18.5768ZM51.5459 18.9368C51.5459 16.6568 50.3391 15.5768 48.4686 14.8568C49.6754 14.1968 50.6408 13.1768 50.6408 11.3168V11.2568C50.6408 8.6768 48.529 6.9968 45.2104 6.9968H37.4871V23.4368H45.3311C49.072 23.4368 51.5459 21.9368 51.5459 18.9368ZM46.9602 11.9168C46.9602 13.1768 45.9344 13.6568 44.3656 13.6568H40.9867V10.1768H44.607C46.1154 10.1768 46.9602 10.7768 46.9602 11.9168ZM47.9256 18.4568C47.9256 19.6568 46.9602 20.2568 45.3914 20.2568H41.0471V16.6568H45.2707C47.0808 16.6568 47.9256 17.3168 47.9256 18.4568ZM59.1484 23.4368V6.9968H55.4678V23.4368H59.1484ZM78.6979 23.4368V6.9968H75.0776V17.1368L67.3544 6.9968H63.9755V23.4368H67.5957V12.9968L75.6207 23.4368H78.6979ZM98.8508 23.4368L91.7309 6.8768H88.352L81.2321 23.4368H84.973L86.4815 19.7168H93.4807L94.9891 23.4368H98.8508ZM92.2136 16.5368H87.8089L90.0414 11.1968L92.2136 16.5368ZM116.228 23.4368V6.9968H112.608V17.1368L104.885 6.9968H101.506V23.4368H105.126V12.9968L113.151 23.4368H116.228ZM134.993 20.7968L132.64 18.4568C131.313 19.6568 130.166 20.3768 128.296 20.3768C125.46 20.3768 123.469 18.0368 123.469 15.2168V15.1568C123.469 12.3368 125.46 10.0568 128.296 10.0568C129.925 10.0568 131.252 10.7768 132.519 11.9168L134.872 9.2768C133.364 7.7768 131.494 6.7568 128.356 6.7568C123.288 6.7568 119.728 10.5968 119.728 15.2768V15.2168C119.728 19.9568 123.348 23.6768 128.235 23.6768C131.373 23.7368 133.304 22.5968 134.993 20.7968ZM150.5 23.4368V20.1968H141.51V16.7168H149.293V13.4768H141.51V10.1168H150.379V6.8768H137.889V23.3168L150.5 23.4368Z" fill="white"/>
</g>
</g>
<defs>
<clipPath id="clip0_94_413">
<rect width="150" height="30" fill="white" transform="translate(0.5 0.216797)"/>
</clipPath>
</defs>
</svg>
