<svg width="78" height="31" viewBox="0 0 78 31" fill="none" xmlns="http://www.w3.org/2000/svg">
<g id="bybit_logo.svg" clip-path="url(#clip0_94_416)">
<path id="Vector" d="M55.0977 22.5912V2.86426H59.0629V22.5912H55.0977Z" fill="white"/>
<path id="Vector_2" d="M8.88542 28.4506H0.384766V8.72363H8.54358C12.5088 8.72363 14.8193 10.8847 14.8193 14.2651C14.8193 16.4532 13.3354 17.8673 12.3084 18.3381C13.5343 18.8919 15.1036 20.1384 15.1036 22.7718C15.1036 26.4556 12.5088 28.4506 8.88542 28.4506ZM8.22973 12.1599H4.34997V16.7037H8.22973C9.9125 16.7037 10.8541 15.7892 10.8541 14.431C10.8541 13.0743 9.9125 12.1599 8.22973 12.1599ZM8.4861 20.1671H4.34997V25.0158H8.4861C10.2838 25.0158 11.1384 23.9082 11.1384 22.5772C11.1384 21.2477 10.2822 20.1671 8.4861 20.1671Z" fill="white"/>
<path id="Vector_3" d="M27.1982 20.3603V28.4506H23.261V20.3603L17.1562 8.72363H21.4633L25.2576 16.675L28.9944 8.72363H33.3015L27.1982 20.3603Z" fill="white"/>
<path id="Vector_4" d="M44.5436 28.4506H36.043V8.72363H44.2018C48.167 8.72363 50.4775 10.8847 50.4775 14.2651C50.4775 16.4532 48.9936 17.8673 47.9666 18.3381C49.1925 18.8919 50.7619 20.1384 50.7619 22.7718C50.7619 26.4556 48.167 28.4506 44.5436 28.4506ZM43.888 12.1599H40.0082V16.7037H43.888C45.5707 16.7037 46.5123 15.7892 46.5123 14.431C46.5123 13.0743 45.5707 12.1599 43.888 12.1599ZM44.1443 20.1671H40.0082V25.0158H44.1443C45.942 25.0158 46.7966 23.9082 46.7966 22.5772C46.7966 21.2477 45.942 20.1671 44.1443 20.1671Z" fill="white"/>
<path id="Vector_5" d="M71.8436 12.1599V28.4521H67.8784V12.1599H62.5723V8.72363H77.1497V12.1599H71.8436Z" fill="white"/>
</g>
<defs>
<clipPath id="clip0_94_416">
<rect width="76.7647" height="30" fill="white" transform="translate(0.384766 0.216797)"/>
</clipPath>
</defs>
</svg>
