<svg xmlns="http://www.w3.org/2000/svg" width="141" height="31" viewBox="0 0 141 31" fill="none">
  <g clip-path="url(#clip0_71_6996)">
    <path d="M15.5242 26.4085C15.3914 26.2843 15.281 26.1866 15.1765 26.0831C11.6959 22.6317 8.21977 19.1759 4.72572 15.7364C4.38258 15.3991 4.43629 15.2246 4.7481 14.9169C8.20336 11.5099 11.6497 8.09403 15.084 4.66635C15.4078 4.34385 15.5838 4.33793 15.9106 4.66339C19.3793 8.12658 22.8629 11.5765 26.3509 15.0189C26.615 15.2808 26.6478 15.4287 26.3629 15.7098C22.8539 19.1685 19.3599 22.6406 15.8598 26.1097C15.7599 26.2088 15.6465 26.2976 15.5227 26.4071L15.5242 26.4085ZM17.7098 19.2972C17.7098 18.0679 16.7401 17.09 15.5167 17.0871C14.2993 17.0841 13.2878 18.0635 13.2654 19.2632C13.2445 20.4112 14.3232 21.4941 15.4913 21.5C16.7013 21.5059 17.7098 20.5044 17.7098 19.2972ZM17.7173 11.9359C17.7053 10.7288 16.6908 9.74796 15.4675 9.76276C14.2754 9.77607 13.2535 10.8309 13.2788 12.0188C13.3042 13.1771 14.3217 14.1431 15.5152 14.1417C16.7535 14.1402 17.7292 13.1623 17.7173 11.9374V11.9359Z" fill="white"/>
    <path d="M40.3837 15.5662C40.3837 12.7569 40.4075 9.94909 40.3658 7.13978C40.3568 6.4933 40.5567 6.38678 41.1505 6.39714C43.2123 6.43412 45.2756 6.41193 47.3375 6.41193C53.1052 6.41193 57.3347 10.8737 56.3799 17.1491C55.6802 21.7529 52.2473 24.648 47.5702 24.7531C45.3607 24.8034 43.1482 24.756 40.9372 24.7915C40.4583 24.7989 40.3702 24.6525 40.3732 24.2131C40.3926 21.3313 40.3837 18.448 40.3837 15.5648V15.5662ZM44.2641 15.5529C44.2641 17.2749 44.2716 18.9984 44.2582 20.7203C44.2552 21.0709 44.2955 21.2559 44.7266 21.2381C45.6188 21.2026 46.5154 21.2662 47.4061 21.213C48.8368 21.1272 50.1124 20.6478 51.0986 19.5635C52.4159 18.1152 52.6591 16.3651 52.4443 14.5307C52.1772 12.2406 50.5839 10.5734 48.3087 10.0911C47.1554 9.84701 45.9828 10.0408 44.8236 9.96093C44.3507 9.92838 44.2477 10.0852 44.2552 10.5334C44.2835 12.2066 44.2656 13.8798 44.2656 15.5529H44.2641Z" fill="#FAF9F9"/>
    <path d="M100.311 23.5731C100.502 24.406 100.102 24.5155 99.4772 24.477C98.7596 24.4312 98.033 24.4252 97.3169 24.48C96.7365 24.5229 96.6246 24.3128 96.6276 23.7758C96.65 19.5877 96.6396 15.3997 96.6396 11.2116C96.6396 9.61091 96.6589 8.00876 96.6276 6.40809C96.6187 5.94505 96.7514 5.81782 97.208 5.83557C98.0763 5.87108 98.9475 5.8696 99.8158 5.83557C100.26 5.81782 100.345 5.98203 100.341 6.38442C100.32 8.1064 100.332 9.82985 100.332 11.6865C101.934 10.5666 103.656 10.2751 105.466 10.6124C107.304 10.9556 108.761 11.9291 109.783 13.4972C111.586 16.2636 111.287 20.2579 109.113 22.6308C107.332 24.5747 103.734 25.7434 100.311 23.5731ZM100.334 17.6083C100.334 17.9279 100.305 18.2519 100.339 18.5685C100.399 19.1173 100.08 19.7667 100.498 20.1958C101.048 20.7609 101.797 21.0789 102.591 21.2372C102.785 21.2757 102.982 21.3141 103.179 21.3363C104.996 21.5434 106.701 20.3437 107.052 18.6158C107.487 16.4618 106.568 14.6629 104.705 14.1185C103.429 13.7457 102.212 13.9484 101.068 14.6348C100.571 14.9337 100.237 15.2576 100.319 15.9115C100.389 16.4692 100.334 17.0432 100.334 17.6083Z" fill="#FAF9F9"/>
    <path d="M86.927 20.4736C86.927 21.4633 86.9136 22.3494 86.9345 23.2355C86.9419 23.5403 86.8748 23.7444 86.5705 23.8613C83.5493 25.0196 80.5148 25.2031 77.5847 23.6882C75.0828 22.3938 74.1115 20.1229 74.1772 17.4305C74.2413 14.7543 75.2752 12.519 77.7861 11.2571C81.7605 9.25851 87.7133 10.9465 87.8192 17.2397C87.8446 18.7397 87.8237 18.7397 86.3243 18.7397C83.8164 18.7397 81.307 18.7397 78.7991 18.7397C78.0099 18.7397 77.9263 18.8699 78.3336 19.5593C79.1243 20.8981 80.4119 21.4041 81.8814 21.515C83.618 21.6452 85.2815 21.3271 86.927 20.4736ZM81.037 16.2603C81.8277 16.2603 82.6199 16.2441 83.4106 16.2662C83.8716 16.2796 84.0402 16.1997 83.8462 15.6908C83.3688 14.4363 82.4483 13.7898 81.0653 13.8164C79.742 13.8431 78.5112 14.7174 78.1665 15.8417C78.0546 16.2086 78.2023 16.2648 78.5142 16.2618C79.3556 16.2529 80.1955 16.2589 81.037 16.2589V16.2603Z" fill="#FAF9F9"/>
    <path d="M72.0349 15.2961C71.9513 16.5239 72.19 18.0329 71.8797 19.5211C71.2173 22.6944 68.1619 25.017 65.0005 24.7521C61.4751 24.4563 58.7897 21.7224 58.739 18.3258C58.7046 15.9854 58.7449 13.6436 58.7211 11.3018C58.7166 10.8373 58.8523 10.713 59.3074 10.7352C60.1011 10.7722 60.9007 10.784 61.6914 10.7322C62.2494 10.6967 62.33 10.9157 62.3255 11.4024C62.3001 13.5963 62.3031 15.7887 62.318 17.9826C62.3285 19.635 63.3191 20.8215 64.8961 21.1203C66.6699 21.4576 68.4095 20.0507 68.4229 18.2341C68.4408 15.9425 68.4394 13.6495 68.417 11.358C68.4125 10.8964 68.502 10.7026 69.0197 10.7322C69.8119 10.7781 70.6116 10.781 71.4038 10.7322C71.9558 10.6982 72.0572 10.9112 72.0438 11.4024C72.011 12.6095 72.0334 13.8167 72.0334 15.2946L72.0349 15.2961Z" fill="#FAF9F9"/>
    <path d="M129.608 20.3908C131.134 21.2414 132.671 21.5447 134.279 21.521C134.754 21.5136 135.216 21.4411 135.655 21.2488C136.025 21.0876 136.289 20.8257 136.28 20.4145C136.271 20.0017 135.992 19.7473 135.617 19.6097C134.728 19.2857 133.779 19.2177 132.866 18.9957C130.658 18.4587 129.505 17.259 129.42 15.4113C129.302 12.8298 130.545 11.2394 133.123 10.7054C135.071 10.3015 136.959 10.4791 138.77 11.3386C139.149 11.519 139.319 11.7395 139.298 12.1833C139.256 13.0428 139.286 13.9067 139.286 14.8742C137.943 14.0709 136.535 13.7174 135.027 13.7721C134.628 13.7869 134.237 13.8209 133.864 13.9792C133.465 14.1479 133.186 14.423 133.19 14.8609C133.195 15.2825 133.5 15.4926 133.875 15.6361C134.645 15.9335 135.474 15.9631 136.262 16.1776C136.357 16.2027 136.459 16.2027 136.556 16.2249C138.853 16.7397 139.95 17.8123 140.047 19.6393C140.177 22.0995 139.177 23.6513 136.891 24.351C134.606 25.0523 132.349 24.8999 130.153 23.9235C129.723 23.7327 129.577 23.4782 129.596 23.0211C129.632 22.1867 129.607 21.3494 129.607 20.3908H129.608Z" fill="#FAF9F9"/>
    <path d="M119.571 13.9803C119.571 11.8352 119.585 9.69165 119.561 7.54657C119.555 7.0717 119.674 6.90305 120.176 6.9282C120.993 6.9711 121.817 6.96518 122.636 6.92968C123.118 6.90897 123.3 7.04063 123.276 7.54361C123.237 8.4046 123.291 9.27003 123.255 10.131C123.236 10.5985 123.35 10.7775 123.859 10.7538C124.802 10.7109 125.748 10.7612 126.692 10.7331C127.128 10.7198 127.328 10.8145 127.303 11.2953C127.265 11.9832 127.264 12.677 127.303 13.3649C127.329 13.8546 127.112 13.9359 126.686 13.9256C125.742 13.9019 124.796 13.9493 123.853 13.9064C123.322 13.8812 123.252 14.1046 123.258 14.5499C123.279 16.2008 123.258 17.8533 123.268 19.5043C123.277 20.8431 123.996 21.4777 125.365 21.3372C125.854 21.2869 126.348 21.1804 126.815 21.028C127.173 20.9111 127.308 20.9289 127.3 21.3387C127.282 22.176 127.297 23.0148 127.292 23.8521C127.292 24.0415 127.307 24.2116 127.07 24.3403C125.491 25.1969 122.254 24.7693 120.945 23.5133C120.059 22.6642 119.625 21.602 119.604 20.4096C119.565 18.266 119.594 16.121 119.594 13.9774C119.588 13.9774 119.58 13.9774 119.574 13.9774L119.571 13.9803Z" fill="#FAF9F9"/>
    <path d="M27.9652 0.225513C28.7604 0.225513 29.5556 0.237348 30.3493 0.219596C30.6954 0.212199 30.8312 0.318713 30.8282 0.678198C30.8133 2.23005 30.8147 3.78042 30.8282 5.33227C30.8312 5.64442 30.6745 5.8323 30.4776 6.0261C28.9484 7.53948 27.4147 9.04843 25.8989 10.5751C25.6095 10.8666 25.4334 10.8962 25.1291 10.5885C23.5462 8.98926 21.9468 7.40634 20.3356 5.83526C20.0238 5.53051 20.0655 5.34559 20.3565 5.06155C21.8961 3.55852 23.4223 2.04365 24.9396 0.516948C25.1738 0.281729 25.4155 0.212199 25.7303 0.218116C26.4748 0.23291 27.2207 0.222554 27.9652 0.222554V0.225513Z" fill="white"/>
    <path d="M0.256267 3.03069C0.256267 2.26734 0.269694 1.50399 0.250299 0.740639C0.241348 0.382633 0.315943 0.211027 0.733678 0.216945C2.2972 0.239135 3.86221 0.230259 5.42723 0.221383C5.69428 0.219903 5.89419 0.29831 6.08367 0.489148C7.62928 2.05431 9.17789 3.618 10.7429 5.16393C11.0114 5.42874 10.9607 5.57076 10.7205 5.80598C9.09583 7.39925 7.47562 8.99696 5.87629 10.6139C5.56001 10.9334 5.38694 10.8684 5.10647 10.5858C3.60859 9.07685 2.09579 7.58269 0.577027 6.09297C0.347273 5.86959 0.239856 5.64325 0.248807 5.32075C0.269694 4.5574 0.256267 3.79404 0.256267 3.03069Z" fill="white"/>
    <path d="M90.0557 15.1705C90.0557 12.2621 90.0661 9.35367 90.0452 6.44672C90.0422 5.97628 90.1452 5.80468 90.6494 5.83278C91.4417 5.87716 92.2413 5.88012 93.0335 5.83278C93.5825 5.79876 93.7452 5.94374 93.7407 6.51329C93.7123 10.1599 93.7258 13.808 93.7258 17.4561C93.7258 19.5761 93.7109 21.696 93.7377 23.8144C93.7437 24.3248 93.6109 24.5068 93.0768 24.4772C92.2592 24.4328 91.4357 24.4358 90.6181 24.4772C90.1392 24.5023 90.0452 24.3367 90.0482 23.8958C90.0676 20.9874 90.0587 18.0789 90.0587 15.172L90.0557 15.1705Z" fill="#FAF9F9"/>
    <path d="M9.32853 28.0417C9.17338 27.8996 9.03463 27.7665 8.88842 27.6408C8.36924 27.194 7.96642 26.3049 7.37264 26.3478C6.8639 26.3848 6.40738 27.1851 5.93146 27.6526C5.15566 28.4159 4.36644 29.1689 3.619 29.9589C3.29674 30.2992 3.1013 30.2829 2.79099 29.953C2.14648 29.2695 1.47811 28.6068 0.788844 27.9677C0.471067 27.6733 0.496429 27.4943 0.796303 27.2058C1.95403 26.0889 3.07445 24.935 4.23665 23.8225C4.56636 23.5074 4.59172 23.3166 4.23665 23.0148C3.8219 22.6642 3.46981 22.2411 3.06699 21.8772C2.79099 21.6286 2.74026 21.4496 3.04461 21.1715C3.61004 20.6552 4.15459 20.1108 4.67825 19.5516C4.93486 19.2779 5.093 19.3253 5.3332 19.5664C7.31147 21.5428 9.30019 23.5074 11.2859 25.4764C11.4635 25.6525 11.6693 25.796 11.3799 26.0682C10.7682 26.6466 10.1819 27.2487 9.58216 27.8405C9.51353 27.907 9.43148 27.9603 9.32555 28.0431L9.32853 28.0417Z" fill="white"/>
    <path d="M28.4028 21.6375C28.1611 21.8121 27.9149 21.9467 27.727 22.1376C27.3152 22.5577 26.5931 22.9083 26.5782 23.4187C26.5618 23.9409 27.2988 24.2871 27.7091 24.7057C28.5386 25.5534 29.383 26.3878 30.2453 27.2014C30.5437 27.4825 30.5944 27.6586 30.2692 27.9603C29.5635 28.6157 28.8772 29.2947 28.2163 29.9959C27.912 30.3185 27.7255 30.2637 27.4435 29.9767C26.3335 28.8494 25.1818 27.7636 24.0897 26.62C23.6884 26.1999 23.4616 26.2487 23.0946 26.6393C22.644 27.1186 22.2188 27.6364 21.6504 27.9973C20.9612 27.3257 20.2659 26.6585 19.5841 25.9795C19.3648 25.7605 19.6005 25.6259 19.7288 25.4987C21.7265 23.5119 23.7316 21.5325 25.7248 19.5413C25.9441 19.3223 26.0903 19.2809 26.3246 19.5221C26.9094 20.1256 27.5181 20.7056 28.1149 21.2958C28.179 21.3594 28.2327 21.4349 28.4028 21.6375Z" fill="white"/>
    <path d="M116.89 17.6832C116.89 19.7514 116.878 21.8195 116.899 23.8877C116.904 24.33 116.798 24.4972 116.323 24.4765C115.48 24.438 114.634 24.4454 113.792 24.4735C113.362 24.4883 113.183 24.401 113.186 23.9158C113.205 19.7055 113.202 15.4952 113.189 11.285C113.189 10.8767 113.29 10.7199 113.726 10.7347C114.594 10.7657 115.465 10.7716 116.332 10.7332C116.82 10.711 116.902 10.9018 116.899 11.3308C116.88 13.4478 116.89 15.5648 116.89 17.6832Z" fill="#FAF9F9"/>
    <path d="M115.044 8.97655C113.726 8.98691 112.752 8.01201 112.752 6.68502C112.752 5.44236 113.761 4.4068 114.995 4.38609C116.266 4.3639 117.332 5.40389 117.341 6.67319C117.35 7.97946 116.366 8.9662 115.045 8.97655H115.044Z" fill="#FAF9F9"/>
  </g>
  <defs>
    <clipPath id="clip0_71_6996">
      <rect width="139.811" height="30" fill="white" transform="translate(0.248291 0.216797)"/>
    </clipPath>
  </defs>
</svg>