<svg width="120" height="31" viewBox="0 0 120 31" fill="none" xmlns="http://www.w3.org/2000/svg">
<g id="Isolation_Mode" clip-path="url(#clip0_94_429)">
<path id="Vector" d="M84.3511 18.8381C84.3511 20.3064 84.314 21.7748 84.3617 23.2405C84.3962 24.3004 83.8208 24.9198 82.914 24.9117C82.0338 24.9037 81.5989 24.2123 81.6122 23.2458C81.6467 20.3999 81.599 17.5539 81.6387 14.7106C81.6493 13.9177 81.5353 13.4318 80.5994 13.5146C79.7058 13.5947 78.9343 13.277 78.8998 12.2785C78.8601 11.1679 79.682 10.8982 80.6259 10.9463C81.3418 10.9837 81.6016 10.7113 81.6652 9.9558C81.9436 6.56254 83.6008 5.16092 86.9627 5.33179C87.7873 5.3745 88.3441 5.63614 88.3574 6.54653C88.3706 7.47026 87.8059 7.74257 86.9866 7.78796C85.2923 7.8814 84.5553 8.53549 84.3776 9.9825C84.2981 10.6366 84.4519 10.9703 85.2022 10.9543C86.8805 10.9142 88.5589 10.9196 90.2372 10.9543C90.8523 10.9676 91.1016 10.7594 91.1413 10.1373C91.2129 9.0641 91.494 8.03892 92.064 7.11251C92.9575 5.66284 95.8396 4.72575 97.282 5.45994C97.7698 5.70822 98.1543 6.14873 98.0137 6.74943C97.8388 7.49696 97.2952 7.7666 96.5343 7.79597C94.8877 7.86004 94.2222 8.49544 94.0552 9.9291C93.9677 10.674 94.1772 11.0184 94.9646 10.9516C95.4896 10.9089 96.0252 10.9196 96.5528 10.9543C97.3482 11.0077 97.966 11.3948 97.9289 12.2518C97.8944 13.0687 97.3032 13.4612 96.4971 13.5253C95.7176 13.5867 94.6915 13.1675 94.2196 13.7308C93.6814 14.3742 94.0526 15.4341 94.042 16.3098C94.0128 18.5337 94.042 20.7549 94.026 22.9788C94.0181 24.1375 93.3208 25.0746 92.5174 24.9331C91.4993 24.7542 91.0989 24.0227 91.1069 22.9975C91.1254 20.2424 91.0803 17.4845 91.1307 14.7293C91.1466 13.851 90.9796 13.4478 89.9906 13.5012C88.4502 13.584 86.8991 13.5706 85.356 13.5066C84.5102 13.4719 84.3087 13.7789 84.3431 14.5771C84.4041 15.9974 84.359 17.4231 84.359 18.8434L84.3511 18.8381Z" fill="#E9E9E9"/>
<path id="Vector_2" d="M39.1885 24.9978C36.6776 24.7495 34.2596 24.1115 32.8755 21.5245C32.4036 20.6435 32.0881 19.7144 33.2123 19.127C34.1933 18.6171 34.7686 19.127 35.2856 20.0615C36.6591 22.5336 40.7634 23.2251 42.9747 21.4551C43.855 20.7502 43.9159 19.8052 43.7887 18.8013C43.6428 17.6427 42.7228 17.1648 41.8134 16.9031C40.2119 16.4386 38.5442 16.201 36.9242 15.7925C35.3599 15.3974 33.8671 14.8234 33.1778 13.1601C32.3452 11.1498 33.0558 8.64026 34.8031 7.3214C37.3166 5.42321 41.8611 5.50597 44.3508 7.45489C45.011 7.97282 45.406 8.65093 45.7269 9.37177C46.1033 10.2101 45.8939 11.0083 45.0428 11.4008C44.25 11.7665 43.6375 11.4008 43.1815 10.6452C41.8744 8.48541 39.0798 7.82064 36.8897 9.11013C36.0413 9.60938 35.7337 10.397 35.7417 11.342C35.747 12.2524 36.2375 12.781 37.0329 13.1655C38.5018 13.8756 40.1298 13.7902 41.657 14.1907C43.8868 14.778 45.9628 15.5442 46.5753 18.19C47.1745 20.7716 45.9363 23.3025 43.4493 24.1996C42.1263 24.6775 40.7316 24.9444 39.1885 24.9952V24.9978Z" fill="#E9E9E9"/>
<path id="Vector_3" d="M113.062 18.4275C111.386 18.4275 109.71 18.4488 108.035 18.4195C107.231 18.4061 107.043 18.5984 107.351 19.4206C108.459 22.3841 112.457 23.4119 114.82 21.2921C114.984 21.1453 115.125 20.9744 115.276 20.8116C115.931 20.1014 116.649 19.6182 117.543 20.3978C118.179 20.9531 117.991 22.1438 117.129 22.8513C114.676 24.8669 111.988 25.6225 108.915 24.3784C106.269 23.3078 104.736 21.3562 104.323 18.5503C103.58 13.4965 107.613 9.35834 112.659 9.9884C116.442 10.461 118.667 12.7703 119.282 16.4893C119.537 18.0297 119.216 18.4222 117.691 18.4275C116.148 18.4328 114.605 18.4275 113.059 18.4275H113.062ZM111.58 16.2036C112.858 16.2036 114.138 16.1689 115.416 16.2169C116.241 16.249 116.294 15.8592 116.095 15.2345C115.586 13.6273 113.685 12.4419 111.67 12.4766C109.607 12.5113 107.91 13.6967 107.351 15.384C107.101 16.1368 107.398 16.2196 108.006 16.2089C109.196 16.1902 110.387 16.2036 111.577 16.2036H111.58Z" fill="#E9E9E9"/>
<path id="Vector_4" d="M48.5045 15.3889C48.5045 12.858 48.5204 10.3244 48.4966 7.79343C48.4886 6.843 48.7087 6.02072 49.7825 5.99669C50.8643 5.97266 51.3044 6.67748 51.2408 7.7614C51.1878 8.64775 51.2275 9.53678 51.2275 10.4258C51.2275 12.0116 51.2328 12.0196 52.5903 11.3335C54.3244 10.4578 56.1061 10.2763 57.978 10.8263C60.2529 11.4937 61.5282 13.0208 61.8384 15.3488C62.1911 17.9999 61.9895 20.6723 62.0002 23.3341C62.0028 24.2471 61.5043 24.9653 60.5764 24.8932C59.7677 24.8291 59.1499 24.2952 59.1685 23.2807C59.2003 21.2837 59.1844 19.284 59.1738 17.2844C59.1605 14.4011 58.0867 13.165 55.5546 13.1116C52.9881 13.0555 51.3309 14.62 51.2567 17.263C51.201 19.2146 51.1931 21.1742 51.262 23.1258C51.3018 24.2418 50.7715 24.9199 49.8037 24.9146C48.8386 24.9092 48.4754 24.1163 48.4886 23.1178C48.5284 20.5415 48.5019 17.9652 48.5019 15.3889H48.5045Z" fill="#E9E9E9"/>
<path id="Vector_5" d="M77.2618 15.1727C77.2618 16.4168 77.336 17.6663 77.2485 18.9051C76.925 23.4837 73.8574 25.2163 69.806 24.8266C65.752 24.4368 63.9677 22.1888 63.9305 18.0507C63.912 15.9603 63.9491 13.8726 63.9146 11.7822C63.8987 10.749 64.2142 9.95605 65.3225 9.95338C66.4547 9.95071 66.6933 10.7863 66.7065 11.7902C66.741 14.233 66.5156 16.6811 66.8391 19.116C67.1175 21.2251 68.3875 22.3143 70.5113 22.3544C72.7544 22.3971 73.974 21.4093 74.3479 19.2067C74.7138 17.0442 74.438 14.8604 74.5176 12.6872C74.5335 12.244 74.5255 11.7982 74.5282 11.355C74.5308 10.4019 75.13 9.96672 75.9546 9.95338C76.7633 9.94003 77.2618 10.4606 77.2803 11.3043C77.3068 12.5938 77.2856 13.8832 77.2856 15.1727C77.2777 15.1727 77.2697 15.1727 77.2591 15.1727H77.2618Z" fill="#E9E9E9"/>
<path id="Vector_6" d="M102.434 15.4962C102.434 18.0698 102.41 20.6408 102.447 23.2145C102.461 24.237 102.015 24.9551 101.058 24.9097C100.159 24.867 99.6927 24.1943 99.7033 23.1477C99.7457 18.0031 99.7378 12.8558 99.7086 7.71121C99.7033 6.69937 100.069 6.00257 101.063 5.96252C102.103 5.92248 102.455 6.64598 102.445 7.64446C102.416 10.2608 102.434 12.8798 102.437 15.4962H102.434Z" fill="#E9E9E9"/>
<path id="Vector_7" d="M25.017 14.0003C24.9269 12.7055 24.036 12.3771 22.9993 12.0861C19.4623 11.093 15.9386 10.0571 12.2823 8.99989C13.5285 7.5075 15.0902 6.66919 16.0898 5.25689C17.0204 4.41325 17.9749 3.59364 18.8764 2.72063C19.4941 2.12261 19.3907 1.45784 18.8472 0.843795C18.3328 0.261789 17.7601 -0.0158648 16.9992 0.437993C16.0288 1.01733 15.0398 1.56196 14.0561 2.12261C13.7724 2.2294 13.4675 2.30148 13.205 2.45099C10.2673 4.11691 7.34015 5.79618 4.4024 7.46478C3.05284 8.231 2.33696 9.64597 2.65513 10.9782C3.00246 12.4492 4.22475 13.4664 5.74135 13.6079C7.71399 13.7921 9.69193 13.9496 11.6513 14.2433C12.4971 14.3714 13.4543 14.2646 14.4671 15.0202C13.0963 15.3779 12.0517 15.9519 10.962 16.2322C7.98444 16.9985 5.12358 18.1171 2.19378 19.0195C1.41958 19.2571 0.860131 19.8311 0.576432 20.6507C-0.258759 23.0455 1.49912 24.8929 4.19824 24.5539C7.72725 24.108 11.2748 24.3403 14.9682 24.2789C14.6235 24.8929 14.2709 25.1866 13.8891 25.4883C12.6801 26.4414 11.5055 27.4425 10.3097 28.4143C9.83511 28.7988 9.61239 29.2793 9.97298 29.8026C10.3283 30.3205 10.8586 30.2992 11.3888 30.0002C12.2611 29.5036 13.1414 29.0177 14.0164 28.5238C16.6333 27.0527 19.2476 25.5817 21.8645 24.1133C22.7633 23.6088 23.458 22.9253 23.3307 21.8147C23.2114 20.7655 22.1005 20.0019 20.8888 19.9993C20.4036 19.9993 19.9157 20.0473 19.4332 20.0046C18.2612 19.8978 17.0496 20.018 15.525 19.5054C18.3673 18.288 20.8225 17.2307 23.2803 16.1842C24.2561 15.7677 25.1072 15.2978 25.017 13.9977V14.0003Z" fill="#E9E9E9"/>
</g>
<defs>
<clipPath id="clip0_94_429">
<rect width="119" height="30" fill="white" transform="translate(0.363281 0.216797)"/>
</clipPath>
</defs>
</svg>
