<svg xmlns="http://www.w3.org/2000/svg" width="120" height="31" viewBox="0 0 62 31" fill="none">
  <g clip-path="url(#clip0_71_7011)">
    <path d="M39.9357 21.6588C39.9692 21.6239 40.0022 21.5896 40.0358 21.5547C40.1227 21.5035 40.1601 21.4152 40.2074 21.3334L40.2035 21.3372C40.2222 21.3165 40.2409 21.2958 40.2596 21.2751L40.2569 21.2783C40.3201 21.2407 40.3449 21.177 40.3724 21.1148L40.3696 21.1175C40.4356 21.0821 40.4692 21.0232 40.4879 20.954L40.484 20.9578C40.583 20.8635 40.6557 20.7518 40.7063 20.6259L40.7024 20.6297C40.7679 20.5861 40.7888 20.5196 40.8036 20.4465C40.9719 19.6081 41.1254 18.7665 41.3135 17.9325C42.1391 14.2743 43.089 10.6455 43.9674 6.99925C44.1379 6.2917 44.3563 5.59069 44.3827 4.85534C44.3876 4.7207 44.4811 4.68254 44.5714 4.65965C45.5015 4.42743 46.4228 4.3364 47.2907 4.87715C47.3067 4.89296 47.3232 4.90876 47.3391 4.92457C47.3782 4.96273 47.4167 5.00143 47.4557 5.03959C47.4882 5.07502 47.5201 5.11045 47.5525 5.14589C47.8001 5.55635 47.8815 6.00116 47.8309 6.47322C47.755 7.18241 47.6125 7.8796 47.4304 8.56916C47.0047 10.1849 46.425 11.7531 45.9541 13.3552C45.8254 13.7935 45.6967 14.2323 45.6274 14.7294C45.8089 14.6237 45.9552 14.5386 46.1015 14.4536C46.1203 14.4569 46.1307 14.4492 46.1324 14.4302C46.2512 14.3571 46.3837 14.3037 46.4761 14.1925L46.4728 14.1958C46.5372 14.1707 46.6043 14.15 46.64 14.0829L46.6373 14.0857C46.7203 14.042 46.81 14.0066 46.86 13.9199L46.8573 13.9227C46.9178 13.8818 46.9789 13.8404 47.0394 13.7995C47.057 13.8006 47.0658 13.7924 47.0658 13.7749C47.1488 13.7101 47.2319 13.6458 47.3149 13.5809C47.3314 13.582 47.3397 13.5743 47.3397 13.558C47.4409 13.4746 47.5426 13.3912 47.6438 13.3078C47.6609 13.3089 47.6691 13.3012 47.6691 13.2843C47.6928 13.2598 47.7165 13.2353 47.7401 13.2108L47.7363 13.2146C47.7572 13.1955 47.7781 13.1764 47.799 13.1579L47.7951 13.1617C47.8919 13.0827 47.9887 13.0031 48.0861 12.924C48.107 12.9218 48.1169 12.9104 48.1163 12.8897L48.1257 12.8804C48.1389 12.8695 48.1526 12.8586 48.1658 12.8477C48.2263 12.7878 48.2868 12.7278 48.3473 12.6678L48.3435 12.6716C48.3633 12.652 48.3836 12.6318 48.4034 12.6122L48.3979 12.6177C48.4188 12.5986 48.4397 12.5795 48.4612 12.5604L48.4568 12.5648C48.5899 12.4432 48.7236 12.3217 48.8567 12.2001L48.8605 12.1969C48.9331 12.1265 49.0057 12.0568 49.0789 11.9864L49.0871 11.9777C49.157 11.9085 49.2274 11.8398 49.2978 11.7706L49.311 11.7559C49.3242 11.7417 49.338 11.7281 49.3512 11.7144L49.3616 11.7046C49.5376 11.5176 49.7136 11.3307 49.8896 11.1443L49.8852 11.1486C49.9056 11.1274 49.9254 11.1061 49.9457 11.0854C50.0156 11.0145 50.0854 10.9437 50.1553 10.8722C50.1812 10.8472 50.2065 10.8226 50.2323 10.7981C50.2461 10.7981 50.2527 10.7905 50.2527 10.7768L50.5497 10.4356L50.5453 10.44C50.5651 10.4187 50.5843 10.3975 50.6041 10.3762C50.6195 10.3598 50.6349 10.344 50.6503 10.3277C50.8115 10.2061 50.9265 10.0448 51.0442 9.8856C51.0596 9.86979 51.075 9.85344 51.0904 9.83763C51.1102 9.81691 51.13 9.79674 51.1498 9.77603L51.1465 9.77985C51.2438 9.66701 51.3417 9.55417 51.4391 9.44133C51.4589 9.44133 51.4688 9.43098 51.4677 9.41135C51.5573 9.2838 51.6751 9.26363 51.8225 9.30015C52.3087 9.41953 52.7735 9.58415 53.1728 9.89595C53.1876 9.91122 53.202 9.92648 53.2168 9.94174C53.2575 9.99625 53.2982 10.0508 53.3395 10.1053L53.3373 10.1026C53.5182 10.4274 53.4643 10.7512 53.3301 11.0739L53.334 11.0701C53.2779 11.1622 53.2218 11.2544 53.1656 11.3465L53.1695 11.3427C53.0914 11.4392 53.0133 11.5356 52.9352 11.6321C52.9176 11.6321 52.9088 11.6403 52.9093 11.6577C52.8483 11.7351 52.7872 11.8126 52.7262 11.89L52.7306 11.8856C52.7102 11.9063 52.6899 11.9276 52.6695 11.9483C52.6178 12.0012 52.5667 12.054 52.515 12.1069C52.4902 12.1304 52.4655 12.1532 52.4407 12.1767C52.4292 12.1914 52.417 12.2061 52.4055 12.2208L52.4028 12.2236C52.3846 12.241 52.367 12.2585 52.3488 12.2764L52.3455 12.2792C52.329 12.2955 52.3125 12.3113 52.2966 12.3277L52.2938 12.3309C52.2762 12.3484 52.2581 12.3664 52.2405 12.3838L52.2377 12.3866C52.2229 12.398 52.208 12.41 52.1932 12.4214C52.1514 12.464 52.1096 12.5065 52.0683 12.549C52.0155 12.6013 51.9627 12.6531 51.9099 12.7054C51.8527 12.761 51.7955 12.8166 51.7383 12.8722L51.7422 12.8684C51.7213 12.8875 51.7009 12.9066 51.68 12.9257L51.6839 12.9218C51.5458 13.0232 51.4072 13.1235 51.2983 13.2576C51.2449 13.3083 51.1916 13.359 51.1377 13.4097C51.0585 13.4713 50.9798 13.5329 50.9006 13.5951C50.8841 13.594 50.8753 13.6016 50.8753 13.6179C50.8511 13.643 50.8269 13.6681 50.8021 13.6932C50.7664 13.7242 50.7312 13.7553 50.6954 13.7869C50.5904 13.8502 50.4886 13.9178 50.4171 14.0202C50.4006 14.035 50.3847 14.0497 50.3682 14.0649C50.2631 14.1276 50.1586 14.1898 50.0871 14.2928C50.0706 14.3075 50.0541 14.3222 50.0382 14.3369C49.9127 14.4133 49.7928 14.4967 49.7015 14.6144L49.7043 14.6117C49.6201 14.6542 49.5365 14.6973 49.4854 14.7818L49.4892 14.7785C49.4689 14.7981 49.4485 14.8172 49.4282 14.8368L49.432 14.8324C49.3424 14.8766 49.2571 14.9257 49.1966 15.008C49.1773 15.0069 49.1669 15.0156 49.1658 15.0352C49.1097 15.0788 49.0536 15.123 48.9969 15.1666C48.9777 15.1824 48.959 15.1988 48.9397 15.2146C48.9188 15.2331 48.8974 15.2522 48.8765 15.2707L48.8803 15.2669C48.7995 15.3138 48.7137 15.3547 48.6598 15.4359L48.6636 15.4321C48.6422 15.4506 48.6213 15.4691 48.5998 15.4871L48.6048 15.4822C48.4392 15.5716 48.3006 15.6948 48.1625 15.8191C48.146 15.8333 48.129 15.848 48.1125 15.8622C48.0701 15.8889 48.0283 15.915 47.986 15.9417C47.9728 15.9407 47.9651 15.9466 47.964 15.9603C47.9387 15.9848 47.9134 16.0093 47.8881 16.0339L47.8908 16.0311C47.761 16.1472 47.5058 16.1658 47.5377 16.4094C47.717 17.7788 48.025 19.1208 48.4612 20.4307C48.7742 21.3688 49.1256 22.2939 49.6504 23.1432C49.6509 23.183 49.6504 23.2233 49.6993 23.2391C49.8165 23.4964 49.9628 23.7357 50.1449 23.9526L50.141 23.9488C50.157 24.0191 50.1894 24.0791 50.2549 24.1162L50.2505 24.1118C50.3198 24.2574 50.4166 24.3827 50.5321 24.495L50.5288 24.4912C50.5469 24.5125 50.5656 24.5337 50.5838 24.555L50.5783 24.5501C50.614 24.6411 50.6707 24.7158 50.7537 24.7703C50.7862 24.8052 50.8181 24.8406 50.8506 24.8755C50.8995 24.9366 50.9479 24.9976 50.9969 25.0587L51.0062 25.0679C51.0365 25.1001 51.0662 25.1317 51.0964 25.1639C51.0959 25.1797 51.103 25.1873 51.119 25.1873C51.1481 25.2162 51.1767 25.2451 51.2059 25.2734C51.207 25.2936 51.218 25.3029 51.2383 25.3012C51.2411 25.3121 51.2482 25.3192 51.2592 25.322C51.257 25.3389 51.2647 25.3481 51.2823 25.3481C51.3637 25.4462 51.455 25.5329 51.5705 25.5912L51.5683 25.5891C51.6641 25.6992 51.7658 25.8022 51.9044 25.8605L51.9017 25.8578C52.6734 26.4847 53.565 26.8232 54.549 26.9426C55.3823 27.044 56.2101 26.9655 57.0296 26.827C58.0104 26.6613 58.9416 26.3484 59.7787 25.7973H59.7771C59.7991 25.7815 59.8205 25.7651 59.8425 25.7482L59.8376 25.7531C59.9096 25.739 59.9679 25.7035 60.0075 25.6414L60.0048 25.6441C60.134 25.5978 60.2314 25.5051 60.3321 25.4173L60.3288 25.4195C60.3497 25.401 60.37 25.3819 60.3904 25.3634L60.3865 25.3677C60.5174 25.3002 60.6313 25.2113 60.7215 25.0946L60.7187 25.0974C60.8315 25.008 60.942 24.9159 61.0576 24.8303C61.2798 24.6656 61.3617 24.6907 61.4277 24.9584C61.5905 25.618 61.4613 26.2356 61.1362 26.8221L61.1401 26.8183C61.0598 26.8761 61.0191 26.9622 60.975 27.0461C60.9596 27.0625 60.9437 27.0783 60.9283 27.0946C60.9019 27.1208 60.876 27.147 60.8496 27.1731L60.8348 27.1889C60.7858 27.2369 60.7369 27.2843 60.6885 27.3323C60.6747 27.3323 60.6676 27.3383 60.667 27.3519C60.551 27.4495 60.4349 27.5471 60.3189 27.6447L60.3216 27.6419C60.2253 27.7008 60.1291 27.7597 60.0328 27.8191C60.013 27.8153 60.002 27.8235 60.0004 27.8436C59.672 28.0159 59.3392 28.1789 58.9883 28.3037C58.0137 28.6504 57.0049 28.7959 55.9752 28.8657C54.9197 28.9371 53.8829 28.8712 52.8505 28.6466C52.3802 28.5446 51.9402 28.3538 51.4759 28.2399L51.4798 28.2437C51.2449 28.0731 50.9683 27.9832 50.7119 27.8545L50.7152 27.8573C50.5304 27.7471 50.3456 27.637 50.1608 27.5269L50.1647 27.5313C50.1256 27.4702 50.0684 27.4348 49.998 27.4184L50.0007 27.4212C49.9463 27.3389 49.8588 27.3012 49.7758 27.2576L49.7785 27.2604C49.7235 27.178 49.6394 27.1334 49.5541 27.0897C49.5371 27.0756 49.5206 27.0614 49.5035 27.0467C49.4771 27.0211 49.4513 26.9949 49.4249 26.9693L49.4067 26.9535C49.327 26.8913 49.2472 26.8286 49.1669 26.7665C49.1322 26.7327 49.0976 26.6994 49.0635 26.6656C49.0206 26.6226 48.9777 26.5795 48.9348 26.5359C48.9326 26.5152 48.921 26.5059 48.9007 26.5076L48.8842 26.4912C48.8721 26.4792 48.86 26.4678 48.8484 26.4558C48.8457 26.446 48.8391 26.4394 48.8286 26.4362C48.8171 26.4247 48.805 26.4127 48.7934 26.4013C48.7901 26.3915 48.7841 26.3849 48.7742 26.3816C48.7621 26.3697 48.7505 26.3582 48.7384 26.3462L48.7203 26.3282C48.7219 26.3086 48.7131 26.2982 48.6933 26.2966L48.4529 26.0589C48.421 26.0241 48.3891 25.9892 48.3572 25.9543C48.3275 25.9123 48.2978 25.8698 48.2681 25.8278L48.2511 25.8115C48.2489 25.7962 48.2395 25.7864 48.2247 25.7826C48.2274 25.764 48.2192 25.7537 48.1999 25.752C48.1587 25.7084 48.1169 25.6648 48.0756 25.6207L48.0795 25.6245C48.0536 25.5842 48.0278 25.5438 48.0019 25.504C48.0036 25.4877 47.9964 25.4795 47.9799 25.4789C47.9013 25.3814 47.8232 25.2838 47.7445 25.1862L47.7473 25.1889C47.7286 25.1203 47.6978 25.0609 47.6317 25.0249L47.6345 25.0276C47.3776 24.5942 47.1175 24.1631 46.8644 23.7275C46.6582 23.3716 46.5372 22.9731 46.3111 22.6269L46.315 22.6308C46.2897 22.3942 46.1665 22.1903 46.0867 21.9723C45.5246 20.4329 45.1835 18.8423 44.9652 17.1704C44.8326 17.5329 44.7727 17.8583 44.7094 18.1821C44.5252 19.1252 44.4492 20.0813 44.3964 21.038C44.3392 22.0786 44.3145 23.1203 44.276 24.162C44.2672 24.175 44.2633 24.1892 44.2655 24.205C44.2446 24.2252 44.2243 24.2448 44.2034 24.265L44.2078 24.2606C44.0895 24.2732 44.0224 24.3718 43.9273 24.4242L43.9311 24.4203C43.8327 24.446 43.7337 24.4716 43.6533 24.5397C43.6374 24.5381 43.6225 24.5414 43.6093 24.5506C43.5917 24.5534 43.5736 24.5544 43.5571 24.5599C42.6996 24.8439 41.8415 25.0554 40.9758 24.5888L40.9796 24.5926C40.9587 24.5741 40.9384 24.555 40.9175 24.5365L40.9213 24.5392C40.8795 24.4967 40.8377 24.4536 40.7959 24.4111C40.7959 24.3964 40.7893 24.3887 40.7745 24.3887C40.4543 24.0104 40.4241 23.5471 40.4125 23.0543C40.2112 23.3149 40.0352 23.5433 39.8587 23.7711L39.8631 23.7668C39.8427 23.788 39.8229 23.8087 39.8025 23.83C39.6771 23.9543 39.5512 24.0791 39.4258 24.2034C39.4043 24.2225 39.3829 24.2421 39.3614 24.2612L39.3653 24.2568C39.1376 24.3991 38.9329 24.5779 38.6821 24.6853C38.098 24.9338 37.5546 24.7703 37.0183 24.5288L37.0221 24.5326C36.9814 24.4705 36.9149 24.4481 36.85 24.4236L36.8533 24.4269C36.8274 24.4024 36.8016 24.3773 36.7757 24.3528L36.7598 24.338C36.6992 24.2933 36.6387 24.2486 36.5782 24.2039L36.5821 24.2078C36.5623 24.1876 36.543 24.1674 36.5232 24.1472L36.5282 24.1522C36.4347 24.0426 36.3412 23.933 36.2477 23.8229L36.2515 23.8267C36.2273 23.7864 36.2037 23.7466 36.1795 23.7063C36.1822 23.6861 36.1734 23.6746 36.1531 23.6725C36.1063 23.5929 36.0596 23.5127 36.0123 23.4332C36.0172 23.4141 36.0095 23.4026 35.9903 23.3988C35.9254 23.2653 35.8604 23.1312 35.79 22.9856C35.6355 23.1306 35.4941 23.262 35.3533 23.3939L35.3572 23.3912C35.3363 23.4103 35.3154 23.4299 35.2945 23.449C35.2785 23.4642 35.262 23.4795 35.2461 23.4948C35.2246 23.5138 35.2026 23.5329 35.1812 23.552L35.1861 23.5471C35.0953 23.5814 35.0205 23.637 34.9639 23.7161L34.9666 23.7133C34.745 23.8589 34.5233 24.0044 34.3022 24.15L34.3049 24.1472C34.2329 24.1821 34.1597 24.2159 34.0882 24.2525C33.4942 24.5523 32.8743 24.7665 32.2038 24.8139C31.3122 24.8771 30.5125 24.6444 29.8095 24.0938C29.7215 24.0055 29.6329 23.9172 29.5449 23.8289C29.4976 23.7466 29.4569 23.6599 29.3728 23.606L29.3755 23.6087C29.2793 23.4212 29.2265 23.135 29.0763 23.0707C28.8932 22.9916 28.7287 23.2669 28.5417 23.3645C28.5351 23.3677 28.5323 23.3792 28.5279 23.3874L28.5318 23.3836C28.512 23.3906 28.4927 23.3983 28.4729 23.4054L28.4498 23.4064L28.4399 23.4266C28.2865 23.5231 28.133 23.6196 27.9801 23.7161L27.9839 23.7123C27.3729 24.0186 26.7623 24.3271 26.1012 24.5163C24.8432 24.8771 23.5837 25.0745 22.3252 24.5163C22.3202 24.4956 22.307 24.4879 22.2861 24.4934C22.191 24.4345 22.0958 24.3751 22.0001 24.3162L22.0029 24.319C21.905 24.2219 21.8071 24.1249 21.7091 24.0279C21.708 24.0088 21.6981 23.9995 21.6783 24.0012L21.6695 23.9924C21.6574 23.9772 21.6453 23.9614 21.6327 23.9461C21.5535 23.8333 21.4743 23.7204 21.3951 23.6076L21.3984 23.6103C21.07 22.8194 21.119 21.9984 21.24 21.184C21.4792 19.5711 21.8186 17.9766 22.2058 16.3925C22.3125 15.9548 22.4088 15.5144 22.5144 15.0559C21.5727 15.431 20.6569 15.7629 19.7131 16.0175C19.1438 16.1712 18.5849 16.2557 18.0938 15.8115C18.0239 15.7406 17.9535 15.6697 17.8837 15.5989C17.8407 15.5138 17.7951 15.431 17.7126 15.3759L17.7153 15.3786C17.4634 14.9409 17.2308 14.4961 17.0867 14.0088C16.9821 13.6539 16.9728 13.6534 17.31 13.5362C19.2384 12.8668 21.1657 12.1947 23.0985 11.5384C23.2685 11.4806 23.3246 11.3868 23.3604 11.2478C23.5853 10.3697 23.7916 9.48603 24.0352 8.61332C24.2657 7.78802 24.3554 6.91312 24.8619 6.17886L24.8592 6.18159C24.9263 6.14616 24.956 6.08293 24.9813 6.01697C24.9951 6.00007 25.0088 5.98317 25.0226 5.96573C25.1683 5.81855 25.3119 5.66864 25.4609 5.52474C25.9769 5.02596 26.6562 4.88096 27.3162 4.70925C27.7304 4.60132 28.1517 4.45305 28.5934 4.59478H28.5923C28.7023 4.71525 28.6495 4.84771 28.6192 4.97854C28.1946 6.81555 27.7716 8.65311 27.3432 10.489C27.3096 10.6329 27.3432 10.6722 27.4823 10.6384C28.452 10.4018 29.4305 10.2088 30.4195 10.0731C30.914 10.005 31.4145 9.91013 31.893 10.1549L31.8914 10.1538C31.9271 10.1772 31.9623 10.2012 31.9981 10.2247C32.0135 10.2383 32.0295 10.2525 32.0449 10.2661C32.2396 10.5561 32.2104 10.8352 32.0119 11.1126C31.9079 11.2582 31.8166 11.4124 31.7198 11.5629L31.7225 11.5602C31.6318 11.6147 31.6021 11.715 31.5427 11.7929C31.5229 11.7929 31.5141 11.8027 31.5152 11.8224C31.491 11.8627 31.4668 11.903 31.4426 11.9434L31.4453 11.9407C31.4217 11.9657 31.398 11.9913 31.3744 12.0164C31.3601 12.017 31.3529 12.0246 31.354 12.0388C31.3062 12.1036 31.2583 12.1685 31.2099 12.2334C31.1945 12.2334 31.1868 12.2416 31.1879 12.2568C31.1615 12.2988 31.1356 12.3408 31.1092 12.3822C31.0949 12.3985 31.0801 12.4154 31.0658 12.4318C30.9343 12.5953 30.8029 12.7594 30.6714 12.9229L30.6758 12.9186C30.656 12.9387 30.6357 12.9584 30.6159 12.978L30.6203 12.9736C30.4134 13.1012 30.1984 13.2097 29.9564 13.2565C28.8623 13.4702 27.7804 13.7351 26.6991 14.0044C26.5082 14.0519 26.4356 14.1336 26.3905 14.3102C26.0555 15.6234 25.6985 16.9306 25.3729 18.2459C25.1359 19.2058 24.8713 20.1631 24.7805 21.1513C24.7442 21.5455 24.7695 21.9456 25.0704 22.2639C25.1051 22.2966 25.1403 22.3299 25.1749 22.3626C25.4274 22.5964 25.7316 22.5615 26.0225 22.4912C26.5979 22.3517 27.1198 22.0851 27.6171 21.7706L27.6143 21.7733C27.9636 21.6027 28.2958 21.4043 28.6038 21.1677L28.6011 21.1704C28.7765 21.1323 28.8233 21.0145 28.815 20.8504C28.8002 20.5425 28.859 20.2405 28.9031 19.9374C29.0499 18.9273 29.3926 17.9815 29.8535 17.0739C29.8662 17.0636 29.87 17.0499 29.8656 17.0347C30.013 16.7954 30.161 16.5561 30.3084 16.3168L30.3056 16.3195C30.3716 16.2835 30.3997 16.2208 30.4228 16.1549L30.4173 16.1598C30.4349 16.138 30.4525 16.1162 30.4701 16.0949L30.4674 16.0982C30.5295 16.0197 30.5917 15.9417 30.6538 15.8632C30.6676 15.8622 30.6736 15.8551 30.6731 15.8414C30.733 15.764 30.7924 15.6861 30.8524 15.6087C30.9481 15.5384 31.0168 15.4462 31.074 15.3443C31.0938 15.3225 31.1136 15.3007 31.1334 15.2794L31.1296 15.2838C31.1857 15.2271 31.2424 15.171 31.2985 15.1143C31.3881 15.0265 31.4778 14.9387 31.5669 14.8504C31.5878 14.8303 31.6087 14.8101 31.6296 14.7905L31.6241 14.7959C31.6455 14.7774 31.6664 14.7589 31.6879 14.7403L31.6829 14.7452C31.7418 14.7005 31.8006 14.6558 31.8595 14.6111C31.8738 14.6117 31.8809 14.6051 31.882 14.591C31.9073 14.5653 31.9326 14.5397 31.9574 14.5147C31.9744 14.501 31.9915 14.4879 32.0091 14.4743C32.0509 14.4465 32.0933 14.4187 32.1351 14.3909C32.1472 14.3909 32.1538 14.3855 32.1549 14.374C32.1807 14.3495 32.2066 14.325 32.2324 14.301L32.2291 14.3042C32.2709 14.2792 32.3122 14.2541 32.354 14.229C32.3672 14.2301 32.3749 14.2236 32.376 14.2105C32.4018 14.1865 32.4277 14.1631 32.4535 14.1391L32.4497 14.1434C32.5212 14.1287 32.5789 14.0927 32.6202 14.0322L32.6174 14.035C32.8408 13.9058 33.0635 13.7766 33.2868 13.6468C33.3017 13.6528 33.3132 13.6496 33.3226 13.6365C33.3594 13.6419 33.3831 13.6256 33.3968 13.5929C33.4117 13.5989 33.4232 13.5956 33.4326 13.5825C33.9051 13.3857 34.382 13.1949 34.8913 13.1197C35.3429 13.0527 35.8054 12.9306 36.235 13.214C36.2691 13.2478 36.3038 13.2822 36.3379 13.316C36.3566 13.3378 36.3747 13.3601 36.3934 13.3819L36.3896 13.3781C36.4143 13.4173 36.4396 13.4571 36.4644 13.4964C36.4622 13.5155 36.471 13.5253 36.4902 13.5264C36.5128 13.5504 36.5353 13.5743 36.5579 13.5983L36.5551 13.5956C36.5854 13.6774 36.6464 13.7286 36.7229 13.7651L36.7191 13.7613C36.8082 13.8611 36.9275 13.8894 37.0535 13.9194C37.3736 13.9957 37.6921 13.9232 38.0111 13.9248C38.505 13.9276 38.7751 14.108 38.8708 14.5157C38.9417 14.8188 38.9483 15.1268 38.917 15.4359C38.813 16.4612 38.5683 17.461 38.3582 18.4672C38.1524 19.4539 37.983 20.4432 38.1117 21.4539C38.1497 21.752 38.1651 22.066 38.3769 22.3157L38.3741 22.313C38.4247 22.4002 38.4869 22.4683 38.598 22.4781C38.8317 22.4988 39.0374 22.428 39.2278 22.3004C39.247 22.3032 39.2575 22.295 39.2586 22.2754C39.3185 22.2345 39.3983 22.2197 39.4351 22.1472C39.4351 22.1472 39.4313 22.15 39.4318 22.15C39.4522 22.1309 39.472 22.1113 39.4923 22.0922L39.4874 22.0971C39.5088 22.0791 39.5303 22.0606 39.5517 22.0426L39.5484 22.0464C39.7052 21.9439 39.829 21.8082 39.9368 21.6577L39.9357 21.6588ZM34.3567 16.09L34.3627 16.084C34.3423 16.1042 34.3225 16.1238 34.3022 16.144L34.3077 16.1385C34.2873 16.1587 34.2675 16.1783 34.2472 16.1985L34.2527 16.193C34.2329 16.2132 34.2136 16.2339 34.1938 16.2541L34.1993 16.2486C34.1795 16.2688 34.1597 16.289 34.1405 16.3091L34.1454 16.3042C34.1256 16.3244 34.1053 16.344 34.0855 16.3642L34.0893 16.3598C34.0712 16.3784 34.0536 16.3964 34.0354 16.4149C33.4298 17.0685 32.9519 17.8066 32.5608 18.6024C32.5503 18.6226 32.5399 18.6422 32.5294 18.6624C32.5096 18.6656 32.503 18.6771 32.5091 18.6962C32.1186 19.4675 31.8171 20.2694 31.7473 21.1355C31.7165 21.5198 31.7412 21.9118 32.0564 22.2088L32.1043 22.2563C32.1598 22.3489 32.2588 22.3887 32.3501 22.4116C32.9458 22.5615 33.4953 22.4569 33.9931 22.096L33.9892 22.0998C34.108 22.0557 34.1993 21.9772 34.273 21.8763C34.2884 21.8622 34.3044 21.848 34.3198 21.8338C34.3418 21.812 34.3644 21.7897 34.3864 21.7679C34.4007 21.7526 34.415 21.7373 34.4293 21.7215C34.4722 21.679 34.5145 21.6365 34.5574 21.5934C34.5767 21.5934 34.5855 21.5836 34.5844 21.5651C34.9127 21.1502 35.1812 20.7043 35.3137 20.1876L35.3104 20.1909C35.3902 20.1576 35.3599 20.0829 35.3753 20.0251L35.3693 20.0306C35.4353 19.975 35.4485 19.8949 35.4727 19.8191C35.8582 18.6155 35.9985 17.3721 36.0722 16.1194C36.0915 15.7886 36.075 15.455 36.075 15.1126C35.7845 15.1688 35.5156 15.2042 35.2923 15.3759L35.295 15.3732C35.1867 15.4026 35.0942 15.4582 35.0183 15.5405L35.0222 15.5367C34.9815 15.5607 34.9408 15.5852 34.9006 15.6092C34.8808 15.6076 34.8709 15.6169 34.8704 15.6365C34.8462 15.6588 34.822 15.6806 34.7978 15.703L34.8 15.7008C34.6597 15.7602 34.5613 15.8676 34.4689 15.9815L34.4205 16.0268C34.3996 16.0475 34.3787 16.0688 34.3583 16.0895L34.3567 16.09Z" fill="#FDFDFD"/>
    <path d="M5.75783 22.0853C5.72538 22.1202 5.69293 22.1551 5.65992 22.19C5.57632 22.2434 5.52297 22.3197 5.48611 22.4091L5.48886 22.4064C5.35741 22.5138 5.2815 22.6615 5.2001 22.8049C5.18084 22.8054 5.17259 22.8152 5.17534 22.8343C4.63796 23.7016 4.40584 24.649 4.45865 25.6596C4.4735 25.9474 4.56095 26.2363 4.77547 26.4609L4.77272 26.4582C4.79582 26.5557 4.86072 26.6228 4.93883 26.6806L4.93608 26.6779C5.01583 26.8201 5.12694 26.9308 5.27215 27.0076L5.26665 27.0022C5.28755 27.0213 5.309 27.0398 5.3299 27.0589L5.32495 27.054C5.34585 27.0714 5.36676 27.0894 5.38766 27.1069L5.38546 27.1058C5.42121 27.127 5.45696 27.1488 5.49271 27.1701L5.48831 27.1657C5.58952 27.2758 5.72868 27.3216 5.86014 27.3783C6.56418 27.6836 7.29408 27.6541 8.03278 27.5473C9.55307 27.3271 10.9617 26.8229 12.2279 25.949C12.2427 25.9507 12.251 25.9441 12.2521 25.9294C12.2774 25.9054 12.3032 25.8815 12.3286 25.8575L12.3247 25.8613C12.366 25.8357 12.4078 25.81 12.449 25.7844C12.4628 25.7855 12.4705 25.7795 12.4716 25.7659C12.4969 25.7414 12.5216 25.7168 12.5469 25.6918L12.5442 25.6945C12.6481 25.6351 12.7499 25.5729 12.8203 25.4721L12.8175 25.4743C12.8747 25.4187 12.9319 25.3631 12.9897 25.3075C13.0942 25.2339 13.1839 25.1461 13.2565 25.0414C13.2999 24.9984 13.3439 24.9553 13.3874 24.9123C13.4022 24.9123 13.4094 24.9046 13.4083 24.8899C13.4517 24.8299 13.4946 24.7705 13.5381 24.7106L13.5353 24.7133C13.5722 24.6751 13.614 24.6402 13.6459 24.5977C14.3004 23.7196 14.6277 22.7329 14.7102 21.6438C14.7751 20.7836 14.5144 20.0706 13.916 19.4628C13.845 19.3925 13.774 19.3216 13.7031 19.2513C13.6591 19.2077 13.6156 19.1641 13.5716 19.1205C13.5705 19.1079 13.5639 19.1019 13.5513 19.1019C13.4908 19.0578 13.4303 19.0142 13.3698 18.97L13.3747 18.9749C13.3538 18.9564 13.3329 18.9373 13.312 18.9188L13.3159 18.9226C12.8819 18.5481 12.4001 18.2456 11.8874 17.9888L11.8902 17.9916C11.7384 17.864 11.5563 17.7888 11.3803 17.7037C11.3781 17.6847 11.3671 17.677 11.3484 17.6814C10.8941 17.4465 10.4458 17.199 9.9667 17.0142C9.06794 16.5819 8.16918 16.1502 7.27098 15.7174C6.97286 15.574 6.67584 15.4274 6.37827 15.2824C6.36397 15.272 6.34857 15.266 6.33097 15.2644L6.33427 15.2677C6.0334 15.0981 5.73253 14.9286 5.43166 14.7591C5.42946 14.7438 5.42066 14.7378 5.40581 14.7411C5.2925 14.6789 5.17919 14.6163 5.06589 14.5541L5.07029 14.5585C4.87887 14.4129 4.67701 14.2837 4.4614 14.1753L4.46415 14.1785C4.4262 14.1137 4.36349 14.0848 4.29474 14.0657L4.29969 14.0711C4.27824 14.0532 4.25679 14.0357 4.23533 14.0177L4.23863 14.0199C4.18308 13.9823 4.12808 13.9447 4.07252 13.9065L4.07527 13.9093C4.04007 13.8427 3.97517 13.8188 3.91026 13.7948L3.91356 13.7981C3.76065 13.6514 3.59509 13.5206 3.41413 13.4094C3.39708 13.3952 3.38058 13.3805 3.36353 13.3663C3.33933 13.3413 3.31513 13.3167 3.29092 13.2916C3.28872 13.2704 3.27662 13.2611 3.25517 13.2633C3.25242 13.2508 3.24417 13.2431 3.23152 13.2415C3.23152 13.2284 3.22547 13.2219 3.21282 13.2213C3.09566 13.1221 2.97905 13.0229 2.8619 12.9237C2.84595 12.9079 2.82999 12.8921 2.81404 12.8763C2.73869 12.8005 2.66333 12.7253 2.58798 12.6495C2.57258 12.6337 2.55718 12.6179 2.54178 12.6021C2.52142 12.5808 2.50162 12.5601 2.48127 12.5389L2.48567 12.5432C2.42407 12.4664 2.36301 12.3895 2.30141 12.3121C2.30251 12.2952 2.29426 12.2865 2.27721 12.2865C2.25356 12.2625 2.22936 12.239 2.2057 12.2151L2.20845 12.2178C2.1144 12.0913 2.02034 11.9649 1.92629 11.8384L1.92794 11.8411C1.91034 11.8199 1.89273 11.7986 1.87568 11.7773L1.88063 11.7822C1.78218 11.6143 1.68372 11.4459 1.58581 11.278C1.58967 11.2611 1.58306 11.2513 1.56546 11.2486C1.13149 10.4184 0.926323 9.53367 0.945574 8.60045C0.975826 7.15373 1.25304 5.76589 1.97084 4.48652C1.98294 4.47562 1.98734 4.46199 1.98349 4.44618C2.1485 4.20634 2.31406 3.96649 2.47907 3.72719L2.47687 3.72991C2.54123 3.69339 2.56708 3.62961 2.59568 3.56747L2.59018 3.57292C2.60998 3.55166 2.62978 3.5304 2.64958 3.50914C2.66498 3.49279 2.68038 3.47698 2.69579 3.46063C2.82834 3.31508 2.9609 3.17009 3.09346 3.02454L3.08741 3.03054C3.25297 2.88281 3.41853 2.73564 3.58464 2.58791L3.58189 2.59064C3.7139 2.49415 3.84591 2.39767 3.97792 2.30064C3.99662 2.30282 4.00597 2.29464 4.00707 2.27611C4.17758 2.16164 4.34809 2.04662 4.51805 1.93215L4.51475 1.93487C4.61871 1.89835 4.71606 1.84984 4.79472 1.77079L4.79087 1.77461C5.04994 1.64487 5.30955 1.51514 5.56862 1.3854C5.58402 1.39031 5.59667 1.38704 5.60712 1.37505C5.64562 1.38159 5.66102 1.3576 5.67203 1.32762C5.68798 1.32871 5.70283 1.32544 5.71658 1.31836C5.75563 1.32871 5.76993 1.30473 5.77983 1.2742L5.77488 1.27911C5.88984 1.28892 5.98609 1.23114 6.08675 1.19298C6.65384 0.976028 7.23633 0.80868 7.82816 0.671858C8.87048 0.430375 9.9304 0.303365 10.9964 0.25267C11.9281 0.208516 12.8654 0.185622 13.7944 0.30282C15.0364 0.459811 16.2283 0.789056 17.3273 1.40394C17.3289 1.42193 17.3388 1.42956 17.357 1.42629C17.3993 1.44864 17.4417 1.47099 17.484 1.49334L17.4813 1.49115C17.5005 1.54076 17.5473 1.54458 17.5902 1.55602L17.5852 1.55112C17.6254 1.58164 17.6655 1.61162 17.7057 1.64215C17.715 1.65687 17.7288 1.66177 17.7458 1.65796C17.7689 1.67649 17.7915 1.69448 17.8146 1.71301L17.8107 1.71029C17.8476 1.77352 17.9131 1.79696 17.9752 1.82585L17.9719 1.82258C17.9961 1.84602 18.0198 1.86946 18.044 1.8929C18.044 1.9098 18.0517 1.91743 18.0687 1.91688C18.1853 2.01337 18.3025 2.1104 18.4191 2.20688C18.5065 2.29628 18.594 2.38513 18.6815 2.47453C18.7266 2.53449 18.7722 2.59445 18.8173 2.65441C18.8168 2.66859 18.8234 2.67567 18.8371 2.67676C18.9152 2.77543 18.9939 2.87355 19.072 2.97221L19.0681 2.9684C19.1116 3.04417 19.1556 3.12048 19.199 3.19625C19.1952 3.21478 19.2029 3.22569 19.2221 3.22787C19.655 4.02263 19.831 4.873 19.7788 5.77134C19.726 6.67186 19.5137 7.5255 19.0175 8.29519L19.0203 8.29246C18.935 8.34588 18.8993 8.43583 18.8503 8.51596C18.8168 8.55084 18.7827 8.58519 18.7491 8.62007C18.7233 8.64515 18.6974 8.66968 18.6716 8.69475C18.66 8.6953 18.654 8.70129 18.6534 8.71274C18.5725 8.79287 18.4922 8.873 18.4114 8.95259C18.3949 8.96731 18.3784 8.98202 18.3619 8.9962C18.33 9.01364 18.2964 9.02836 18.2667 9.04907C17.1711 9.80677 15.9868 9.9207 14.7328 9.52822L14.7196 9.5086L14.6959 9.50914C14.6706 9.49824 14.6458 9.48679 14.6205 9.47589C14.6189 9.4579 14.609 9.45082 14.5914 9.45409C14.5133 9.41266 14.4352 9.37123 14.3571 9.32926L14.3598 9.33198C14.2982 9.25349 14.2372 9.17499 14.1756 9.0965C14.1761 9.0845 14.1706 9.07742 14.1585 9.07578C14.1052 8.94877 13.9649 8.82503 14.1409 8.68767L14.1382 8.69039C14.3081 8.58737 14.4583 8.46254 14.5831 8.30827L14.5804 8.311C14.8362 8.11748 15.0452 7.87818 15.2553 7.63997C15.2663 7.62634 15.2773 7.61271 15.2888 7.59909L15.3031 7.58437C15.3213 7.586 15.3301 7.57783 15.3301 7.55984L15.4604 7.37832L15.4577 7.38104C15.5435 7.3298 15.587 7.24695 15.626 7.16082L15.6233 7.16355C15.6986 7.12757 15.7113 7.04689 15.7514 6.98639C15.7707 6.9853 15.7784 6.97548 15.7756 6.9564C16.4769 5.95014 16.3147 4.86319 15.6805 4.03844L15.6849 4.04226C15.6629 3.97412 15.6326 3.91198 15.5655 3.87546C15.532 3.84111 15.499 3.80623 15.4654 3.77189C15.4087 3.67867 15.3334 3.60454 15.2388 3.54948L15.2415 3.55221C15.219 3.52877 15.1959 3.50587 15.1733 3.48243C15.1585 3.47044 15.1431 3.4579 15.1282 3.44591L15.1145 3.43283C15.1161 3.41538 15.1079 3.40721 15.0908 3.40775C15.0485 3.38213 15.0061 3.35651 14.9638 3.33089L14.9671 3.33362C14.9302 3.25948 14.8499 3.24531 14.7878 3.20606C14.7856 3.18698 14.7757 3.1799 14.757 3.18371C14.202 2.84956 13.5898 2.69203 12.9512 2.63152C11.9534 2.53667 10.9623 2.61244 9.9799 2.79505C8.86388 3.00274 7.81386 3.3696 6.92281 4.09895L6.92666 4.09622C6.90575 4.1153 6.8843 4.13438 6.8634 4.15401C6.8469 4.16872 6.8304 4.1829 6.81335 4.19761C6.46903 4.42765 6.20996 4.73727 5.98335 5.07687L5.9861 5.07415C5.92229 5.11176 5.88599 5.16791 5.86894 5.23822L5.87224 5.23495C5.81173 5.27638 5.77598 5.33307 5.76113 5.40448L5.76498 5.40067C5.74298 5.42792 5.71768 5.45245 5.70008 5.48243C5.06479 6.55575 4.86127 7.72828 4.89098 8.95368C4.90143 9.3745 5.02573 9.76207 5.27105 10.1088L5.26775 10.1055C5.26885 10.1851 5.3167 10.2341 5.37831 10.2739L5.37446 10.2707C5.39921 10.3105 5.42341 10.3497 5.44816 10.3895C5.44596 10.4091 5.45531 10.4195 5.47511 10.42C5.54937 10.5209 5.60547 10.6364 5.71548 10.7078C5.78643 10.7787 5.85684 10.849 5.92779 10.9199C6.007 10.9989 6.0862 11.078 6.16541 11.157C6.16541 11.1744 6.17366 11.1826 6.19126 11.1815C6.26991 11.2415 6.34857 11.3015 6.42667 11.3614L6.42392 11.3587C6.47838 11.4388 6.54878 11.4993 6.64339 11.5282L6.64064 11.5255C6.66539 11.5478 6.69014 11.5707 6.71489 11.5931C6.71489 11.6111 6.72424 11.6193 6.74239 11.6176C6.7831 11.6416 6.82435 11.6656 6.86505 11.6901L6.8623 11.6874C6.8876 11.7108 6.9129 11.7348 6.93766 11.7583C6.93876 11.7741 6.94646 11.7806 6.96241 11.779C7.13402 11.8891 7.30563 11.9997 7.47724 12.1099C7.48714 12.1229 7.49979 12.1273 7.51519 12.1224C7.5581 12.1845 7.6186 12.22 7.6923 12.2347L7.68845 12.2314C8.07128 12.5045 8.48986 12.7166 8.90788 12.9291C8.91723 12.9422 8.92933 12.9455 8.94473 12.9401C8.97334 12.9597 8.99974 12.9837 9.03054 12.9989C10.6762 13.8297 12.3219 14.6599 13.9677 15.4901C13.9776 15.5026 13.9897 15.5064 14.0051 15.501C14.1178 15.5686 14.2306 15.6367 14.3433 15.7043C14.3554 15.7185 14.3708 15.7228 14.3884 15.7174C14.6662 15.8842 14.9445 16.0515 15.2223 16.2183L15.219 16.2145C15.3141 16.3126 15.4302 16.3786 15.5562 16.4304L15.5534 16.4277C15.5897 16.4931 15.6508 16.523 15.7201 16.541L15.7168 16.5378C15.7443 16.5623 15.7718 16.5868 15.7993 16.6114L15.8185 16.625C15.84 16.6348 15.8614 16.6441 15.8829 16.6539L15.879 16.6501C15.9379 16.7275 16.0138 16.7809 16.1067 16.8109L16.104 16.8081C16.1293 16.8327 16.154 16.8572 16.1793 16.8817C16.1804 16.8948 16.1876 16.9013 16.2008 16.9003C16.2426 16.9253 16.2844 16.9504 16.3262 16.9749L16.3235 16.9717C16.3477 16.9957 16.3724 17.0196 16.3966 17.0436C16.3966 17.0589 16.4043 17.0665 16.4203 17.0654C16.4995 17.1254 16.5792 17.1848 16.6584 17.2448L16.6557 17.242C16.7283 17.3396 16.8251 17.4078 16.9301 17.4666L16.9257 17.4623C16.9461 17.4819 16.967 17.501 16.9873 17.5206L16.9824 17.5157C17.0033 17.5353 17.0242 17.5549 17.0451 17.5746C17.0611 17.5904 17.077 17.6062 17.093 17.622C17.1689 17.6972 17.2442 17.7719 17.3201 17.8471C17.3542 17.8809 17.3889 17.9152 17.423 17.949C17.5214 18.0646 17.6193 18.1796 17.7178 18.2952C17.7194 18.3159 17.7304 18.3263 17.7519 18.3252L17.7596 18.3323C17.7711 18.347 17.7821 18.3622 17.7937 18.377C17.8564 18.4533 17.8861 18.5547 17.9774 18.6086L17.9747 18.6059C18.182 18.9493 18.3899 19.2933 18.5302 19.67C18.8877 20.6304 18.7794 21.6084 18.6187 22.5857C18.523 23.1701 18.303 23.7179 18.0968 24.2696C18.0841 24.2783 18.0808 24.2903 18.0869 24.3045C17.9895 24.4238 17.9367 24.5661 17.8779 24.7051C17.8647 24.7144 17.8608 24.7264 17.8669 24.7416C17.7552 24.927 17.6435 25.1129 17.5319 25.2982L17.5357 25.2944C17.4714 25.3325 17.4406 25.393 17.4208 25.4612L17.4257 25.4563C17.4081 25.4781 17.3911 25.4993 17.3735 25.5211L17.3757 25.5179C17.3377 25.5724 17.2992 25.6274 17.2613 25.6819L17.264 25.6792C17.1782 25.7305 17.1419 25.8182 17.0946 25.8989L17.0974 25.8962C16.9818 26.0275 16.8669 26.1595 16.7514 26.2908C16.7321 26.2908 16.7222 26.3006 16.7228 26.3197C16.5666 26.4756 16.4109 26.6315 16.2547 26.7874C16.2415 26.7874 16.2349 26.794 16.2343 26.8065C16.209 26.8321 16.1843 26.8577 16.159 26.8834C16.1056 26.9346 16.0523 26.9853 15.9989 27.0365C15.9192 27.0981 15.84 27.1592 15.7602 27.2208C15.7421 27.2208 15.7333 27.2295 15.7338 27.2475C15.6513 27.3107 15.5683 27.3745 15.4858 27.4377C15.4681 27.4366 15.4593 27.4448 15.4593 27.4628C15.3812 27.5233 15.3026 27.5838 15.2245 27.6438L15.2272 27.6411C15.1304 27.7021 15.0336 27.7637 14.9368 27.8248C14.9242 27.8237 14.9176 27.8291 14.9159 27.8417C14.7988 27.9207 14.6811 27.9997 14.5639 28.0788L14.5672 28.0761C14.2883 28.227 14.0089 28.378 13.73 28.5285C13.7108 28.5236 13.6992 28.5307 13.6959 28.5503C13.3423 28.7073 12.9886 28.8643 12.6344 29.0207L12.6102 29.0191C12.6102 29.0191 12.5964 29.0387 12.597 29.0387C10.9529 29.6689 9.2533 30.039 7.49374 30.1671C6.13791 30.2658 4.80187 30.2619 3.52744 29.7065L3.53074 29.7097C3.36408 29.6193 3.19687 29.5282 3.03021 29.4377L3.03296 29.4405C2.79369 29.2557 2.55388 29.0709 2.31461 28.8861C2.29976 28.8714 2.28491 28.8567 2.27006 28.8419C2.17435 28.7329 2.07865 28.6233 1.98294 28.5143L1.98514 28.517C1.94169 28.456 1.89768 28.3955 1.85423 28.3344L1.84158 28.3186C1.81738 28.2908 1.79373 28.2636 1.76953 28.2358L1.77393 28.2396C1.19034 27.326 0.967026 26.3192 1.00718 25.2508C1.05448 23.9981 1.28605 22.7847 1.84103 21.6465C1.86028 21.6427 1.86633 21.6312 1.85973 21.6133C1.88998 21.5528 1.92024 21.4917 1.95049 21.4312C1.96919 21.4279 1.97634 21.4176 1.97194 21.399C2.1243 21.1586 2.27666 20.9182 2.42902 20.6779L2.42627 20.6806C2.52968 20.6108 2.58798 20.5045 2.65178 20.4026C2.66718 20.3862 2.68258 20.3704 2.69799 20.3541C2.74144 20.3126 2.78434 20.2707 2.82779 20.2292C2.8399 20.2145 2.85145 20.1998 2.86355 20.1851L2.86685 20.1824C2.8806 20.1714 2.89435 20.16 2.9081 20.1491C2.9312 20.1246 2.95375 20.1 2.97685 20.0761L2.9741 20.0788C3.03131 20.0232 3.08796 19.9676 3.14516 19.912C3.16167 19.8973 3.17817 19.8825 3.19467 19.8678C3.24857 19.828 3.30192 19.7877 3.35583 19.7479C4.4262 18.9559 5.63242 18.6184 6.95966 18.7106C7.72916 18.764 8.19504 19.205 8.43595 19.9082C8.52506 20.3094 8.52231 20.3023 8.14003 20.462C7.6296 20.6751 7.12742 20.9046 6.69784 21.2622L6.70059 21.2595C6.60323 21.2846 6.53668 21.35 6.47893 21.4268L6.48278 21.423C6.44097 21.4497 6.39972 21.4764 6.35792 21.5031C6.34692 21.5031 6.34032 21.5086 6.33922 21.5195C6.29466 21.5631 6.24956 21.6067 6.20501 21.6503C6.18851 21.6645 6.17201 21.6787 6.15496 21.6923C6.00315 21.803 5.86894 21.9311 5.76003 22.0842L5.75783 22.0853Z" fill="#FDFDFD"/>
    <path d="M52.0274 22.7836C52.0318 22.7678 52.0274 22.7547 52.0142 22.7449C51.3662 21.5822 51.1743 20.3497 51.4058 19.042C51.5065 18.4723 51.7155 17.9419 51.9218 17.4083L51.9185 17.4121C52.0488 17.1755 52.1797 16.9384 52.3101 16.7018L52.3057 16.7056C52.3475 16.6457 52.3887 16.5857 52.4305 16.5257C52.4492 16.5247 52.4575 16.5154 52.4547 16.4969C52.4784 16.4554 52.5015 16.414 52.5251 16.3731L52.5224 16.3758C52.5895 16.3404 52.6115 16.2734 52.6385 16.2101L52.6341 16.2145C52.7133 16.1169 52.7919 16.0193 52.8706 15.9212C52.8849 15.9212 52.8915 15.9136 52.8909 15.8994C52.9349 15.8389 52.9789 15.7779 53.0229 15.7174C53.0383 15.701 53.0537 15.6846 53.0697 15.6683C53.4069 15.3003 53.7594 14.9487 54.1346 14.619C54.1533 14.62 54.1632 14.6113 54.1637 14.5928C54.3733 14.4374 54.5834 14.2821 54.7929 14.1267C54.8111 14.1289 54.8204 14.1213 54.8221 14.1033C54.8826 14.0624 54.964 14.0499 55.0003 13.9752L54.9976 13.9779C55.2192 13.8509 55.4414 13.7239 55.6631 13.5963L55.6592 13.6002C55.7335 13.5685 55.8089 13.5386 55.8815 13.5042C56.8594 13.0414 57.8803 12.8588 58.9567 13.0441C59.5089 13.139 60.0067 13.3696 60.4814 13.6547L60.4792 13.6519C60.5034 13.6737 60.5271 13.6961 60.5513 13.7179C60.5513 13.737 60.5606 13.7462 60.5793 13.7452C60.6569 13.8057 60.7344 13.8662 60.812 13.9261L60.8076 13.9218C60.8279 13.9419 60.8477 13.9616 60.8681 13.9817L60.8626 13.9763C60.8824 13.9964 60.9022 14.0172 60.9214 14.0373L60.917 14.0335C60.9583 14.1185 61.0089 14.196 61.0892 14.2505L61.0864 14.2477C61.2113 14.4903 61.2949 14.7416 61.318 15.018C61.3945 15.9414 61.2295 16.8114 60.7647 17.6203V17.6192C60.7432 17.6547 60.7212 17.6901 60.6998 17.7255L60.7042 17.7206C60.4913 17.9937 60.2784 18.2674 60.0271 18.5078L60.0111 18.5225C59.8566 18.656 59.702 18.7896 59.5474 18.9237L59.5502 18.9209C59.4391 18.9945 59.328 19.0676 59.2169 19.1412L59.2202 19.1379C58.8451 19.3151 58.4776 19.5075 58.0805 19.6405C57.0635 19.9817 56.0157 20.0564 54.9536 20.0117C54.8468 20.0073 54.7676 19.9845 54.7484 20.1354C54.6719 20.7394 54.7088 21.3172 55.0933 21.8275L55.0894 21.8236C55.156 21.943 55.2484 22.0368 55.3699 22.1017L55.3661 22.0978C55.5052 22.2516 55.6961 22.3257 55.8859 22.3579C56.9018 22.5312 57.8643 22.3944 58.7427 21.8275L58.7389 21.8318C58.8121 21.8193 58.8671 21.78 58.9083 21.7201L58.905 21.7233C59.0414 21.6754 59.136 21.568 59.2477 21.4846C59.2658 21.4857 59.2746 21.477 59.2746 21.459C59.2977 21.435 59.3214 21.4115 59.3445 21.3876L59.3401 21.3914C59.361 21.3728 59.3824 21.3538 59.4033 21.3352L59.3995 21.3396C59.4776 21.2774 59.5562 21.2148 59.6344 21.1526C59.652 21.1526 59.6602 21.1434 59.658 21.1259C59.6718 21.1237 59.68 21.1156 59.6822 21.1019C59.7037 21.1019 59.7141 21.0916 59.7141 21.0703L59.7213 21.0616C59.7559 21.0343 59.7933 21.0098 59.8258 20.9793C60.1618 20.6615 60.2218 20.6604 60.5595 20.9929C60.7526 21.1831 60.8956 21.4094 61.0122 21.6519C61.2031 22.1136 61.0606 22.487 60.7036 22.8054C60.6233 22.8773 60.5463 22.9531 60.4677 23.0272C60.4539 23.0272 60.4468 23.0332 60.4462 23.0469C60.422 23.0719 60.3972 23.0965 60.373 23.1215L60.3769 23.1183C60.356 23.1374 60.3351 23.1559 60.3142 23.1744L60.318 23.1706C60.2586 23.212 60.1992 23.2535 60.1393 23.2949C60.1206 23.2938 60.1107 23.3025 60.1107 23.3211C60.0342 23.3837 59.9292 23.4088 59.8742 23.4999L59.8775 23.4966C59.8109 23.5184 59.7482 23.5456 59.7103 23.6094L59.7141 23.6056C59.5084 23.7212 59.3027 23.8367 59.097 23.9517C59.0777 23.9463 59.0662 23.9534 59.0618 23.9725C59.0387 23.9834 59.015 23.9937 58.9919 24.0046C58.971 23.9986 58.9584 24.0057 58.9534 24.0264C58.1416 24.3998 57.3039 24.6702 56.4007 24.7214C54.8226 24.8108 53.4206 24.45 52.3464 23.2148C52.348 23.1957 52.3392 23.1859 52.32 23.1848C52.276 23.1275 52.2325 23.0698 52.1885 23.0125L52.1902 23.0153C52.1726 22.994 52.1544 22.9733 52.1368 22.952L52.1423 22.9575C52.1209 22.9215 52.0994 22.8861 52.0774 22.8501L52.0785 22.8523C52.0609 22.8294 52.0433 22.8065 52.0257 22.783L52.0274 22.7836ZM57.8649 17.8362L57.9028 17.7975C57.916 17.7948 57.9237 17.7866 57.9265 17.7735C57.9402 17.774 57.9468 17.7675 57.9474 17.7544C58.0101 17.6759 58.0728 17.5969 58.1361 17.5184L58.1328 17.5211C58.1581 17.4955 58.1834 17.4699 58.2081 17.4448C58.2202 17.4432 58.2257 17.4361 58.2246 17.4246C58.2505 17.3832 58.2763 17.3412 58.3022 17.2998L58.2978 17.3042C58.3621 17.2676 58.3968 17.2104 58.4138 17.1406L58.4111 17.1434C58.482 17.103 58.4996 17.0272 58.5359 16.9629C58.5563 16.9607 58.564 16.9498 58.5601 16.9302C58.6487 16.7634 58.7526 16.6026 58.8225 16.4282C59.0464 15.8711 59.1789 15.2987 59.0678 14.6936C59.0337 14.5083 58.9248 14.3922 58.7317 14.4178C58.5574 14.4407 58.3731 14.4516 58.2219 14.5634C58.2065 14.5585 58.1933 14.5617 58.1817 14.5732C57.9474 14.6511 57.7455 14.7803 57.5662 14.9471C57.5497 14.9613 57.5327 14.9755 57.5162 14.9896C57.4546 15.0343 57.3935 15.079 57.3319 15.1237C57.3176 15.1237 57.311 15.1308 57.311 15.145C57.25 15.2066 57.1883 15.2676 57.1273 15.3292C57.0926 15.3636 57.0585 15.3979 57.0239 15.4323C56.998 15.4568 56.9716 15.4813 56.9458 15.5064C56.9326 15.5075 56.926 15.514 56.9265 15.5271C56.8473 15.6241 56.7681 15.7206 56.6889 15.8176L56.6917 15.8149C56.6064 15.8662 56.5597 15.9468 56.5217 16.0341L56.5261 16.0302C56.508 16.051 56.4898 16.0722 56.4716 16.0929L56.4739 16.0897C56.4359 16.1442 56.3974 16.1992 56.3594 16.2537L56.3622 16.251C56.2945 16.2859 56.2747 16.3535 56.2467 16.4151L56.25 16.4118C56.1851 16.4511 56.1609 16.5159 56.1389 16.5824C56.1081 16.5901 56.0899 16.607 56.0954 16.6413C56.0492 16.7144 56.003 16.7874 55.9568 16.8604C55.937 16.8632 55.9293 16.8746 55.9337 16.8937C55.6141 17.4328 55.343 17.9932 55.1791 18.5999L55.1653 18.6566C55.2176 18.7623 54.9145 18.9727 55.2401 18.9853C55.9134 19.0114 56.5366 18.831 57.0937 18.4472L57.091 18.45C57.218 18.3987 57.3308 18.3262 57.4216 18.2227C57.4381 18.2079 57.4551 18.1938 57.4716 18.1791C57.5338 18.1327 57.5959 18.0858 57.6581 18.0395L57.6702 18.0275C57.6955 18.0014 57.7208 17.9757 57.7455 17.9496L57.7433 17.9512C57.7692 17.9283 57.7945 17.906 57.8203 17.8831C57.8407 17.8803 57.8506 17.8689 57.8489 17.8487L57.8638 17.8345L57.8649 17.8362Z" fill="#FDFDFD"/>
    <path d="M13.9673 15.4906C12.3216 14.6604 10.6758 13.8302 9.03014 12.9995C8.99934 12.9837 8.97294 12.9602 8.94434 12.9406C9.1913 12.9351 9.39977 13.0709 9.59888 13.1712C10.2199 13.4846 10.8161 13.8444 11.4585 14.1191C11.8606 14.2914 12.2517 14.4903 12.6472 14.6778C12.8584 14.9171 13.1879 14.9384 13.4458 15.0976C13.635 15.2142 13.8424 15.2944 13.9678 15.4906H13.9673Z" fill="#1F2429"/>
  </g>
  <defs>
    <clipPath id="clip0_71_7011">
      <rect width="60.5556" height="30" fill="white" transform="translate(0.944336 0.216797)"/>
    </clipPath>
  </defs>
</svg>